<svg xmlns="http://www.w3.org/2000/svg" xmlns:xlink="http://www.w3.org/1999/xlink" xmlns:inkscape="http://www.inkscape.org/namespaces/inkscape" version="1.1" width="16" height="16" viewBox="0 0 16 16">
<defs>
<clipPath id="clip_1">
<path transform="matrix(1,0,0,-1,-201.875,695.75)" d="M203.875 681.75H215.875V693.75H203.875Z"/>
</clipPath>
<clipPath id="clip_2">
<path transform="matrix(1,0,0,-1,-201.875,695.75)" d="M203.875 693.75V681.75H215.875V693.75Z" clip-rule="evenodd"/>
</clipPath>
</defs>
<g clip-path="url(#clip_1)">
<g clip-path="url(#clip_2)">
<path transform="matrix(1,0,0,-1,4.225006,3.770996)" d="M0 0 7.86-8.16H0" fill="#ffffff" fill-rule="evenodd"/>
<path transform="matrix(1,0,0,-1,4.225006,3.770996)" d="M0 0H7.86V-8.16" fill="#ffffff" fill-rule="evenodd"/>
<path transform="matrix(1,0,0,-1,-201.875,695.75)" stroke-width=".84" stroke-linecap="round" stroke-linejoin="round" fill="none" stroke="#cd2027" d="M206.1 691.979H213.96V683.81906H206.1Z"/>
<path transform="matrix(1,0,0,-1,8.544998,5.031006)" stroke-width=".84" stroke-linecap="round" stroke-linejoin="bevel" fill="none" stroke="#cd2027" d="M0 0-.06 .24-.24 .42-.48 .48-.72 .42-.9 .24-.96 0-.9-.24-.72-.42-.48-.48-.24-.42-.06-.24 0 0Z"/>
<path transform="matrix(1,0,0,-1,5.9649965,10.911011)" stroke-width=".84" stroke-linecap="round" stroke-linejoin="round" fill="none" stroke="#cd2027" d="M0 0 2.1 5.4 4.14 0"/>
<path transform="matrix(1,0,0,-1,6.744996,9.111011)" stroke-width=".84" stroke-linecap="round" stroke-linejoin="round" fill="none" stroke="#cd2027" d="M0 0H2.58"/>
</g>
</g>
</svg>
