<svg xmlns="http://www.w3.org/2000/svg" xmlns:xlink="http://www.w3.org/1999/xlink" xmlns:inkscape="http://www.inkscape.org/namespaces/inkscape" version="1.1" width="14.5" height="12.25" viewBox="0 0 14.5 12.25">
<defs>
<clipPath id="clip_1">
<path transform="matrix(1,0,0,-1,-201.875,804.5)" d="M203.875 794.25H214.375V802.5H203.875Z"/>
</clipPath>
<clipPath id="clip_2">
<path transform="matrix(1,0,0,-1,-201.875,804.5)" d="M203.875 802.5V794.25H214.375V802.5Z" clip-rule="evenodd"/>
</clipPath>
</defs>
<g clip-path="url(#clip_1)">
<g clip-path="url(#clip_2)">
<path transform="matrix(1,0,0,-1,6.625,4.281006)" d="M0 0 .84-.6H0" fill="#007b4e" fill-rule="evenodd"/>
<path transform="matrix(1,0,0,-1,6.625,4.281006)" d="M0 0H.84V-.6" fill="#007b4e" fill-rule="evenodd"/>
<path transform="matrix(1,0,0,-1,4.044998,4.281006)" d="M0 0 .84-.66H0" fill="#007b4e" fill-rule="evenodd"/>
<path transform="matrix(1,0,0,-1,4.044998,4.281006)" d="M0 0H.84V-.66" fill="#007b4e" fill-rule="evenodd"/>
<path transform="matrix(1,0,0,-1,6.625,4.8809816)" d="M0 0 .84-.06H0" fill="#007b4e" fill-rule="evenodd"/>
<path transform="matrix(1,0,0,-1,6.625,4.8809816)" d="M0 0H.84V-.06" fill="#007b4e" fill-rule="evenodd"/>
<path transform="matrix(1,0,0,-1,4.044998,4.940979)" d="M0 0H.84" fill="#007b4e" fill-rule="evenodd"/>
<path transform="matrix(1,0,0,-1,4.044998,4.940979)" d="M0 0H.84" fill="#007b4e" fill-rule="evenodd"/>
<path transform="matrix(1,0,0,-1,8.125,4.281006)" d="M0 0 2.58-.72H0" fill="#007b4e" fill-rule="evenodd"/>
<path transform="matrix(1,0,0,-1,8.125,4.281006)" d="M0 0H2.58V-.72" fill="#007b4e" fill-rule="evenodd"/>
<path transform="matrix(1,0,0,-1,6.625,4.940979)" d="M0 0 .84-.6H0" fill="#007b4e" fill-rule="evenodd"/>
<path transform="matrix(1,0,0,-1,6.625,4.940979)" d="M0 0H.84V-.6" fill="#007b4e" fill-rule="evenodd"/>
<path transform="matrix(1,0,0,-1,4.044998,4.940979)" d="M0 0 .84-.6H0" fill="#007b4e" fill-rule="evenodd"/>
<path transform="matrix(1,0,0,-1,4.044998,4.940979)" d="M0 0H.84V-.6" fill="#007b4e" fill-rule="evenodd"/>
<path transform="matrix(1,0,0,-1,6.625,5.5410158)" d="M0 0 .84-.18H0" fill="#007b4e" fill-rule="evenodd"/>
<path transform="matrix(1,0,0,-1,6.625,5.5410158)" d="M0 0H.84V-.18" fill="#007b4e" fill-rule="evenodd"/>
<path transform="matrix(1,0,0,-1,4.044998,5.5410158)" d="M0 0 .84-.18H0" fill="#007b4e" fill-rule="evenodd"/>
<path transform="matrix(1,0,0,-1,4.044998,5.5410158)" d="M0 0H.84V-.18" fill="#007b4e" fill-rule="evenodd"/>
<path transform="matrix(1,0,0,-1,6.625,5.7210085)" d="M0 0 .84-.48H0" fill="#007b4e" fill-rule="evenodd"/>
<path transform="matrix(1,0,0,-1,6.625,5.7210085)" d="M0 0H.84V-.48" fill="#007b4e" fill-rule="evenodd"/>
<path transform="matrix(1,0,0,-1,4.044998,5.7210085)" d="M0 0 .84-.48H0" fill="#007b4e" fill-rule="evenodd"/>
<path transform="matrix(1,0,0,-1,4.044998,5.7210085)" d="M0 0H.84V-.48" fill="#007b4e" fill-rule="evenodd"/>
<path transform="matrix(1,0,0,-1,6.625,6.200989)" d="M0 0 .84-.18H0" fill="#007b4e" fill-rule="evenodd"/>
<path transform="matrix(1,0,0,-1,6.625,6.200989)" d="M0 0H.84V-.18" fill="#007b4e" fill-rule="evenodd"/>
<path transform="matrix(1,0,0,-1,4.044998,6.200989)" d="M0 0 .84-.18H0" fill="#007b4e" fill-rule="evenodd"/>
<path transform="matrix(1,0,0,-1,4.044998,6.200989)" d="M0 0H.84V-.18" fill="#007b4e" fill-rule="evenodd"/>
<path transform="matrix(1,0,0,-1,6.625,6.3809816)" d="M0 0 .84-.48H0" fill="#007b4e" fill-rule="evenodd"/>
<path transform="matrix(1,0,0,-1,6.625,6.3809816)" d="M0 0H.84V-.48" fill="#007b4e" fill-rule="evenodd"/>
<path transform="matrix(1,0,0,-1,4.044998,6.3809816)" d="M0 0 .84-.48H0" fill="#007b4e" fill-rule="evenodd"/>
<path transform="matrix(1,0,0,-1,4.044998,6.3809816)" d="M0 0H.84V-.48" fill="#007b4e" fill-rule="evenodd"/>
<path transform="matrix(1,0,0,-1,6.625,6.861023)" d="M0 0 .84-.24H0" fill="#007b4e" fill-rule="evenodd"/>
<path transform="matrix(1,0,0,-1,6.625,6.861023)" d="M0 0H.84V-.24" fill="#007b4e" fill-rule="evenodd"/>
<path transform="matrix(1,0,0,-1,4.044998,6.861023)" d="M0 0 .84-.24H0" fill="#007b4e" fill-rule="evenodd"/>
<path transform="matrix(1,0,0,-1,4.044998,6.861023)" d="M0 0H.84V-.24" fill="#007b4e" fill-rule="evenodd"/>
<path transform="matrix(1,0,0,-1,6.625,7.101013)" d="M0 0 .84-.06H0" fill="#007b4e" fill-rule="evenodd"/>
<path transform="matrix(1,0,0,-1,6.625,7.101013)" d="M0 0H.84V-.06" fill="#007b4e" fill-rule="evenodd"/>
<path transform="matrix(1,0,0,-1,4.044998,7.101013)" d="M0 0 .9-.06H0" fill="#007b4e" fill-rule="evenodd"/>
<path transform="matrix(1,0,0,-1,4.044998,7.101013)" d="M0 0H.84L.9-.06" fill="#007b4e" fill-rule="evenodd"/>
<path transform="matrix(1,0,0,-1,6.625,7.1610109)" d="M0 0 .78-.24H-.06" fill="#007b4e" fill-rule="evenodd"/>
<path transform="matrix(1,0,0,-1,6.625,7.1610109)" d="M0 0H.84L.78-.24" fill="#007b4e" fill-rule="evenodd"/>
<path transform="matrix(1,0,0,-1,4.044998,7.1610109)" d="M0 0 .9-.24H0" fill="#007b4e" fill-rule="evenodd"/>
<path transform="matrix(1,0,0,-1,4.044998,7.1610109)" d="M0 0H.9V-.24" fill="#007b4e" fill-rule="evenodd"/>
<path transform="matrix(1,0,0,-1,6.5650026,7.401001)" d="M0 0 .84-.24H-.12" fill="#007b4e" fill-rule="evenodd"/>
<path transform="matrix(1,0,0,-1,6.5650026,7.401001)" d="M0 0H.84V-.24" fill="#007b4e" fill-rule="evenodd"/>
<path transform="matrix(1,0,0,-1,4.044998,7.401001)" d="M0 0 1.02-.24H.06" fill="#007b4e" fill-rule="evenodd"/>
<path transform="matrix(1,0,0,-1,4.044998,7.401001)" d="M0 0H.9L1.02-.24" fill="#007b4e" fill-rule="evenodd"/>
<path transform="matrix(1,0,0,-1,6.4450075,7.640991)" d="M0 0 .9-.06H-.06" fill="#007b4e" fill-rule="evenodd"/>
<path transform="matrix(1,0,0,-1,6.4450075,7.640991)" d="M0 0H.96L.9-.06" fill="#007b4e" fill-rule="evenodd"/>
<path transform="matrix(1,0,0,-1,4.1049959,7.640991)" d="M0 0 1.08-.06H0" fill="#007b4e" fill-rule="evenodd"/>
<path transform="matrix(1,0,0,-1,4.1049959,7.640991)" d="M0 0H.96L1.08-.06" fill="#007b4e" fill-rule="evenodd"/>
<path transform="matrix(1,0,0,-1,6.3849947,7.700989)" d="M0 0 .9-.12H-.18" fill="#007b4e" fill-rule="evenodd"/>
<path transform="matrix(1,0,0,-1,6.3849947,7.700989)" d="M0 0H.96L.9-.12" fill="#007b4e" fill-rule="evenodd"/>
<path transform="matrix(1,0,0,-1,4.1049959,7.700989)" d="M0 0 1.26-.12H.12" fill="#007b4e" fill-rule="evenodd"/>
<path transform="matrix(1,0,0,-1,4.1049959,7.700989)" d="M0 0H1.08L1.26-.12" fill="#007b4e" fill-rule="evenodd"/>
<path transform="matrix(1,0,0,-1,6.205002,7.820984)" d="M0 0 1.02-.06H-.48" fill="#007b4e" fill-rule="evenodd"/>
<path transform="matrix(1,0,0,-1,6.205002,7.820984)" d="M0 0H1.08L1.02-.06" fill="#007b4e" fill-rule="evenodd"/>
<path transform="matrix(1,0,0,-1,4.225006,7.820984)" d="M0 0 1.5-.06H.06" fill="#007b4e" fill-rule="evenodd"/>
<path transform="matrix(1,0,0,-1,4.225006,7.820984)" d="M0 0H1.14L1.5-.06" fill="#007b4e" fill-rule="evenodd"/>
<path transform="matrix(1,0,0,-1,4.2850039,7.8809816)" d="M0 0 2.88-.18H.12" fill="#007b4e" fill-rule="evenodd"/>
<path transform="matrix(1,0,0,-1,4.2850039,7.8809816)" d="M0 0H2.94L2.88-.18" fill="#007b4e" fill-rule="evenodd"/>
<path transform="matrix(1,0,0,-1,4.404999,8.060974)" d="M0 0 2.34-.3H.36" fill="#007b4e" fill-rule="evenodd"/>
<path transform="matrix(1,0,0,-1,4.404999,8.060974)" d="M0 0H2.76L2.34-.3" fill="#007b4e" fill-rule="evenodd"/>
<path transform="matrix(1,0,0,-1,4.7649996,8.361023)" d="M0 0 1.5-.18H.48" fill="#007b4e" fill-rule="evenodd"/>
<path transform="matrix(1,0,0,-1,4.7649996,8.361023)" d="M0 0H1.98L1.5-.18" fill="#007b4e" fill-rule="evenodd"/>
<path transform="matrix(1,0,0,-1,8.964996,5.0009768)" d="M0 0 .9-3.66H0" fill="#007b4e" fill-rule="evenodd"/>
<path transform="matrix(1,0,0,-1,8.964996,5.0009768)" d="M0 0H.9V-3.66" fill="#007b4e" fill-rule="evenodd"/>
<path transform="matrix(1,0,0,-1,5.244995,8.541016)" d="M0 0 .48-.12" fill="#007b4e" fill-rule="evenodd"/>
<path transform="matrix(1,0,0,-1,5.244995,8.541016)" d="M0 0H1.02L.48-.12" fill="#007b4e" fill-rule="evenodd"/>
<path transform="matrix(1,0,0,-1,9.8650059,8.661011)" stroke-width=".72" stroke-linecap="round" stroke-linejoin="round" fill="none" stroke="#007b4e" d="M0 0H-.9V3.66"/>
<path transform="matrix(1,0,0,-1,9.8650059,5.001011)" stroke-width=".72" stroke-linecap="round" stroke-linejoin="round" fill="none" stroke="#007b4e" d="M0 0V-3.66"/>
<path transform="matrix(1,0,0,-1,10.705006,4.2810108)" stroke-width=".72" stroke-linecap="round" stroke-linejoin="round" fill="none" stroke="#007b4e" d="M0 0V-.72H-.84"/>
<path transform="matrix(1,0,0,-1,8.125006,5.001011)" stroke-width=".72" stroke-linecap="round" stroke-linejoin="round" fill="none" stroke="#007b4e" d="M0 0H.84"/>
<path transform="matrix(1,0,0,-1,10.705006,4.2810108)" stroke-width=".72" stroke-linecap="round" stroke-linejoin="round" fill="none" stroke="#007b4e" d="M0 0H-2.58V-.72"/>
<path transform="matrix(1,0,0,-1,4.8850057,5.541011)" stroke-width=".72" stroke-linecap="round" stroke-linejoin="round" fill="none" stroke="#007b4e" d="M0 0V1.26H-.84V-.18C-.744-1.606-1.3-2.433 .36-3L.84-3.12 1.38-3C2.921-2.645 2.527-1.385 2.58-.18V1.26H1.74V-1.56L1.68-1.86 1.56-2.1 1.32-2.28 .84-2.34C.138-2.311-.018-1.948 0-1.32V0Z"/>
</g>
</g>
</svg>
