<svg xmlns="http://www.w3.org/2000/svg" xmlns:xlink="http://www.w3.org/1999/xlink" xmlns:inkscape="http://www.inkscape.org/namespaces/inkscape" version="1.1" width="14.5" height="16.75" viewBox="0 0 14.5 16.75">
<defs>
<clipPath id="clip_1">
<path transform="matrix(1,0,0,-1,-202.625,668.75)" d="M204.625 654H215.125V666.75H204.625Z"/>
</clipPath>
<clipPath id="clip_2">
<path transform="matrix(1,0,0,-1,-202.625,668.75)" d="M204.625 666.75V654H215.125V666.75Z" clip-rule="evenodd"/>
</clipPath>
</defs>
<g clip-path="url(#clip_1)">
<g clip-path="url(#clip_2)">
<path transform="matrix(1,0,0,-1,3.475006,4.491028)" d="M0 0 7.86-8.1H0" fill="#ffffff" fill-rule="evenodd"/>
<path transform="matrix(1,0,0,-1,3.475006,4.491028)" d="M0 0H7.86V-8.1" fill="#ffffff" fill-rule="evenodd"/>
<path transform="matrix(1,0,0,-1,3.475006,4.491028)" stroke-width=".84" stroke-linecap="round" stroke-linejoin="round" fill="none" stroke="#cd2027" d="M0 0H7.86V-8.1H0Z"/>
<path transform="matrix(1,0,0,-1,5.395006,11.211027)" stroke-width=".84" stroke-linecap="round" stroke-linejoin="round" fill="none" stroke="#cd2027" d="M0 0V5.4H3.3"/>
<path transform="matrix(1,0,0,-1,5.395006,8.391027)" stroke-width=".84" stroke-linecap="round" stroke-linejoin="round" fill="none" stroke="#cd2027" d="M0 0H2.04"/>
</g>
</g>
</svg>
