<svg xmlns="http://www.w3.org/2000/svg" xmlns:xlink="http://www.w3.org/1999/xlink" xmlns:inkscape="http://www.inkscape.org/namespaces/inkscape" version="1.1" width="19.75" height="21.25" viewBox="0 0 19.75 21.25">
<defs>
<clipPath id="clip_1">
<path transform="matrix(1,0,0,-1,-174.875,825.5)" d="M176.875 806.25H192.625V823.5H176.875Z"/>
</clipPath>
<clipPath id="clip_2">
<path transform="matrix(1,0,0,-1,-174.875,825.5)" d="M176.875 823.5V806.25H192.625V823.5Z" clip-rule="evenodd"/>
</clipPath>
</defs>
<g clip-path="url(#clip_1)">
<g clip-path="url(#clip_2)">
<path transform="matrix(1,0,0,-1,10.8849949,14.841003)" stroke-width="1.14" stroke-linecap="round" stroke-linejoin="round" fill="none" stroke="#007b4e" d="M0 0 6.36-2.16 0-4.02"/>
<path transform="matrix(1,0,0,-1,2.9049946,17.001004)" stroke-width="1.14" stroke-linecap="round" stroke-linejoin="round" fill="none" stroke="#007b4e" d="M0 0H14.34"/>
<path transform="matrix(1,0,0,-1,10.8849949,2.781003)" stroke-width="1.14" stroke-linecap="round" stroke-linejoin="round" fill="none" stroke="#007b4e" d="M0 0 6.36-2.1 0-4.02"/>
<path transform="matrix(1,0,0,-1,2.9049946,4.881003)" stroke-width="1.14" stroke-linecap="round" stroke-linejoin="round" fill="none" stroke="#007b4e" d="M0 0H14.34"/>
<path transform="matrix(1,0,0,-1,5.0650026,7.7609865)" d="M0 0 9.72-6.18H0" fill="#ffffff" fill-rule="evenodd"/>
<path transform="matrix(1,0,0,-1,5.0650026,7.7609865)" d="M0 0H9.72V-6.18" fill="#ffffff" fill-rule="evenodd"/>
<path transform="matrix(1,0,0,-1,9.3849949,8.721008)" d="M0 0 .78-.6H0" fill="#007b4e" fill-rule="evenodd"/>
<path transform="matrix(1,0,0,-1,9.3849949,8.721008)" d="M0 0H.78V-.6" fill="#007b4e" fill-rule="evenodd"/>
<path transform="matrix(1,0,0,-1,6.925003,8.721008)" d="M0 0 .84-.66H0" fill="#007b4e" fill-rule="evenodd"/>
<path transform="matrix(1,0,0,-1,6.925003,8.721008)" d="M0 0H.84V-.66" fill="#007b4e" fill-rule="evenodd"/>
<path transform="matrix(1,0,0,-1,9.3849949,9.320984)" d="M0 0 .78-.06H0" fill="#007b4e" fill-rule="evenodd"/>
<path transform="matrix(1,0,0,-1,9.3849949,9.320984)" d="M0 0H.78V-.06" fill="#007b4e" fill-rule="evenodd"/>
<path transform="matrix(1,0,0,-1,6.925003,9.380981)" d="M0 0H.84" fill="#007b4e" fill-rule="evenodd"/>
<path transform="matrix(1,0,0,-1,6.925003,9.380981)" d="M0 0H.84" fill="#007b4e" fill-rule="evenodd"/>
<path transform="matrix(1,0,0,-1,10.824997,8.721008)" d="M0 0 2.46-.72H0" fill="#007b4e" fill-rule="evenodd"/>
<path transform="matrix(1,0,0,-1,10.824997,8.721008)" d="M0 0H2.46V-.72" fill="#007b4e" fill-rule="evenodd"/>
<path transform="matrix(1,0,0,-1,9.3849949,9.380981)" d="M0 0 .78-.54H0" fill="#007b4e" fill-rule="evenodd"/>
<path transform="matrix(1,0,0,-1,9.3849949,9.380981)" d="M0 0H.78V-.54" fill="#007b4e" fill-rule="evenodd"/>
<path transform="matrix(1,0,0,-1,6.925003,9.380981)" d="M0 0 .84-.54H0" fill="#007b4e" fill-rule="evenodd"/>
<path transform="matrix(1,0,0,-1,6.925003,9.380981)" d="M0 0H.84V-.54" fill="#007b4e" fill-rule="evenodd"/>
<path transform="matrix(1,0,0,-1,9.3849949,9.9210209)" d="M0 0 .78-.18H0" fill="#007b4e" fill-rule="evenodd"/>
<path transform="matrix(1,0,0,-1,9.3849949,9.9210209)" d="M0 0H.78V-.18" fill="#007b4e" fill-rule="evenodd"/>
<path transform="matrix(1,0,0,-1,6.925003,9.9210209)" d="M0 0 .84-.18H0" fill="#007b4e" fill-rule="evenodd"/>
<path transform="matrix(1,0,0,-1,6.925003,9.9210209)" d="M0 0H.84V-.18" fill="#007b4e" fill-rule="evenodd"/>
<path transform="matrix(1,0,0,-1,9.3849949,10.101013)" d="M0 0 .78-.48H0" fill="#007b4e" fill-rule="evenodd"/>
<path transform="matrix(1,0,0,-1,9.3849949,10.101013)" d="M0 0H.78V-.48" fill="#007b4e" fill-rule="evenodd"/>
<path transform="matrix(1,0,0,-1,6.925003,10.101013)" d="M0 0 .84-.48H0" fill="#007b4e" fill-rule="evenodd"/>
<path transform="matrix(1,0,0,-1,6.925003,10.101013)" d="M0 0H.84V-.48" fill="#007b4e" fill-rule="evenodd"/>
<path transform="matrix(1,0,0,-1,9.3849949,10.580994)" d="M0 0 .78-.18H0" fill="#007b4e" fill-rule="evenodd"/>
<path transform="matrix(1,0,0,-1,9.3849949,10.580994)" d="M0 0H.78V-.18" fill="#007b4e" fill-rule="evenodd"/>
<path transform="matrix(1,0,0,-1,6.925003,10.580994)" d="M0 0 .84-.18H0" fill="#007b4e" fill-rule="evenodd"/>
<path transform="matrix(1,0,0,-1,6.925003,10.580994)" d="M0 0H.84V-.18" fill="#007b4e" fill-rule="evenodd"/>
<path transform="matrix(1,0,0,-1,9.3849949,10.760986)" d="M0 0 .78-.42H0" fill="#007b4e" fill-rule="evenodd"/>
<path transform="matrix(1,0,0,-1,9.3849949,10.760986)" d="M0 0H.78V-.42" fill="#007b4e" fill-rule="evenodd"/>
<path transform="matrix(1,0,0,-1,6.925003,10.760986)" d="M0 0 .84-.42H0" fill="#007b4e" fill-rule="evenodd"/>
<path transform="matrix(1,0,0,-1,6.925003,10.760986)" d="M0 0H.84V-.42" fill="#007b4e" fill-rule="evenodd"/>
<path transform="matrix(1,0,0,-1,9.3849949,11.18103)" d="M0 0 .78-.3H0" fill="#007b4e" fill-rule="evenodd"/>
<path transform="matrix(1,0,0,-1,9.3849949,11.18103)" d="M0 0H.78V-.3" fill="#007b4e" fill-rule="evenodd"/>
<path transform="matrix(1,0,0,-1,6.925003,11.18103)" d="M0 0 .84-.3H0" fill="#007b4e" fill-rule="evenodd"/>
<path transform="matrix(1,0,0,-1,6.925003,11.18103)" d="M0 0H.84V-.3" fill="#007b4e" fill-rule="evenodd"/>
<path transform="matrix(1,0,0,-1,9.3849949,11.481018)" d="M0 0H.78" fill="#007b4e" fill-rule="evenodd"/>
<path transform="matrix(1,0,0,-1,9.3849949,11.481018)" d="M0 0H.78" fill="#007b4e" fill-rule="evenodd"/>
<path transform="matrix(1,0,0,-1,6.925003,11.481018)" d="M0 0H.84" fill="#007b4e" fill-rule="evenodd"/>
<path transform="matrix(1,0,0,-1,6.925003,11.481018)" d="M0 0H.84" fill="#007b4e" fill-rule="evenodd"/>
<path transform="matrix(1,0,0,-1,9.3849949,11.481018)" d="M0 0 .78-.24H-.06" fill="#007b4e" fill-rule="evenodd"/>
<path transform="matrix(1,0,0,-1,9.3849949,11.481018)" d="M0 0H.78V-.24" fill="#007b4e" fill-rule="evenodd"/>
<path transform="matrix(1,0,0,-1,6.925003,11.481018)" d="M0 0 .84-.24H0" fill="#007b4e" fill-rule="evenodd"/>
<path transform="matrix(1,0,0,-1,6.925003,11.481018)" d="M0 0H.84V-.24" fill="#007b4e" fill-rule="evenodd"/>
<path transform="matrix(1,0,0,-1,9.324997,11.721008)" d="M0 0 .78-.24H-.12" fill="#007b4e" fill-rule="evenodd"/>
<path transform="matrix(1,0,0,-1,9.324997,11.721008)" d="M0 0H.84L.78-.24" fill="#007b4e" fill-rule="evenodd"/>
<path transform="matrix(1,0,0,-1,6.925003,11.721008)" d="M0 0 .96-.24H.06" fill="#007b4e" fill-rule="evenodd"/>
<path transform="matrix(1,0,0,-1,6.925003,11.721008)" d="M0 0H.84L.96-.24" fill="#007b4e" fill-rule="evenodd"/>
<path transform="matrix(1,0,0,-1,9.205002,11.960999)" d="M0 0 .9-.06H-.06" fill="#007b4e" fill-rule="evenodd"/>
<path transform="matrix(1,0,0,-1,9.205002,11.960999)" d="M0 0H.9V-.06" fill="#007b4e" fill-rule="evenodd"/>
<path transform="matrix(1,0,0,-1,6.9850008,11.960999)" d="M0 0 .96-.06H0" fill="#007b4e" fill-rule="evenodd"/>
<path transform="matrix(1,0,0,-1,6.9850008,11.960999)" d="M0 0H.9L.96-.06" fill="#007b4e" fill-rule="evenodd"/>
<path transform="matrix(1,0,0,-1,9.145004,12.020996)" d="M0 0 .9-.12H-.18" fill="#007b4e" fill-rule="evenodd"/>
<path transform="matrix(1,0,0,-1,9.145004,12.020996)" d="M0 0H.96L.9-.12" fill="#007b4e" fill-rule="evenodd"/>
<path transform="matrix(1,0,0,-1,6.9850008,12.020996)" d="M0 0 1.2-.12H.06" fill="#007b4e" fill-rule="evenodd"/>
<path transform="matrix(1,0,0,-1,6.9850008,12.020996)" d="M0 0H.96L1.2-.12" fill="#007b4e" fill-rule="evenodd"/>
<path transform="matrix(1,0,0,-1,8.964996,12.140991)" d="M0 0 1.02-.06H-.42" fill="#007b4e" fill-rule="evenodd"/>
<path transform="matrix(1,0,0,-1,8.964996,12.140991)" d="M0 0H1.08L1.02-.06" fill="#007b4e" fill-rule="evenodd"/>
<path transform="matrix(1,0,0,-1,7.044998,12.140991)" d="M0 0 1.5-.06H.06" fill="#007b4e" fill-rule="evenodd"/>
<path transform="matrix(1,0,0,-1,7.044998,12.140991)" d="M0 0H1.14L1.5-.06" fill="#007b4e" fill-rule="evenodd"/>
<path transform="matrix(1,0,0,-1,7.1049959,12.200989)" d="M0 0 2.76-.18H.12" fill="#007b4e" fill-rule="evenodd"/>
<path transform="matrix(1,0,0,-1,7.1049959,12.200989)" d="M0 0H2.88L2.76-.18" fill="#007b4e" fill-rule="evenodd"/>
<path transform="matrix(1,0,0,-1,7.225006,12.380981)" d="M0 0 2.28-.3H.36" fill="#007b4e" fill-rule="evenodd"/>
<path transform="matrix(1,0,0,-1,7.225006,12.380981)" d="M0 0H2.64L2.28-.3" fill="#007b4e" fill-rule="evenodd"/>
<path transform="matrix(1,0,0,-1,8.005005,12.861023)" d="M0 0H1.02L.54-.06" fill="#007b4e" fill-rule="evenodd"/>
<path transform="matrix(1,0,0,-1,7.5850069,12.68103)" d="M0 0 1.44-.18H.42" fill="#007b4e" fill-rule="evenodd"/>
<path transform="matrix(1,0,0,-1,7.5850069,12.68103)" d="M0 0H1.92L1.44-.18" fill="#007b4e" fill-rule="evenodd"/>
<path transform="matrix(1,0,0,-1,11.664993,9.440979)" d="M0 0 .84-3.48H0" fill="#007b4e" fill-rule="evenodd"/>
<path transform="matrix(1,0,0,-1,11.664993,9.440979)" d="M0 0H.84V-3.48" fill="#007b4e" fill-rule="evenodd"/>
<path transform="matrix(1,0,0,-1,7.7649996,9.9210209)" stroke-width=".72" stroke-linecap="round" stroke-linejoin="round" fill="none" stroke="#007b4e" d="M0 0V1.2H-.84V-.18C-.748-1.488-1.259-2.405 .24-2.94L.78-3 1.26-2.94C2.821-2.485 2.312-1.458 2.4-.18V1.2H1.62V-1.56L1.56-1.8 1.44-2.04 1.2-2.22 .78-2.28C-.042-2.2-.025-1.906 0-1.26V0Z"/>
<path transform="matrix(1,0,0,-1,10.824999,9.441021)" stroke-width=".72" stroke-linecap="round" stroke-linejoin="round" fill="none" stroke="#007b4e" d="M0 0V.72H2.46"/>
<path transform="matrix(1,0,0,-1,10.824999,9.441021)" stroke-width=".72" stroke-linecap="round" stroke-linejoin="round" fill="none" stroke="#007b4e" d="M0 0H.84"/>
<path transform="matrix(1,0,0,-1,12.504999,9.441021)" stroke-width=".72" stroke-linecap="round" stroke-linejoin="round" fill="none" stroke="#007b4e" d="M0 0H.78V.72"/>
<path transform="matrix(1,0,0,-1,12.504999,9.441021)" stroke-width=".72" stroke-linecap="round" stroke-linejoin="round" fill="none" stroke="#007b4e" d="M0 0V-3.48"/>
<path transform="matrix(1,0,0,-1,11.664999,9.441021)" stroke-width=".72" stroke-linecap="round" stroke-linejoin="round" fill="none" stroke="#007b4e" d="M0 0V-3.48H.84"/>
<path transform="matrix(1,0,0,-1,-174.875,825.5)" stroke-width="1.14" stroke-linecap="round" stroke-linejoin="round" fill="none" stroke="#007b4e" d="M179.94 817.739H189.66V811.559H179.94Z"/>
</g>
</g>
</svg>
