<svg xmlns="http://www.w3.org/2000/svg" xmlns:xlink="http://www.w3.org/1999/xlink" xmlns:inkscape="http://www.inkscape.org/namespaces/inkscape" version="1.1" width="22.75" height="16" viewBox="0 0 22.75 16">
<defs>
<clipPath id="clip_1">
<path transform="matrix(1,0,0,-1,-195.125,791.75)" d="M197.125 777.75H215.875V789.75H197.125Z"/>
</clipPath>
<clipPath id="clip_2">
<path transform="matrix(1,0,0,-1,-195.125,791.75)" d="M197.125 789.75V777.75H215.875V789.75Z" clip-rule="evenodd"/>
</clipPath>
</defs>
<g clip-path="url(#clip_1)">
<g clip-path="url(#clip_2)">
<path transform="matrix(1,0,0,-1,3.9550019,4.9110109)" d="M0 0 14.4-6.84H0" fill="#ffffff" fill-rule="evenodd"/>
<path transform="matrix(1,0,0,-1,3.9550019,4.9110109)" d="M0 0H14.4V-6.84" fill="#ffffff" fill-rule="evenodd"/>
<path transform="matrix(1,0,0,-1,6.4149935,5.2109987)" d="M0 0H.18-.12" fill="#007b4e" fill-rule="evenodd"/>
<path transform="matrix(1,0,0,-1,6.4149935,5.2109987)" d="M0 0H.18" fill="#007b4e" fill-rule="evenodd"/>
<path transform="matrix(1,0,0,-1,6.294998,5.2109987)" d="M0 0 .42-.06H-.12" fill="#007b4e" fill-rule="evenodd"/>
<path transform="matrix(1,0,0,-1,6.294998,5.2109987)" d="M0 0H.3L.42-.06" fill="#007b4e" fill-rule="evenodd"/>
<path transform="matrix(1,0,0,-1,6.175003,5.270996)" d="M0 0 .66-.06H-.12" fill="#007b4e" fill-rule="evenodd"/>
<path transform="matrix(1,0,0,-1,6.175003,5.270996)" d="M0 0H.54L.66-.06" fill="#007b4e" fill-rule="evenodd"/>
<path transform="matrix(1,0,0,-1,6.0549929,5.3309938)" d="M0 0 .84-.06H-.06" fill="#007b4e" fill-rule="evenodd"/>
<path transform="matrix(1,0,0,-1,6.0549929,5.3309938)" d="M0 0H.78L.84-.06" fill="#007b4e" fill-rule="evenodd"/>
<path transform="matrix(1,0,0,-1,5.994995,5.390991)" d="M0 0 .96-.06H-.06" fill="#007b4e" fill-rule="evenodd"/>
<path transform="matrix(1,0,0,-1,5.994995,5.390991)" d="M0 0H.9L.96-.06" fill="#007b4e" fill-rule="evenodd"/>
<path transform="matrix(1,0,0,-1,5.9349977,5.450989)" d="M0 0 1.08-.12H-.06" fill="#007b4e" fill-rule="evenodd"/>
<path transform="matrix(1,0,0,-1,5.9349977,5.450989)" d="M0 0H1.02L1.08-.12" fill="#007b4e" fill-rule="evenodd"/>
<path transform="matrix(1,0,0,-1,5.875,5.570984)" d="M0 0 1.2-.12H-.06" fill="#007b4e" fill-rule="evenodd"/>
<path transform="matrix(1,0,0,-1,5.875,5.570984)" d="M0 0H1.14L1.2-.12" fill="#007b4e" fill-rule="evenodd"/>
<path transform="matrix(1,0,0,-1,5.8150026,5.690979)" d="M0 0 1.26-.12H0" fill="#007b4e" fill-rule="evenodd"/>
<path transform="matrix(1,0,0,-1,5.8150026,5.690979)" d="M0 0H1.26V-.12" fill="#007b4e" fill-rule="evenodd"/>
<path transform="matrix(1,0,0,-1,5.8150026,5.810974)" d="M0 0 1.26-.12H0" fill="#007b4e" fill-rule="evenodd"/>
<path transform="matrix(1,0,0,-1,5.8150026,5.810974)" d="M0 0H1.26V-.12" fill="#007b4e" fill-rule="evenodd"/>
<path transform="matrix(1,0,0,-1,5.8150026,5.9310305)" d="M0 0H1.26" fill="#007b4e" fill-rule="evenodd"/>
<path transform="matrix(1,0,0,-1,5.8150026,5.9310305)" d="M0 0H1.26" fill="#007b4e" fill-rule="evenodd"/>
<path transform="matrix(1,0,0,-1,5.8150026,5.9310305)" d="M0 0 1.2-.12H.06" fill="#007b4e" fill-rule="evenodd"/>
<path transform="matrix(1,0,0,-1,5.8150026,5.9310305)" d="M0 0H1.26L1.2-.12" fill="#007b4e" fill-rule="evenodd"/>
<path transform="matrix(1,0,0,-1,5.875,6.0510256)" d="M0 0H1.14" fill="#007b4e" fill-rule="evenodd"/>
<path transform="matrix(1,0,0,-1,5.875,6.0510256)" d="M0 0H1.14" fill="#007b4e" fill-rule="evenodd"/>
<path transform="matrix(1,0,0,-1,5.875,6.0510256)" d="M0 0 1.08-.06H.06" fill="#007b4e" fill-rule="evenodd"/>
<path transform="matrix(1,0,0,-1,5.875,6.0510256)" d="M0 0H1.14L1.08-.06" fill="#007b4e" fill-rule="evenodd"/>
<path transform="matrix(1,0,0,-1,5.9349977,6.111023)" d="M0 0H1.02" fill="#007b4e" fill-rule="evenodd"/>
<path transform="matrix(1,0,0,-1,5.9349977,6.111023)" d="M0 0H1.02" fill="#007b4e" fill-rule="evenodd"/>
<path transform="matrix(1,0,0,-1,5.9349977,6.111023)" d="M0 0 .96-.12H.06" fill="#007b4e" fill-rule="evenodd"/>
<path transform="matrix(1,0,0,-1,5.9349977,6.111023)" d="M0 0H1.02L.96-.12" fill="#007b4e" fill-rule="evenodd"/>
<path transform="matrix(1,0,0,-1,5.994995,6.231018)" d="M0 0H.9" fill="#007b4e" fill-rule="evenodd"/>
<path transform="matrix(1,0,0,-1,5.994995,6.231018)" d="M0 0H.9" fill="#007b4e" fill-rule="evenodd"/>
<path transform="matrix(1,0,0,-1,5.994995,6.231018)" d="M0 0 .84-.06H.06" fill="#007b4e" fill-rule="evenodd"/>
<path transform="matrix(1,0,0,-1,5.994995,6.231018)" d="M0 0H.9L.84-.06" fill="#007b4e" fill-rule="evenodd"/>
<path transform="matrix(1,0,0,-1,6.0549929,6.2910158)" d="M0 0H.72 .06" fill="#007b4e" fill-rule="evenodd"/>
<path transform="matrix(1,0,0,-1,6.0549929,6.2910158)" d="M0 0H.78 .72" fill="#007b4e" fill-rule="evenodd"/>
<path transform="matrix(1,0,0,-1,6.1150057,6.2910158)" d="M0 0 .6-.06H.06" fill="#007b4e" fill-rule="evenodd"/>
<path transform="matrix(1,0,0,-1,6.1150057,6.2910158)" d="M0 0H.66L.6-.06" fill="#007b4e" fill-rule="evenodd"/>
<path transform="matrix(1,0,0,-1,6.175003,6.351013)" d="M0 0H.54" fill="#007b4e" fill-rule="evenodd"/>
<path transform="matrix(1,0,0,-1,6.175003,6.351013)" d="M0 0H.54" fill="#007b4e" fill-rule="evenodd"/>
<path transform="matrix(1,0,0,-1,6.175003,6.351013)" d="M0 0 .42-.06H.12" fill="#007b4e" fill-rule="evenodd"/>
<path transform="matrix(1,0,0,-1,6.175003,6.351013)" d="M0 0H.54L.42-.06" fill="#007b4e" fill-rule="evenodd"/>
<path transform="matrix(1,0,0,-1,6.595001,6.4110109)" d="M0 0H.06" fill="#007b4e" fill-rule="evenodd"/>
<path transform="matrix(1,0,0,-1,6.294998,6.4110109)" d="M0 0H.24" fill="#007b4e" fill-rule="evenodd"/>
<path transform="matrix(1,0,0,-1,6.294998,6.4110109)" d="M0 0H.3 .24" fill="#007b4e" fill-rule="evenodd"/>
<path transform="matrix(1,0,0,-1,6.4149935,6.4110109)" d="M0 0H.06" fill="#007b4e" fill-rule="evenodd"/>
<path transform="matrix(1,0,0,-1,6.595001,6.4110109)" d="M0 0H.06-.06" fill="#007b4e" fill-rule="evenodd"/>
<path transform="matrix(1,0,0,-1,6.595001,6.4110109)" d="M0 0H.06" fill="#007b4e" fill-rule="evenodd"/>
<path transform="matrix(1,0,0,-1,6.294998,6.4110109)" d="M0 0H.18 .12" fill="#007b4e" fill-rule="evenodd"/>
<path transform="matrix(1,0,0,-1,6.294998,6.4110109)" d="M0 0H.24 .18" fill="#007b4e" fill-rule="evenodd"/>
<path transform="matrix(1,0,0,-1,6.5350039,6.4110109)" d="M0 0H.18-.12" fill="#007b4e" fill-rule="evenodd"/>
<path transform="matrix(1,0,0,-1,6.5350039,6.4110109)" d="M0 0H.18" fill="#007b4e" fill-rule="evenodd"/>
<path transform="matrix(1,0,0,-1,6.4149935,6.4110109)" d="M0 0H.3-.12" fill="#007b4e" fill-rule="evenodd"/>
<path transform="matrix(1,0,0,-1,6.4149935,6.4110109)" d="M0 0H.3" fill="#007b4e" fill-rule="evenodd"/>
<path transform="matrix(1,0,0,-1,6.294998,6.4110109)" d="M0 0 .6-.06H0" fill="#007b4e" fill-rule="evenodd"/>
<path transform="matrix(1,0,0,-1,6.294998,6.4110109)" d="M0 0H.42L.6-.06" fill="#007b4e" fill-rule="evenodd"/>
<path transform="matrix(1,0,0,-1,6.294998,6.4710085)" d="M0 0 .78-.12H-.24" fill="#007b4e" fill-rule="evenodd"/>
<path transform="matrix(1,0,0,-1,6.294998,6.4710085)" d="M0 0H.6L.78-.12" fill="#007b4e" fill-rule="evenodd"/>
<path transform="matrix(1,0,0,-1,6.0549929,6.5910036)" d="M0 0 1.14-.42H-.12" fill="#007b4e" fill-rule="evenodd"/>
<path transform="matrix(1,0,0,-1,6.0549929,6.5910036)" d="M0 0H1.02L1.14-.42" fill="#007b4e" fill-rule="evenodd"/>
<path transform="matrix(1,0,0,-1,8.214996,7.3709719)" d="M0 0 .06-.06H-.9" fill="#007b4e" fill-rule="evenodd"/>
<path transform="matrix(1,0,0,-1,5.9349977,7.0109865)" d="M0 0 1.38-.42H.18" fill="#007b4e" fill-rule="evenodd"/>
<path transform="matrix(1,0,0,-1,5.9349977,7.0109865)" d="M0 0H1.26L1.38-.42" fill="#007b4e" fill-rule="evenodd"/>
<path transform="matrix(1,0,0,-1,6.1150057,7.4310305)" d="M0 0 2.22-.06H.06" fill="#007b4e" fill-rule="evenodd"/>
<path transform="matrix(1,0,0,-1,6.1150057,7.4310305)" d="M0 0H2.16L2.22-.06" fill="#007b4e" fill-rule="evenodd"/>
<path transform="matrix(1,0,0,-1,6.2350008,7.6710207)" d="M0 0V0" fill="#007b4e" fill-rule="evenodd"/>
<path transform="matrix(1,0,0,-1,6.175003,7.491028)" d="M0 0 2.16-.18H.06" fill="#007b4e" fill-rule="evenodd"/>
<path transform="matrix(1,0,0,-1,6.175003,7.491028)" d="M0 0H2.16V-.18" fill="#007b4e" fill-rule="evenodd"/>
<path transform="matrix(1,0,0,-1,6.2350008,7.6710207)" d="M0 0H2.1" fill="#007b4e" fill-rule="evenodd"/>
<path transform="matrix(1,0,0,-1,6.2350008,7.6710207)" d="M0 0H2.1" fill="#007b4e" fill-rule="evenodd"/>
<path transform="matrix(1,0,0,-1,6.2350008,7.6710207)" d="M0 0 1.98-.12H.06" fill="#007b4e" fill-rule="evenodd"/>
<path transform="matrix(1,0,0,-1,6.2350008,7.6710207)" d="M0 0H2.1L1.98-.12" fill="#007b4e" fill-rule="evenodd"/>
<path transform="matrix(1,0,0,-1,6.2350008,7.6710207)" d="M0 0 .06-.18H-.3" fill="#007b4e" fill-rule="evenodd"/>
<path transform="matrix(1,0,0,-1,6.2350008,7.6710207)" d="M0 0 .06-.18" fill="#007b4e" fill-rule="evenodd"/>
<path transform="matrix(1,0,0,-1,6.294998,7.7910158)" d="M0 0 1.2-.06H0" fill="#007b4e" fill-rule="evenodd"/>
<path transform="matrix(1,0,0,-1,6.294998,7.7910158)" d="M0 0H1.92L1.2-.06" fill="#007b4e" fill-rule="evenodd"/>
<path transform="matrix(1,0,0,-1,8.934998,7.9710085)" d="M0 0 .3-.06H-.42" fill="#007b4e" fill-rule="evenodd"/>
<path transform="matrix(1,0,0,-1,6.294998,7.851013)" d="M0 0 1.26-.18H.06" fill="#007b4e" fill-rule="evenodd"/>
<path transform="matrix(1,0,0,-1,6.294998,7.851013)" d="M0 0H1.2L1.26-.18" fill="#007b4e" fill-rule="evenodd"/>
<path transform="matrix(1,0,0,-1,5.9349977,7.851013)" d="M0 0 .42-.18H-.3" fill="#007b4e" fill-rule="evenodd"/>
<path transform="matrix(1,0,0,-1,5.9349977,7.851013)" d="M0 0H.36L.42-.18" fill="#007b4e" fill-rule="evenodd"/>
<path transform="matrix(1,0,0,-1,6.3549959,8.031006)" d="M0 0 1.26-.06H.06" fill="#007b4e" fill-rule="evenodd"/>
<path transform="matrix(1,0,0,-1,6.3549959,8.031006)" d="M0 0H1.2L1.26-.06" fill="#007b4e" fill-rule="evenodd"/>
<path transform="matrix(1,0,0,-1,5.6349947,8.031006)" d="M0 0 .78-.06H-.06" fill="#007b4e" fill-rule="evenodd"/>
<path transform="matrix(1,0,0,-1,5.6349947,8.031006)" d="M0 0H.72L.78-.06" fill="#007b4e" fill-rule="evenodd"/>
<path transform="matrix(1,0,0,-1,8.514999,8.031006)" d="M0 0 .84-.12H-.9" fill="#007b4e" fill-rule="evenodd"/>
<path transform="matrix(1,0,0,-1,8.514999,8.031006)" d="M0 0H.72L.84-.12" fill="#007b4e" fill-rule="evenodd"/>
<path transform="matrix(1,0,0,-1,6.4149935,8.091003)" d="M0 0 1.2-.06H0" fill="#007b4e" fill-rule="evenodd"/>
<path transform="matrix(1,0,0,-1,6.4149935,8.091003)" d="M0 0H1.2V-.06" fill="#007b4e" fill-rule="evenodd"/>
<path transform="matrix(1,0,0,-1,6.4149935,8.151001)" d="M0 0H3" fill="#007b4e" fill-rule="evenodd"/>
<path transform="matrix(1,0,0,-1,6.4149935,8.151001)" d="M0 0H3" fill="#007b4e" fill-rule="evenodd"/>
<path transform="matrix(1,0,0,-1,5.574997,8.091003)" d="M0 0 .6-.12H-.12" fill="#007b4e" fill-rule="evenodd"/>
<path transform="matrix(1,0,0,-1,5.574997,8.091003)" d="M0 0H.84L.6-.12" fill="#007b4e" fill-rule="evenodd"/>
<path transform="matrix(1,0,0,-1,5.455002,8.210999)" d="M0 0 .6-.12H-.06" fill="#007b4e" fill-rule="evenodd"/>
<path transform="matrix(1,0,0,-1,5.455002,8.210999)" d="M0 0H.72L.6-.12" fill="#007b4e" fill-rule="evenodd"/>
<path transform="matrix(1,0,0,-1,5.3950045,8.330994)" d="M0 0 .54-.06H-.06" fill="#007b4e" fill-rule="evenodd"/>
<path transform="matrix(1,0,0,-1,5.3950045,8.330994)" d="M0 0H.66L.54-.06" fill="#007b4e" fill-rule="evenodd"/>
<path transform="matrix(1,0,0,-1,5.3350069,8.390991)" d="M0 0 .48-.18H-.06" fill="#007b4e" fill-rule="evenodd"/>
<path transform="matrix(1,0,0,-1,5.3350069,8.390991)" d="M0 0H.6L.48-.18" fill="#007b4e" fill-rule="evenodd"/>
<path transform="matrix(1,0,0,-1,5.274994,8.570984)" d="M0 0 .48-.06H-.06" fill="#007b4e" fill-rule="evenodd"/>
<path transform="matrix(1,0,0,-1,5.274994,8.570984)" d="M0 0H.54L.48-.06" fill="#007b4e" fill-rule="evenodd"/>
<path transform="matrix(1,0,0,-1,5.2149965,8.630981)" d="M0 0 .42-.18H-.06" fill="#007b4e" fill-rule="evenodd"/>
<path transform="matrix(1,0,0,-1,5.2149965,8.630981)" d="M0 0H.54L.42-.18" fill="#007b4e" fill-rule="evenodd"/>
<path transform="matrix(1,0,0,-1,6.4149935,8.151001)" d="M0 0 3.24-.66H.3" fill="#007b4e" fill-rule="evenodd"/>
<path transform="matrix(1,0,0,-1,6.4149935,8.151001)" d="M0 0H3L3.24-.66" fill="#007b4e" fill-rule="evenodd"/>
<path transform="matrix(1,0,0,-1,8.695007,8.810974)" d="M0 0 .06-.06H-.48" fill="#007b4e" fill-rule="evenodd"/>
<path transform="matrix(1,0,0,-1,8.755005,8.810974)" d="M0 0H.9" fill="#007b4e" fill-rule="evenodd"/>
<path transform="matrix(1,0,0,-1,8.755005,8.810974)" d="M0 0H.9" fill="#007b4e" fill-rule="evenodd"/>
<path transform="matrix(1,0,0,-1,6.7149965,8.810974)" d="M0 0H1.98" fill="#007b4e" fill-rule="evenodd"/>
<path transform="matrix(1,0,0,-1,6.7149965,8.810974)" d="M0 0H2.04 1.98" fill="#007b4e" fill-rule="evenodd"/>
<path transform="matrix(1,0,0,-1,6.7149965,8.810974)" d="M0 0 1.5-.06H0" fill="#007b4e" fill-rule="evenodd"/>
<path transform="matrix(1,0,0,-1,6.7149965,8.810974)" d="M0 0H1.98L1.5-.06" fill="#007b4e" fill-rule="evenodd"/>
<path transform="matrix(1,0,0,-1,6.774994,8.991028)" d="M0 0H.36" fill="#007b4e" fill-rule="evenodd"/>
<path transform="matrix(1,0,0,-1,6.7149965,8.870972)" d="M0 0 .42-.12H.06" fill="#007b4e" fill-rule="evenodd"/>
<path transform="matrix(1,0,0,-1,6.7149965,8.870972)" d="M0 0H1.5L.42-.12" fill="#007b4e" fill-rule="evenodd"/>
<path transform="matrix(1,0,0,-1,5.154999,8.810974)" d="M0 0 .48-.18H-.06" fill="#007b4e" fill-rule="evenodd"/>
<path transform="matrix(1,0,0,-1,5.154999,8.810974)" d="M0 0H.48V-.18" fill="#007b4e" fill-rule="evenodd"/>
<path transform="matrix(1,0,0,-1,5.095001,8.991028)" d="M0 0 .48-.12H0" fill="#007b4e" fill-rule="evenodd"/>
<path transform="matrix(1,0,0,-1,5.095001,8.991028)" d="M0 0H.54L.48-.12" fill="#007b4e" fill-rule="evenodd"/>
<path transform="matrix(1,0,0,-1,8.214996,8.870972)" d="M0 0 .6-.3H.06" fill="#007b4e" fill-rule="evenodd"/>
<path transform="matrix(1,0,0,-1,8.214996,8.870972)" d="M0 0H.54L.6-.3" fill="#007b4e" fill-rule="evenodd"/>
<path transform="matrix(1,0,0,-1,8.274994,9.1710209)" d="M0 0H.54" fill="#007b4e" fill-rule="evenodd"/>
<path transform="matrix(1,0,0,-1,8.274994,9.1710209)" d="M0 0H.54" fill="#007b4e" fill-rule="evenodd"/>
<path transform="matrix(1,0,0,-1,5.095001,9.111023)" d="M0 0 .48-.24H0" fill="#007b4e" fill-rule="evenodd"/>
<path transform="matrix(1,0,0,-1,5.095001,9.111023)" d="M0 0H.48V-.24" fill="#007b4e" fill-rule="evenodd"/>
<path transform="matrix(1,0,0,-1,5.095001,9.351013)" d="M0 0H.48" fill="#007b4e" fill-rule="evenodd"/>
<path transform="matrix(1,0,0,-1,5.095001,9.351013)" d="M0 0H.48" fill="#007b4e" fill-rule="evenodd"/>
<path transform="matrix(1,0,0,-1,8.274994,9.1710209)" d="M0 0 .54-.24H0" fill="#007b4e" fill-rule="evenodd"/>
<path transform="matrix(1,0,0,-1,8.274994,9.1710209)" d="M0 0H.54V-.24" fill="#007b4e" fill-rule="evenodd"/>
<path transform="matrix(1,0,0,-1,8.274994,9.411011)" d="M0 0 .54-.12H0" fill="#007b4e" fill-rule="evenodd"/>
<path transform="matrix(1,0,0,-1,8.274994,9.411011)" d="M0 0H.54V-.12" fill="#007b4e" fill-rule="evenodd"/>
<path transform="matrix(1,0,0,-1,5.095001,9.351013)" d="M0 0 .48-.24H0" fill="#007b4e" fill-rule="evenodd"/>
<path transform="matrix(1,0,0,-1,5.095001,9.351013)" d="M0 0H.48V-.24" fill="#007b4e" fill-rule="evenodd"/>
<path transform="matrix(1,0,0,-1,8.274994,9.531006)" d="M0 0 .48-.12H0" fill="#007b4e" fill-rule="evenodd"/>
<path transform="matrix(1,0,0,-1,8.274994,9.531006)" d="M0 0H.54L.48-.12" fill="#007b4e" fill-rule="evenodd"/>
<path transform="matrix(1,0,0,-1,5.095001,9.591003)" d="M0 0 .48-.12H0" fill="#007b4e" fill-rule="evenodd"/>
<path transform="matrix(1,0,0,-1,5.095001,9.591003)" d="M0 0H.48V-.12" fill="#007b4e" fill-rule="evenodd"/>
<path transform="matrix(1,0,0,-1,5.095001,9.710999)" d="M0 0 .54-.18H.06" fill="#007b4e" fill-rule="evenodd"/>
<path transform="matrix(1,0,0,-1,5.095001,9.710999)" d="M0 0H.48L.54-.18" fill="#007b4e" fill-rule="evenodd"/>
<path transform="matrix(1,0,0,-1,8.274994,9.651001)" d="M0 0 .48-.24H-.12" fill="#007b4e" fill-rule="evenodd"/>
<path transform="matrix(1,0,0,-1,8.274994,9.651001)" d="M0 0H.48V-.24" fill="#007b4e" fill-rule="evenodd"/>
<path transform="matrix(1,0,0,-1,8.154999,9.890991)" d="M0 0 .54-.06H0" fill="#007b4e" fill-rule="evenodd"/>
<path transform="matrix(1,0,0,-1,8.154999,9.890991)" d="M0 0H.6L.54-.06" fill="#007b4e" fill-rule="evenodd"/>
<path transform="matrix(1,0,0,-1,5.154999,9.890991)" d="M0 0 .6-.12H.06" fill="#007b4e" fill-rule="evenodd"/>
<path transform="matrix(1,0,0,-1,5.154999,9.890991)" d="M0 0H.48L.6-.12" fill="#007b4e" fill-rule="evenodd"/>
<path transform="matrix(1,0,0,-1,5.2149965,10.010986)" d="M0 0 .54-.12H0" fill="#007b4e" fill-rule="evenodd"/>
<path transform="matrix(1,0,0,-1,5.2149965,10.010986)" d="M0 0H.54V-.12" fill="#007b4e" fill-rule="evenodd"/>
<path transform="matrix(1,0,0,-1,8.154999,9.950989)" d="M0 0 .48-.18H-.12" fill="#007b4e" fill-rule="evenodd"/>
<path transform="matrix(1,0,0,-1,8.154999,9.950989)" d="M0 0H.54L.48-.18" fill="#007b4e" fill-rule="evenodd"/>
<path transform="matrix(1,0,0,-1,8.755005,8.810974)" d="M0 0 1.38-1.44H.48" fill="#007b4e" fill-rule="evenodd"/>
<path transform="matrix(1,0,0,-1,8.755005,8.810974)" d="M0 0H.9L1.38-1.44" fill="#007b4e" fill-rule="evenodd"/>
<path transform="matrix(1,0,0,-1,8.035004,10.130981)" d="M0 0 .54-.12H-.06" fill="#007b4e" fill-rule="evenodd"/>
<path transform="matrix(1,0,0,-1,8.035004,10.130981)" d="M0 0H.6L.54-.12" fill="#007b4e" fill-rule="evenodd"/>
<path transform="matrix(1,0,0,-1,5.2149965,10.130981)" d="M0 0 .72-.18H.12" fill="#007b4e" fill-rule="evenodd"/>
<path transform="matrix(1,0,0,-1,5.2149965,10.130981)" d="M0 0H.54L.72-.18" fill="#007b4e" fill-rule="evenodd"/>
<path transform="matrix(1,0,0,-1,7.975006,10.250977)" d="M0 0 .54-.12H-.12" fill="#007b4e" fill-rule="evenodd"/>
<path transform="matrix(1,0,0,-1,7.975006,10.250977)" d="M0 0H.6L.54-.12" fill="#007b4e" fill-rule="evenodd"/>
<path transform="matrix(1,0,0,-1,9.294998,10.370972)" d="M0 0H.42L.06-.12" fill="#007b4e" fill-rule="evenodd"/>
<path transform="matrix(1,0,0,-1,9.235001,10.250977)" d="M0 0 .48-.12H.06" fill="#007b4e" fill-rule="evenodd"/>
<path transform="matrix(1,0,0,-1,9.235001,10.250977)" d="M0 0H.9L.48-.12" fill="#007b4e" fill-rule="evenodd"/>
<path transform="matrix(1,0,0,-1,5.3350069,10.310974)" d="M0 0 .66-.06H0" fill="#007b4e" fill-rule="evenodd"/>
<path transform="matrix(1,0,0,-1,5.3350069,10.310974)" d="M0 0H.6L.66-.06" fill="#007b4e" fill-rule="evenodd"/>
<path transform="matrix(1,0,0,-1,5.3350069,10.370972)" d="M0 0 .78-.12H.12" fill="#007b4e" fill-rule="evenodd"/>
<path transform="matrix(1,0,0,-1,5.3350069,10.370972)" d="M0 0H.66L.78-.12" fill="#007b4e" fill-rule="evenodd"/>
<path transform="matrix(1,0,0,-1,7.8549959,10.370972)" d="M0 0 .54-.18H-.18" fill="#007b4e" fill-rule="evenodd"/>
<path transform="matrix(1,0,0,-1,7.8549959,10.370972)" d="M0 0H.66L.54-.18" fill="#007b4e" fill-rule="evenodd"/>
<path transform="matrix(1,0,0,-1,7.675003,10.551025)" d="M0 0H.72-.06" fill="#007b4e" fill-rule="evenodd"/>
<path transform="matrix(1,0,0,-1,7.675003,10.551025)" d="M0 0H.72" fill="#007b4e" fill-rule="evenodd"/>
<path transform="matrix(1,0,0,-1,5.455002,10.491028)" d="M0 0 .9-.12H.06" fill="#007b4e" fill-rule="evenodd"/>
<path transform="matrix(1,0,0,-1,5.455002,10.491028)" d="M0 0H.66L.9-.12" fill="#007b4e" fill-rule="evenodd"/>
<path transform="matrix(1,0,0,-1,7.6150057,10.551025)" d="M0 0 .72-.06H-.18" fill="#007b4e" fill-rule="evenodd"/>
<path transform="matrix(1,0,0,-1,7.6150057,10.551025)" d="M0 0H.78L.72-.06" fill="#007b4e" fill-rule="evenodd"/>
<path transform="matrix(1,0,0,-1,5.5149996,10.611023)" d="M0 0 .96-.06H.06" fill="#007b4e" fill-rule="evenodd"/>
<path transform="matrix(1,0,0,-1,5.5149996,10.611023)" d="M0 0H.84L.96-.06" fill="#007b4e" fill-rule="evenodd"/>
<path transform="matrix(1,0,0,-1,5.574997,10.6710209)" d="M0 0H1.02 .06" fill="#007b4e" fill-rule="evenodd"/>
<path transform="matrix(1,0,0,-1,5.574997,10.6710209)" d="M0 0H1.02" fill="#007b4e" fill-rule="evenodd"/>
<path transform="matrix(1,0,0,-1,7.4349977,10.611023)" d="M0 0 .78-.12H-.3" fill="#007b4e" fill-rule="evenodd"/>
<path transform="matrix(1,0,0,-1,7.4349977,10.611023)" d="M0 0H.9L.78-.12" fill="#007b4e" fill-rule="evenodd"/>
<path transform="matrix(1,0,0,-1,7.1349947,10.731018)" d="M0 0H1.08-.24" fill="#007b4e" fill-rule="evenodd"/>
<path transform="matrix(1,0,0,-1,7.1349947,10.731018)" d="M0 0H1.08" fill="#007b4e" fill-rule="evenodd"/>
<path transform="matrix(1,0,0,-1,5.6349947,10.6710209)" d="M0 0 1.26-.06H0" fill="#007b4e" fill-rule="evenodd"/>
<path transform="matrix(1,0,0,-1,5.6349947,10.6710209)" d="M0 0H.96L1.26-.06" fill="#007b4e" fill-rule="evenodd"/>
<path transform="matrix(1,0,0,-1,5.6349947,10.731018)" d="M0 0 2.52-.06H.12" fill="#007b4e" fill-rule="evenodd"/>
<path transform="matrix(1,0,0,-1,5.6349947,10.731018)" d="M0 0H2.58L2.52-.06" fill="#007b4e" fill-rule="evenodd"/>
<path transform="matrix(1,0,0,-1,5.755005,10.791016)" d="M0 0 2.28-.12H.06" fill="#007b4e" fill-rule="evenodd"/>
<path transform="matrix(1,0,0,-1,5.755005,10.791016)" d="M0 0H2.4L2.28-.12" fill="#007b4e" fill-rule="evenodd"/>
<path transform="matrix(1,0,0,-1,5.8150026,10.911011)" d="M0 0 2.04-.12H.24" fill="#007b4e" fill-rule="evenodd"/>
<path transform="matrix(1,0,0,-1,5.8150026,10.911011)" d="M0 0H2.22L2.04-.12" fill="#007b4e" fill-rule="evenodd"/>
<path transform="matrix(1,0,0,-1,6.0549929,11.031006)" d="M0 0 1.68-.06H.06" fill="#007b4e" fill-rule="evenodd"/>
<path transform="matrix(1,0,0,-1,6.0549929,11.031006)" d="M0 0H1.8L1.68-.06" fill="#007b4e" fill-rule="evenodd"/>
<path transform="matrix(1,0,0,-1,6.1150057,11.091003)" d="M0 0 1.44-.06H.24" fill="#007b4e" fill-rule="evenodd"/>
<path transform="matrix(1,0,0,-1,6.1150057,11.091003)" d="M0 0H1.62L1.44-.06" fill="#007b4e" fill-rule="evenodd"/>
<path transform="matrix(1,0,0,-1,6.3549959,11.151001)" d="M0 0 1.02-.06H.12" fill="#007b4e" fill-rule="evenodd"/>
<path transform="matrix(1,0,0,-1,6.3549959,11.151001)" d="M0 0H1.2L1.02-.06" fill="#007b4e" fill-rule="evenodd"/>
<path transform="matrix(1,0,0,-1,6.7149965,11.210999)" d="M0 0H.48L.12-.06" fill="#007b4e" fill-rule="evenodd"/>
<path transform="matrix(1,0,0,-1,6.475006,11.210999)" d="M0 0H.72 .24" fill="#007b4e" fill-rule="evenodd"/>
<path transform="matrix(1,0,0,-1,6.475006,11.210999)" d="M0 0H.9 .72" fill="#007b4e" fill-rule="evenodd"/>
<path transform="matrix(1,0,0,-1,-195.125,791.75)" stroke-width=".72" stroke-linecap="round" stroke-linejoin="round" fill="none" stroke="#007b4e" d="M199.08 786.839H213.48V779.99899H199.08Z"/>
<path transform="matrix(1,0,0,-1,13.6150059,6.4110109)" d="M0 0 .78-.54H0" fill="#007b4e" fill-rule="evenodd"/>
<path transform="matrix(1,0,0,-1,13.6150059,6.4110109)" d="M0 0H.78V-.54" fill="#007b4e" fill-rule="evenodd"/>
<path transform="matrix(1,0,0,-1,11.154999,6.4110109)" d="M0 0 .84-.6H0" fill="#007b4e" fill-rule="evenodd"/>
<path transform="matrix(1,0,0,-1,11.154999,6.4110109)" d="M0 0H.84V-.6" fill="#007b4e" fill-rule="evenodd"/>
<path transform="matrix(1,0,0,-1,13.6150059,6.950989)" d="M0 0 .78-.12H0" fill="#007b4e" fill-rule="evenodd"/>
<path transform="matrix(1,0,0,-1,13.6150059,6.950989)" d="M0 0H.78V-.12" fill="#007b4e" fill-rule="evenodd"/>
<path transform="matrix(1,0,0,-1,11.154999,7.0109865)" d="M0 0 .84-.06H0" fill="#007b4e" fill-rule="evenodd"/>
<path transform="matrix(1,0,0,-1,11.154999,7.0109865)" d="M0 0H.84V-.06" fill="#007b4e" fill-rule="evenodd"/>
<path transform="matrix(1,0,0,-1,15.054993,6.4110109)" d="M0 0 2.4-.66H0" fill="#007b4e" fill-rule="evenodd"/>
<path transform="matrix(1,0,0,-1,15.054993,6.4110109)" d="M0 0H2.4V-.66" fill="#007b4e" fill-rule="evenodd"/>
<path transform="matrix(1,0,0,-1,13.6150059,7.070984)" d="M0 0 .78-.54H0" fill="#007b4e" fill-rule="evenodd"/>
<path transform="matrix(1,0,0,-1,13.6150059,7.070984)" d="M0 0H.78V-.54" fill="#007b4e" fill-rule="evenodd"/>
<path transform="matrix(1,0,0,-1,11.154999,7.070984)" d="M0 0 .84-.54H0" fill="#007b4e" fill-rule="evenodd"/>
<path transform="matrix(1,0,0,-1,11.154999,7.070984)" d="M0 0H.84V-.54" fill="#007b4e" fill-rule="evenodd"/>
<path transform="matrix(1,0,0,-1,13.6150059,7.611023)" d="M0 0 .78-.12H0" fill="#007b4e" fill-rule="evenodd"/>
<path transform="matrix(1,0,0,-1,13.6150059,7.611023)" d="M0 0H.78V-.12" fill="#007b4e" fill-rule="evenodd"/>
<path transform="matrix(1,0,0,-1,11.154999,7.611023)" d="M0 0 .84-.12H0" fill="#007b4e" fill-rule="evenodd"/>
<path transform="matrix(1,0,0,-1,11.154999,7.611023)" d="M0 0H.84V-.12" fill="#007b4e" fill-rule="evenodd"/>
<path transform="matrix(1,0,0,-1,13.6150059,7.731018)" d="M0 0 .78-.48H0" fill="#007b4e" fill-rule="evenodd"/>
<path transform="matrix(1,0,0,-1,13.6150059,7.731018)" d="M0 0H.78V-.48" fill="#007b4e" fill-rule="evenodd"/>
<path transform="matrix(1,0,0,-1,11.154999,7.731018)" d="M0 0 .84-.48H0" fill="#007b4e" fill-rule="evenodd"/>
<path transform="matrix(1,0,0,-1,11.154999,7.731018)" d="M0 0H.84V-.48" fill="#007b4e" fill-rule="evenodd"/>
<path transform="matrix(1,0,0,-1,13.6150059,8.210999)" d="M0 0 .78-.18H0" fill="#007b4e" fill-rule="evenodd"/>
<path transform="matrix(1,0,0,-1,13.6150059,8.210999)" d="M0 0H.78V-.18" fill="#007b4e" fill-rule="evenodd"/>
<path transform="matrix(1,0,0,-1,11.154999,8.210999)" d="M0 0 .84-.18H0" fill="#007b4e" fill-rule="evenodd"/>
<path transform="matrix(1,0,0,-1,11.154999,8.210999)" d="M0 0H.84V-.18" fill="#007b4e" fill-rule="evenodd"/>
<path transform="matrix(1,0,0,-1,13.6150059,8.390991)" d="M0 0 .78-.42H0" fill="#007b4e" fill-rule="evenodd"/>
<path transform="matrix(1,0,0,-1,13.6150059,8.390991)" d="M0 0H.78V-.42" fill="#007b4e" fill-rule="evenodd"/>
<path transform="matrix(1,0,0,-1,11.154999,8.390991)" d="M0 0 .84-.42H0" fill="#007b4e" fill-rule="evenodd"/>
<path transform="matrix(1,0,0,-1,11.154999,8.390991)" d="M0 0H.84V-.42" fill="#007b4e" fill-rule="evenodd"/>
<path transform="matrix(1,0,0,-1,13.6150059,8.810974)" d="M0 0 .78-.24H0" fill="#007b4e" fill-rule="evenodd"/>
<path transform="matrix(1,0,0,-1,13.6150059,8.810974)" d="M0 0H.78V-.24" fill="#007b4e" fill-rule="evenodd"/>
<path transform="matrix(1,0,0,-1,11.154999,8.810974)" d="M0 0 .84-.24H0" fill="#007b4e" fill-rule="evenodd"/>
<path transform="matrix(1,0,0,-1,11.154999,8.810974)" d="M0 0H.84V-.24" fill="#007b4e" fill-rule="evenodd"/>
<path transform="matrix(1,0,0,-1,13.6150059,9.051025)" d="M0 0 .78-.06H0" fill="#007b4e" fill-rule="evenodd"/>
<path transform="matrix(1,0,0,-1,13.6150059,9.051025)" d="M0 0H.78V-.06" fill="#007b4e" fill-rule="evenodd"/>
<path transform="matrix(1,0,0,-1,11.154999,9.051025)" d="M0 0 .84-.06H0" fill="#007b4e" fill-rule="evenodd"/>
<path transform="matrix(1,0,0,-1,11.154999,9.051025)" d="M0 0H.84V-.06" fill="#007b4e" fill-rule="evenodd"/>
<path transform="matrix(1,0,0,-1,13.6150059,9.111023)" d="M0 0 .72-.18H-.06" fill="#007b4e" fill-rule="evenodd"/>
<path transform="matrix(1,0,0,-1,13.6150059,9.111023)" d="M0 0H.78L.72-.18" fill="#007b4e" fill-rule="evenodd"/>
<path transform="matrix(1,0,0,-1,11.154999,9.111023)" d="M0 0 .9-.18H.06" fill="#007b4e" fill-rule="evenodd"/>
<path transform="matrix(1,0,0,-1,11.154999,9.111023)" d="M0 0H.84L.9-.18" fill="#007b4e" fill-rule="evenodd"/>
<path transform="matrix(1,0,0,-1,13.554993,9.291016)" d="M0 0 .78-.3H-.12" fill="#007b4e" fill-rule="evenodd"/>
<path transform="matrix(1,0,0,-1,13.554993,9.291016)" d="M0 0H.78V-.3" fill="#007b4e" fill-rule="evenodd"/>
<path transform="matrix(1,0,0,-1,11.214996,9.291016)" d="M0 0 .96-.3H.06" fill="#007b4e" fill-rule="evenodd"/>
<path transform="matrix(1,0,0,-1,11.214996,9.291016)" d="M0 0H.84L.96-.3" fill="#007b4e" fill-rule="evenodd"/>
<path transform="matrix(1,0,0,-1,13.434998,9.591003)" d="M0 0H.84-.06" fill="#007b4e" fill-rule="evenodd"/>
<path transform="matrix(1,0,0,-1,13.434998,9.591003)" d="M0 0H.9 .84" fill="#007b4e" fill-rule="evenodd"/>
<path transform="matrix(1,0,0,-1,11.274994,9.591003)" d="M0 0H.96" fill="#007b4e" fill-rule="evenodd"/>
<path transform="matrix(1,0,0,-1,11.274994,9.591003)" d="M0 0H.96" fill="#007b4e" fill-rule="evenodd"/>
<path transform="matrix(1,0,0,-1,13.375,9.591003)" d="M0 0 .84-.12H-.18" fill="#007b4e" fill-rule="evenodd"/>
<path transform="matrix(1,0,0,-1,13.375,9.591003)" d="M0 0H.9L.84-.12" fill="#007b4e" fill-rule="evenodd"/>
<path transform="matrix(1,0,0,-1,11.274994,9.591003)" d="M0 0 1.14-.12H.06" fill="#007b4e" fill-rule="evenodd"/>
<path transform="matrix(1,0,0,-1,11.274994,9.591003)" d="M0 0H.96L1.14-.12" fill="#007b4e" fill-rule="evenodd"/>
<path transform="matrix(1,0,0,-1,13.195007,9.710999)" d="M0 0 1.02-.12H-.42" fill="#007b4e" fill-rule="evenodd"/>
<path transform="matrix(1,0,0,-1,13.195007,9.710999)" d="M0 0H1.02V-.12" fill="#007b4e" fill-rule="evenodd"/>
<path transform="matrix(1,0,0,-1,11.335007,9.710999)" d="M0 0 1.44-.12H.06" fill="#007b4e" fill-rule="evenodd"/>
<path transform="matrix(1,0,0,-1,11.335007,9.710999)" d="M0 0H1.08L1.44-.12" fill="#007b4e" fill-rule="evenodd"/>
<path transform="matrix(1,0,0,-1,11.395004,9.830994)" d="M0 0 2.7-.12H.12" fill="#007b4e" fill-rule="evenodd"/>
<path transform="matrix(1,0,0,-1,11.395004,9.830994)" d="M0 0H2.82L2.7-.12" fill="#007b4e" fill-rule="evenodd"/>
<path transform="matrix(1,0,0,-1,11.514999,9.950989)" d="M0 0 2.22-.3H.3" fill="#007b4e" fill-rule="evenodd"/>
<path transform="matrix(1,0,0,-1,11.514999,9.950989)" d="M0 0H2.58L2.22-.3" fill="#007b4e" fill-rule="evenodd"/>
<path transform="matrix(1,0,0,-1,12.294998,10.43103)" d="M0 0H.96L.48-.06" fill="#007b4e" fill-rule="evenodd"/>
<path transform="matrix(1,0,0,-1,11.815002,10.250977)" d="M0 0 1.44-.18H.48" fill="#007b4e" fill-rule="evenodd"/>
<path transform="matrix(1,0,0,-1,11.815002,10.250977)" d="M0 0H1.92L1.44-.18" fill="#007b4e" fill-rule="evenodd"/>
<path transform="matrix(1,0,0,-1,15.835007,7.070984)" d="M0 0 .78-3.42H0" fill="#007b4e" fill-rule="evenodd"/>
<path transform="matrix(1,0,0,-1,15.835007,7.070984)" d="M0 0H.78V-3.42" fill="#007b4e" fill-rule="evenodd"/>
<path transform="matrix(1,0,0,-1,16.615006,10.491028)" stroke-width=".72" stroke-linecap="round" stroke-linejoin="round" fill="none" stroke="#007b4e" d="M0 0H-.78V3.42"/>
<path transform="matrix(1,0,0,-1,16.615006,7.0710279)" stroke-width=".72" stroke-linecap="round" stroke-linejoin="round" fill="none" stroke="#007b4e" d="M0 0V-3.42"/>
<path transform="matrix(1,0,0,-1,17.455006,6.411028)" stroke-width=".72" stroke-linecap="round" stroke-linejoin="round" fill="none" stroke="#007b4e" d="M0 0V-.66H-.84"/>
<path transform="matrix(1,0,0,-1,15.055006,7.0710279)" stroke-width=".72" stroke-linecap="round" stroke-linejoin="round" fill="none" stroke="#007b4e" d="M0 0H.78"/>
<path transform="matrix(1,0,0,-1,17.455006,6.411028)" stroke-width=".72" stroke-linecap="round" stroke-linejoin="round" fill="none" stroke="#007b4e" d="M0 0H-2.4V-.66"/>
<path transform="matrix(1,0,0,-1,11.995006,7.6110279)" stroke-width=".72" stroke-linecap="round" stroke-linejoin="round" fill="none" stroke="#007b4e" d="M0 0V1.2H-.84V-.12C-.825-1.195-1.103-2.432 .3-2.82L.78-2.88 1.26-2.82C2.686-2.487 2.366-1.206 2.4-.12V1.2H1.62V0C1.559-.644 1.772-1.385 1.44-1.98L1.2-2.1 .78-2.22C.071-2.05 .029-1.889 0-1.2V0Z"/>
</g>
</g>
</svg>
