<svg xmlns="http://www.w3.org/2000/svg" xmlns:xlink="http://www.w3.org/1999/xlink" xmlns:inkscape="http://www.inkscape.org/namespaces/inkscape" version="1.1" width="18.25" height="14.5" viewBox="0 0 18.25 14.5">
<defs>
<clipPath id="clip_1">
<path transform="matrix(1,0,0,-1,-199.625,821.75)" d="M201.625 809.25H215.875V819.75H201.625Z"/>
</clipPath>
<clipPath id="clip_2">
<path transform="matrix(1,0,0,-1,-199.625,821.75)" d="M201.625 819.75V809.25H215.875V819.75Z" clip-rule="evenodd"/>
</clipPath>
</defs>
<g clip-path="url(#clip_1)">
<g clip-path="url(#clip_2)">
<path transform="matrix(1,0,0,-1,4.675003,4.310974)" d="M0 0 9.78-6.18H0" fill="#ffffff" fill-rule="evenodd"/>
<path transform="matrix(1,0,0,-1,4.675003,4.310974)" d="M0 0H9.78V-6.18" fill="#ffffff" fill-rule="evenodd"/>
<path transform="matrix(1,0,0,-1,9.054993,5.270996)" d="M0 0 .78-.6H0" fill="#007b4e" fill-rule="evenodd"/>
<path transform="matrix(1,0,0,-1,9.054993,5.270996)" d="M0 0H.78V-.6" fill="#007b4e" fill-rule="evenodd"/>
<path transform="matrix(1,0,0,-1,6.5350039,5.270996)" d="M0 0 .84-.66H0" fill="#007b4e" fill-rule="evenodd"/>
<path transform="matrix(1,0,0,-1,6.5350039,5.270996)" d="M0 0H.84V-.66" fill="#007b4e" fill-rule="evenodd"/>
<path transform="matrix(1,0,0,-1,9.054993,5.8709719)" d="M0 0 .78-.06H0" fill="#007b4e" fill-rule="evenodd"/>
<path transform="matrix(1,0,0,-1,9.054993,5.8709719)" d="M0 0H.78V-.06" fill="#007b4e" fill-rule="evenodd"/>
<path transform="matrix(1,0,0,-1,6.5350039,5.9310305)" d="M0 0H.84" fill="#007b4e" fill-rule="evenodd"/>
<path transform="matrix(1,0,0,-1,6.5350039,5.9310305)" d="M0 0H.84" fill="#007b4e" fill-rule="evenodd"/>
<path transform="matrix(1,0,0,-1,10.494995,5.270996)" d="M0 0 2.46-.72H0" fill="#007b4e" fill-rule="evenodd"/>
<path transform="matrix(1,0,0,-1,10.494995,5.270996)" d="M0 0H2.46V-.72" fill="#007b4e" fill-rule="evenodd"/>
<path transform="matrix(1,0,0,-1,9.054993,5.9310305)" d="M0 0 .78-.54H0" fill="#007b4e" fill-rule="evenodd"/>
<path transform="matrix(1,0,0,-1,9.054993,5.9310305)" d="M0 0H.78V-.54" fill="#007b4e" fill-rule="evenodd"/>
<path transform="matrix(1,0,0,-1,6.5350039,5.9310305)" d="M0 0 .84-.54H0" fill="#007b4e" fill-rule="evenodd"/>
<path transform="matrix(1,0,0,-1,6.5350039,5.9310305)" d="M0 0H.84V-.54" fill="#007b4e" fill-rule="evenodd"/>
<path transform="matrix(1,0,0,-1,9.054993,6.4710085)" d="M0 0 .78-.18H0" fill="#007b4e" fill-rule="evenodd"/>
<path transform="matrix(1,0,0,-1,9.054993,6.4710085)" d="M0 0H.78V-.18" fill="#007b4e" fill-rule="evenodd"/>
<path transform="matrix(1,0,0,-1,6.5350039,6.4710085)" d="M0 0 .84-.18H0" fill="#007b4e" fill-rule="evenodd"/>
<path transform="matrix(1,0,0,-1,6.5350039,6.4710085)" d="M0 0H.84V-.18" fill="#007b4e" fill-rule="evenodd"/>
<path transform="matrix(1,0,0,-1,9.054993,6.651001)" d="M0 0 .78-.48H0" fill="#007b4e" fill-rule="evenodd"/>
<path transform="matrix(1,0,0,-1,9.054993,6.651001)" d="M0 0H.78V-.48" fill="#007b4e" fill-rule="evenodd"/>
<path transform="matrix(1,0,0,-1,6.5350039,6.651001)" d="M0 0 .84-.48H0" fill="#007b4e" fill-rule="evenodd"/>
<path transform="matrix(1,0,0,-1,6.5350039,6.651001)" d="M0 0H.84V-.48" fill="#007b4e" fill-rule="evenodd"/>
<path transform="matrix(1,0,0,-1,9.054993,7.1309816)" d="M0 0 .78-.18H0" fill="#007b4e" fill-rule="evenodd"/>
<path transform="matrix(1,0,0,-1,9.054993,7.1309816)" d="M0 0H.78V-.18" fill="#007b4e" fill-rule="evenodd"/>
<path transform="matrix(1,0,0,-1,6.5350039,7.1309816)" d="M0 0 .84-.18H0" fill="#007b4e" fill-rule="evenodd"/>
<path transform="matrix(1,0,0,-1,6.5350039,7.1309816)" d="M0 0H.84V-.18" fill="#007b4e" fill-rule="evenodd"/>
<path transform="matrix(1,0,0,-1,9.054993,7.310974)" d="M0 0 .78-.42H0" fill="#007b4e" fill-rule="evenodd"/>
<path transform="matrix(1,0,0,-1,9.054993,7.310974)" d="M0 0H.78V-.42" fill="#007b4e" fill-rule="evenodd"/>
<path transform="matrix(1,0,0,-1,6.5350039,7.310974)" d="M0 0 .84-.42H0" fill="#007b4e" fill-rule="evenodd"/>
<path transform="matrix(1,0,0,-1,6.5350039,7.310974)" d="M0 0H.84V-.42" fill="#007b4e" fill-rule="evenodd"/>
<path transform="matrix(1,0,0,-1,9.054993,7.731018)" d="M0 0 .78-.3H0" fill="#007b4e" fill-rule="evenodd"/>
<path transform="matrix(1,0,0,-1,9.054993,7.731018)" d="M0 0H.78V-.3" fill="#007b4e" fill-rule="evenodd"/>
<path transform="matrix(1,0,0,-1,6.5350039,7.731018)" d="M0 0 .84-.3H0" fill="#007b4e" fill-rule="evenodd"/>
<path transform="matrix(1,0,0,-1,6.5350039,7.731018)" d="M0 0H.84V-.3" fill="#007b4e" fill-rule="evenodd"/>
<path transform="matrix(1,0,0,-1,9.054993,8.031006)" d="M0 0H.78" fill="#007b4e" fill-rule="evenodd"/>
<path transform="matrix(1,0,0,-1,9.054993,8.031006)" d="M0 0H.78" fill="#007b4e" fill-rule="evenodd"/>
<path transform="matrix(1,0,0,-1,6.5350039,8.031006)" d="M0 0H.9" fill="#007b4e" fill-rule="evenodd"/>
<path transform="matrix(1,0,0,-1,6.5350039,8.031006)" d="M0 0H.9" fill="#007b4e" fill-rule="evenodd"/>
<path transform="matrix(1,0,0,-1,9.054993,8.031006)" d="M0 0 .72-.24H-.06" fill="#007b4e" fill-rule="evenodd"/>
<path transform="matrix(1,0,0,-1,9.054993,8.031006)" d="M0 0H.78L.72-.24" fill="#007b4e" fill-rule="evenodd"/>
<path transform="matrix(1,0,0,-1,6.5350039,8.031006)" d="M0 0 .9-.24H.06" fill="#007b4e" fill-rule="evenodd"/>
<path transform="matrix(1,0,0,-1,6.5350039,8.031006)" d="M0 0H.9V-.24" fill="#007b4e" fill-rule="evenodd"/>
<path transform="matrix(1,0,0,-1,8.994995,8.270996)" d="M0 0 .78-.24H-.12" fill="#007b4e" fill-rule="evenodd"/>
<path transform="matrix(1,0,0,-1,8.994995,8.270996)" d="M0 0H.78V-.24" fill="#007b4e" fill-rule="evenodd"/>
<path transform="matrix(1,0,0,-1,6.595001,8.270996)" d="M0 0 .96-.24H.06" fill="#007b4e" fill-rule="evenodd"/>
<path transform="matrix(1,0,0,-1,6.595001,8.270996)" d="M0 0H.84L.96-.24" fill="#007b4e" fill-rule="evenodd"/>
<path transform="matrix(1,0,0,-1,8.875,8.510986)" d="M0 0 .9-.06H-.06" fill="#007b4e" fill-rule="evenodd"/>
<path transform="matrix(1,0,0,-1,8.875,8.510986)" d="M0 0H.9V-.06" fill="#007b4e" fill-rule="evenodd"/>
<path transform="matrix(1,0,0,-1,6.654999,8.510986)" d="M0 0 .96-.06H0" fill="#007b4e" fill-rule="evenodd"/>
<path transform="matrix(1,0,0,-1,6.654999,8.510986)" d="M0 0H.9L.96-.06" fill="#007b4e" fill-rule="evenodd"/>
<path transform="matrix(1,0,0,-1,8.815002,8.570984)" d="M0 0 .9-.12H-.18" fill="#007b4e" fill-rule="evenodd"/>
<path transform="matrix(1,0,0,-1,8.815002,8.570984)" d="M0 0H.96L.9-.12" fill="#007b4e" fill-rule="evenodd"/>
<path transform="matrix(1,0,0,-1,6.654999,8.570984)" d="M0 0 1.14-.12H.06" fill="#007b4e" fill-rule="evenodd"/>
<path transform="matrix(1,0,0,-1,6.654999,8.570984)" d="M0 0H.96L1.14-.12" fill="#007b4e" fill-rule="evenodd"/>
<path transform="matrix(1,0,0,-1,8.6349949,8.690979)" d="M0 0 1.02-.06H-.42" fill="#007b4e" fill-rule="evenodd"/>
<path transform="matrix(1,0,0,-1,8.6349949,8.690979)" d="M0 0H1.08L1.02-.06" fill="#007b4e" fill-rule="evenodd"/>
<path transform="matrix(1,0,0,-1,6.7149965,8.690979)" d="M0 0 1.5-.06H.06" fill="#007b4e" fill-rule="evenodd"/>
<path transform="matrix(1,0,0,-1,6.7149965,8.690979)" d="M0 0H1.08L1.5-.06" fill="#007b4e" fill-rule="evenodd"/>
<path transform="matrix(1,0,0,-1,6.774994,8.750977)" d="M0 0 2.76-.18H.12" fill="#007b4e" fill-rule="evenodd"/>
<path transform="matrix(1,0,0,-1,6.774994,8.750977)" d="M0 0H2.88L2.76-.18" fill="#007b4e" fill-rule="evenodd"/>
<path transform="matrix(1,0,0,-1,6.8950045,8.93103)" d="M0 0 2.28-.3H.36" fill="#007b4e" fill-rule="evenodd"/>
<path transform="matrix(1,0,0,-1,6.8950045,8.93103)" d="M0 0H2.64L2.28-.3" fill="#007b4e" fill-rule="evenodd"/>
<path transform="matrix(1,0,0,-1,7.675003,9.411011)" d="M0 0H1.02L.54-.06" fill="#007b4e" fill-rule="evenodd"/>
<path transform="matrix(1,0,0,-1,7.255005,9.231018)" d="M0 0 1.44-.18H.42" fill="#007b4e" fill-rule="evenodd"/>
<path transform="matrix(1,0,0,-1,7.255005,9.231018)" d="M0 0H1.92L1.44-.18" fill="#007b4e" fill-rule="evenodd"/>
<path transform="matrix(1,0,0,-1,11.274994,5.991028)" d="M0 0 .84-3.48H0" fill="#007b4e" fill-rule="evenodd"/>
<path transform="matrix(1,0,0,-1,11.274994,5.991028)" d="M0 0H.84V-3.48" fill="#007b4e" fill-rule="evenodd"/>
<path transform="matrix(1,0,0,-1,7.375,6.4710085)" stroke-width=".72" stroke-linecap="round" stroke-linejoin="round" fill="none" stroke="#007b4e" d="M0 0V1.2H-.84V-.18C-.795-1.393-1.16-2.428 .3-2.94L.84-3 1.32-2.94C2.881-2.485 2.372-1.459 2.46-.18V1.2H1.68V-1.56L1.62-1.8 1.5-2.04 1.26-2.22 .84-2.28 .42-2.22 .18-2.04 .06-1.8 0-1.56V0Z"/>
<path transform="matrix(1,0,0,-1,10.495,5.9910085)" stroke-width=".72" stroke-linecap="round" stroke-linejoin="round" fill="none" stroke="#007b4e" d="M0 0V.72H2.46"/>
<path transform="matrix(1,0,0,-1,10.495,5.9910085)" stroke-width=".72" stroke-linecap="round" stroke-linejoin="round" fill="none" stroke="#007b4e" d="M0 0H.78"/>
<path transform="matrix(1,0,0,-1,12.115,5.9910085)" stroke-width=".72" stroke-linecap="round" stroke-linejoin="round" fill="none" stroke="#007b4e" d="M0 0H.84V.72"/>
<path transform="matrix(1,0,0,-1,12.115,5.9910085)" stroke-width=".72" stroke-linecap="round" stroke-linejoin="round" fill="none" stroke="#007b4e" d="M0 0V-3.48"/>
<path transform="matrix(1,0,0,-1,11.275,5.9910085)" stroke-width=".72" stroke-linecap="round" stroke-linejoin="round" fill="none" stroke="#007b4e" d="M0 0V-3.48H.84"/>
<path transform="matrix(1,0,0,-1,4.675003,10.491028)" stroke-width="1.14" stroke-linecap="round" stroke-linejoin="round" fill="none" stroke="#007b4e" d="M9.78 0H0V6.18H9.78Z"/>
</g>
</g>
</svg>
