<svg xmlns="http://www.w3.org/2000/svg" xmlns:xlink="http://www.w3.org/1999/xlink" xmlns:inkscape="http://www.inkscape.org/namespaces/inkscape" version="1.1" width="22" height="22" viewBox="0 0 22 22">
<defs>
<clipPath id="clip_1">
<path transform="matrix(1,0,0,-1,-195.125,955.25)" d="M197.125 935.25H215.125V953.25H197.125Z"/>
</clipPath>
<clipPath id="clip_2">
<path transform="matrix(1,0,0,-1,-195.125,955.25)" d="M197.125 953.25V935.25H215.125V953.25Z" clip-rule="evenodd"/>
</clipPath>
</defs>
<g clip-path="url(#clip_1)">
<g clip-path="url(#clip_2)">
<path transform="matrix(1,0,0,-1,3.3549958,3.5910035)" d="M0 0 15.6-2.64H0" fill="#ffffff" fill-rule="evenodd"/>
<path transform="matrix(1,0,0,-1,3.3549958,3.5910035)" d="M0 0H15.6V-2.64" fill="#ffffff" fill-rule="evenodd"/>
<path transform="matrix(1,0,0,-1,11.695007,6.231018)" d="M0 0 7.26-.18H.9" fill="#ffffff" fill-rule="evenodd"/>
<path transform="matrix(1,0,0,-1,11.695007,6.231018)" d="M0 0H7.26V-.18" fill="#ffffff" fill-rule="evenodd"/>
<path transform="matrix(1,0,0,-1,3.3549958,6.231018)" d="M0 0 6.48-.18H0" fill="#ffffff" fill-rule="evenodd"/>
<path transform="matrix(1,0,0,-1,3.3549958,6.231018)" d="M0 0H7.38L6.48-.18" fill="#ffffff" fill-rule="evenodd"/>
<path transform="matrix(1,0,0,-1,12.595001,6.4110109)" d="M0 0 6.36-.3H.84" fill="#ffffff" fill-rule="evenodd"/>
<path transform="matrix(1,0,0,-1,12.595001,6.4110109)" d="M0 0H6.36V-.3" fill="#ffffff" fill-rule="evenodd"/>
<path transform="matrix(1,0,0,-1,3.3549958,6.4110109)" d="M0 0 5.58-.3H0" fill="#ffffff" fill-rule="evenodd"/>
<path transform="matrix(1,0,0,-1,3.3549958,6.4110109)" d="M0 0H6.48L5.58-.3" fill="#ffffff" fill-rule="evenodd"/>
<path transform="matrix(1,0,0,-1,13.434998,6.7109987)" d="M0 0 5.52-.54H.84" fill="#ffffff" fill-rule="evenodd"/>
<path transform="matrix(1,0,0,-1,13.434998,6.7109987)" d="M0 0H5.52V-.54" fill="#ffffff" fill-rule="evenodd"/>
<path transform="matrix(1,0,0,-1,3.3549958,6.7109987)" d="M0 0 4.8-.54H0" fill="#ffffff" fill-rule="evenodd"/>
<path transform="matrix(1,0,0,-1,3.3549958,6.7109987)" d="M0 0H5.58L4.8-.54" fill="#ffffff" fill-rule="evenodd"/>
<path transform="matrix(1,0,0,-1,14.274994,7.2509768)" d="M0 0 4.68-.6H.66" fill="#ffffff" fill-rule="evenodd"/>
<path transform="matrix(1,0,0,-1,14.274994,7.2509768)" d="M0 0H4.68V-.6" fill="#ffffff" fill-rule="evenodd"/>
<path transform="matrix(1,0,0,-1,3.3549958,7.2509768)" d="M0 0 4.14-.6H0" fill="#ffffff" fill-rule="evenodd"/>
<path transform="matrix(1,0,0,-1,3.3549958,7.2509768)" d="M0 0H4.8L4.14-.6" fill="#ffffff" fill-rule="evenodd"/>
<path transform="matrix(1,0,0,-1,14.934998,7.851013)" d="M0 0 4.02-.72H.6" fill="#ffffff" fill-rule="evenodd"/>
<path transform="matrix(1,0,0,-1,14.934998,7.851013)" d="M0 0H4.02V-.72" fill="#ffffff" fill-rule="evenodd"/>
<path transform="matrix(1,0,0,-1,3.3549958,7.851013)" d="M0 0 3.54-.72H0" fill="#ffffff" fill-rule="evenodd"/>
<path transform="matrix(1,0,0,-1,3.3549958,7.851013)" d="M0 0H4.14L3.54-.72" fill="#ffffff" fill-rule="evenodd"/>
<path transform="matrix(1,0,0,-1,15.535004,8.570984)" d="M0 0 3.42-.84H.36" fill="#ffffff" fill-rule="evenodd"/>
<path transform="matrix(1,0,0,-1,15.535004,8.570984)" d="M0 0H3.42V-.84" fill="#ffffff" fill-rule="evenodd"/>
<path transform="matrix(1,0,0,-1,3.3549958,8.570984)" d="M0 0 3.12-.84H0" fill="#ffffff" fill-rule="evenodd"/>
<path transform="matrix(1,0,0,-1,3.3549958,8.570984)" d="M0 0H3.54L3.12-.84" fill="#ffffff" fill-rule="evenodd"/>
<path transform="matrix(1,0,0,-1,15.895004,9.411011)" d="M0 0 3.06-.9H.3" fill="#ffffff" fill-rule="evenodd"/>
<path transform="matrix(1,0,0,-1,15.895004,9.411011)" d="M0 0H3.06V-.9" fill="#ffffff" fill-rule="evenodd"/>
<path transform="matrix(1,0,0,-1,3.3549958,9.411011)" d="M0 0 2.88-.9H0" fill="#ffffff" fill-rule="evenodd"/>
<path transform="matrix(1,0,0,-1,3.3549958,9.411011)" d="M0 0H3.12L2.88-.9" fill="#ffffff" fill-rule="evenodd"/>
<path transform="matrix(1,0,0,-1,16.195008,10.310974)" d="M0 0 2.76-.96H.06" fill="#ffffff" fill-rule="evenodd"/>
<path transform="matrix(1,0,0,-1,16.195008,10.310974)" d="M0 0H2.76V-.96" fill="#ffffff" fill-rule="evenodd"/>
<path transform="matrix(1,0,0,-1,3.3549958,10.310974)" d="M0 0 2.82-.96H0" fill="#ffffff" fill-rule="evenodd"/>
<path transform="matrix(1,0,0,-1,3.3549958,10.310974)" d="M0 0H2.88L2.82-.96" fill="#ffffff" fill-rule="evenodd"/>
<path transform="matrix(1,0,0,-1,16.255005,11.270996)" d="M0 0 2.7-.9H-.06" fill="#ffffff" fill-rule="evenodd"/>
<path transform="matrix(1,0,0,-1,16.255005,11.270996)" d="M0 0H2.7V-.9" fill="#ffffff" fill-rule="evenodd"/>
<path transform="matrix(1,0,0,-1,3.3549958,11.270996)" d="M0 0 2.88-.9H0" fill="#ffffff" fill-rule="evenodd"/>
<path transform="matrix(1,0,0,-1,3.3549958,11.270996)" d="M0 0H2.82L2.88-.9" fill="#ffffff" fill-rule="evenodd"/>
<path transform="matrix(1,0,0,-1,16.195008,12.1710209)" d="M0 0 2.76-.9H-.3" fill="#ffffff" fill-rule="evenodd"/>
<path transform="matrix(1,0,0,-1,16.195008,12.1710209)" d="M0 0H2.76V-.9" fill="#ffffff" fill-rule="evenodd"/>
<path transform="matrix(1,0,0,-1,3.3549958,12.1710209)" d="M0 0 3.12-.9H0" fill="#ffffff" fill-rule="evenodd"/>
<path transform="matrix(1,0,0,-1,3.3549958,12.1710209)" d="M0 0H2.88L3.12-.9" fill="#ffffff" fill-rule="evenodd"/>
<path transform="matrix(1,0,0,-1,15.895004,13.070984)" d="M0 0 3.06-.84H-.36" fill="#ffffff" fill-rule="evenodd"/>
<path transform="matrix(1,0,0,-1,15.895004,13.070984)" d="M0 0H3.06V-.84" fill="#ffffff" fill-rule="evenodd"/>
<path transform="matrix(1,0,0,-1,3.3549958,13.070984)" d="M0 0 3.54-.84H0" fill="#ffffff" fill-rule="evenodd"/>
<path transform="matrix(1,0,0,-1,3.3549958,13.070984)" d="M0 0H3.12L3.54-.84" fill="#ffffff" fill-rule="evenodd"/>
<path transform="matrix(1,0,0,-1,15.535004,13.911011)" d="M0 0 3.42-.78H-.6" fill="#ffffff" fill-rule="evenodd"/>
<path transform="matrix(1,0,0,-1,15.535004,13.911011)" d="M0 0H3.42V-.78" fill="#ffffff" fill-rule="evenodd"/>
<path transform="matrix(1,0,0,-1,3.3549958,13.911011)" d="M0 0 4.14-.78H0" fill="#ffffff" fill-rule="evenodd"/>
<path transform="matrix(1,0,0,-1,3.3549958,13.911011)" d="M0 0H3.54L4.14-.78" fill="#ffffff" fill-rule="evenodd"/>
<path transform="matrix(1,0,0,-1,14.934998,14.690979)" d="M0 0 4.02-.6H-.66" fill="#ffffff" fill-rule="evenodd"/>
<path transform="matrix(1,0,0,-1,14.934998,14.690979)" d="M0 0H4.02V-.6" fill="#ffffff" fill-rule="evenodd"/>
<path transform="matrix(1,0,0,-1,3.3549958,14.690979)" d="M0 0 4.8-.6H0" fill="#ffffff" fill-rule="evenodd"/>
<path transform="matrix(1,0,0,-1,3.3549958,14.690979)" d="M0 0H4.14L4.8-.6" fill="#ffffff" fill-rule="evenodd"/>
<path transform="matrix(1,0,0,-1,14.274994,15.291016)" d="M0 0 4.68-.48H-.84" fill="#ffffff" fill-rule="evenodd"/>
<path transform="matrix(1,0,0,-1,14.274994,15.291016)" d="M0 0H4.68V-.48" fill="#ffffff" fill-rule="evenodd"/>
<path transform="matrix(1,0,0,-1,3.3549958,15.291016)" d="M0 0 5.58-.48H0" fill="#ffffff" fill-rule="evenodd"/>
<path transform="matrix(1,0,0,-1,3.3549958,15.291016)" d="M0 0H4.8L5.58-.48" fill="#ffffff" fill-rule="evenodd"/>
<path transform="matrix(1,0,0,-1,13.434998,15.770996)" d="M0 0 5.52-.36H-.84" fill="#ffffff" fill-rule="evenodd"/>
<path transform="matrix(1,0,0,-1,13.434998,15.770996)" d="M0 0H5.52V-.36" fill="#ffffff" fill-rule="evenodd"/>
<path transform="matrix(1,0,0,-1,3.3549958,15.770996)" d="M0 0 6.48-.36H0" fill="#ffffff" fill-rule="evenodd"/>
<path transform="matrix(1,0,0,-1,3.3549958,15.770996)" d="M0 0H5.58L6.48-.36" fill="#ffffff" fill-rule="evenodd"/>
<path transform="matrix(1,0,0,-1,12.595001,16.130982)" d="M0 0 6.36-.18H-.9" fill="#ffffff" fill-rule="evenodd"/>
<path transform="matrix(1,0,0,-1,12.595001,16.130982)" d="M0 0H6.36V-.18" fill="#ffffff" fill-rule="evenodd"/>
<path transform="matrix(1,0,0,-1,3.3549958,16.130982)" d="M0 0 7.38-.18H0" fill="#ffffff" fill-rule="evenodd"/>
<path transform="matrix(1,0,0,-1,3.3549958,16.130982)" d="M0 0H6.48L7.38-.18" fill="#ffffff" fill-rule="evenodd"/>
<path transform="matrix(1,0,0,-1,3.3549958,16.310975)" d="M0 0 15.6-2.88H0" fill="#ffffff" fill-rule="evenodd"/>
<path transform="matrix(1,0,0,-1,3.3549958,16.310975)" d="M0 0H15.6V-2.88" fill="#ffffff" fill-rule="evenodd"/>
<path transform="matrix(1,0,0,-1,10.735001,6.231018)" d="M0 0 1.86-.18H-.9" fill="#ffffff" fill-rule="evenodd"/>
<path transform="matrix(1,0,0,-1,10.735001,6.231018)" d="M0 0H.96L1.86-.18" fill="#ffffff" fill-rule="evenodd"/>
<path transform="matrix(1,0,0,-1,9.835007,6.4110109)" d="M0 0 3.6-.3H-.9" fill="#ffffff" fill-rule="evenodd"/>
<path transform="matrix(1,0,0,-1,9.835007,6.4110109)" d="M0 0H2.76L3.6-.3" fill="#ffffff" fill-rule="evenodd"/>
<path transform="matrix(1,0,0,-1,8.934998,6.7109987)" d="M0 0 5.34-.54H-.78" fill="#ffffff" fill-rule="evenodd"/>
<path transform="matrix(1,0,0,-1,8.934998,6.7109987)" d="M0 0H4.5L5.34-.54" fill="#ffffff" fill-rule="evenodd"/>
<path transform="matrix(1,0,0,-1,8.154999,7.2509768)" d="M0 0 6.78-.6H-.66" fill="#ffffff" fill-rule="evenodd"/>
<path transform="matrix(1,0,0,-1,8.154999,7.2509768)" d="M0 0H6.12L6.78-.6" fill="#ffffff" fill-rule="evenodd"/>
<path transform="matrix(1,0,0,-1,7.494995,7.851013)" d="M0 0 8.04-.72H-.6" fill="#ffffff" fill-rule="evenodd"/>
<path transform="matrix(1,0,0,-1,7.494995,7.851013)" d="M0 0H7.44L8.04-.72" fill="#ffffff" fill-rule="evenodd"/>
<path transform="matrix(1,0,0,-1,6.8950045,8.570984)" d="M0 0 9-.84H-.42" fill="#ffffff" fill-rule="evenodd"/>
<path transform="matrix(1,0,0,-1,6.8950045,8.570984)" d="M0 0H8.64L9-.84" fill="#ffffff" fill-rule="evenodd"/>
<path transform="matrix(1,0,0,-1,6.475006,9.411011)" d="M0 0 9.54-.42H-.12" fill="#ffffff" fill-rule="evenodd"/>
<path transform="matrix(1,0,0,-1,6.475006,9.411011)" d="M0 0H9.42L9.54-.42" fill="#ffffff" fill-rule="evenodd"/>
<path transform="matrix(1,0,0,-1,11.274994,9.830994)" d="M0 0 4.8-.06H.24" fill="#ffffff" fill-rule="evenodd"/>
<path transform="matrix(1,0,0,-1,11.274994,9.830994)" d="M0 0H4.74L4.8-.06" fill="#ffffff" fill-rule="evenodd"/>
<path transform="matrix(1,0,0,-1,6.3549959,9.830994)" d="M0 0 4.38-.06H0" fill="#ffffff" fill-rule="evenodd"/>
<path transform="matrix(1,0,0,-1,6.3549959,9.830994)" d="M0 0H4.62L4.38-.06" fill="#ffffff" fill-rule="evenodd"/>
<path transform="matrix(1,0,0,-1,11.514999,9.890991)" d="M0 0 4.56-.06H.24" fill="#ffffff" fill-rule="evenodd"/>
<path transform="matrix(1,0,0,-1,11.514999,9.890991)" d="M0 0H4.56V-.06" fill="#ffffff" fill-rule="evenodd"/>
<path transform="matrix(1,0,0,-1,6.3549959,9.890991)" d="M0 0 4.14-.06H0" fill="#ffffff" fill-rule="evenodd"/>
<path transform="matrix(1,0,0,-1,6.3549959,9.890991)" d="M0 0H4.38L4.14-.06" fill="#ffffff" fill-rule="evenodd"/>
<path transform="matrix(1,0,0,-1,11.755005,9.950989)" d="M0 0 4.38-.18H.24" fill="#ffffff" fill-rule="evenodd"/>
<path transform="matrix(1,0,0,-1,11.755005,9.950989)" d="M0 0H4.32L4.38-.18" fill="#ffffff" fill-rule="evenodd"/>
<path transform="matrix(1,0,0,-1,6.3549959,9.950989)" d="M0 0 3.9-.18H-.06" fill="#ffffff" fill-rule="evenodd"/>
<path transform="matrix(1,0,0,-1,6.3549959,9.950989)" d="M0 0H4.14L3.9-.18" fill="#ffffff" fill-rule="evenodd"/>
<path transform="matrix(1,0,0,-1,11.994995,10.130981)" d="M0 0 4.2-.18H.18" fill="#ffffff" fill-rule="evenodd"/>
<path transform="matrix(1,0,0,-1,11.994995,10.130981)" d="M0 0H4.14L4.2-.18" fill="#ffffff" fill-rule="evenodd"/>
<path transform="matrix(1,0,0,-1,6.294998,10.130981)" d="M0 0 3.78-.18H-.06" fill="#ffffff" fill-rule="evenodd"/>
<path transform="matrix(1,0,0,-1,6.294998,10.130981)" d="M0 0H3.96L3.78-.18" fill="#ffffff" fill-rule="evenodd"/>
<path transform="matrix(1,0,0,-1,12.175003,10.310974)" d="M0 0H4.02 .06" fill="#ffffff" fill-rule="evenodd"/>
<path transform="matrix(1,0,0,-1,12.175003,10.310974)" d="M0 0H4.02" fill="#ffffff" fill-rule="evenodd"/>
<path transform="matrix(1,0,0,-1,6.2350008,10.310974)" d="M0 0H3.84" fill="#ffffff" fill-rule="evenodd"/>
<path transform="matrix(1,0,0,-1,6.2350008,10.310974)" d="M0 0H3.84" fill="#ffffff" fill-rule="evenodd"/>
<path transform="matrix(1,0,0,-1,12.235001,10.310974)" d="M0 0 3.96-.18H.12" fill="#ffffff" fill-rule="evenodd"/>
<path transform="matrix(1,0,0,-1,12.235001,10.310974)" d="M0 0H3.96V-.18" fill="#ffffff" fill-rule="evenodd"/>
<path transform="matrix(1,0,0,-1,6.2350008,10.310974)" d="M0 0 3.66-.18H0" fill="#ffffff" fill-rule="evenodd"/>
<path transform="matrix(1,0,0,-1,6.2350008,10.310974)" d="M0 0H3.84L3.66-.18" fill="#ffffff" fill-rule="evenodd"/>
<path transform="matrix(1,0,0,-1,12.354996,10.491028)" d="M0 0 3.84-.24H.12" fill="#ffffff" fill-rule="evenodd"/>
<path transform="matrix(1,0,0,-1,12.354996,10.491028)" d="M0 0H3.84V-.24" fill="#ffffff" fill-rule="evenodd"/>
<path transform="matrix(1,0,0,-1,6.2350008,10.491028)" d="M0 0 3.54-.24H-.06" fill="#ffffff" fill-rule="evenodd"/>
<path transform="matrix(1,0,0,-1,6.2350008,10.491028)" d="M0 0H3.66L3.54-.24" fill="#ffffff" fill-rule="evenodd"/>
<path transform="matrix(1,0,0,-1,12.475006,10.731018)" d="M0 0 3.78-.24H.06" fill="#ffffff" fill-rule="evenodd"/>
<path transform="matrix(1,0,0,-1,12.475006,10.731018)" d="M0 0H3.72L3.78-.24" fill="#ffffff" fill-rule="evenodd"/>
<path transform="matrix(1,0,0,-1,6.175003,10.731018)" d="M0 0 3.54-.24H0" fill="#ffffff" fill-rule="evenodd"/>
<path transform="matrix(1,0,0,-1,6.175003,10.731018)" d="M0 0H3.6L3.54-.24" fill="#ffffff" fill-rule="evenodd"/>
<path transform="matrix(1,0,0,-1,12.535004,10.971008)" d="M0 0 3.72-.3H0" fill="#ffffff" fill-rule="evenodd"/>
<path transform="matrix(1,0,0,-1,12.535004,10.971008)" d="M0 0H3.72V-.3" fill="#ffffff" fill-rule="evenodd"/>
<path transform="matrix(1,0,0,-1,6.175003,10.971008)" d="M0 0 3.54-.3H0" fill="#ffffff" fill-rule="evenodd"/>
<path transform="matrix(1,0,0,-1,6.175003,10.971008)" d="M0 0H3.54V-.3" fill="#ffffff" fill-rule="evenodd"/>
<path transform="matrix(1,0,0,-1,12.535004,11.270996)" d="M0 0 3.72-.24H0" fill="#ffffff" fill-rule="evenodd"/>
<path transform="matrix(1,0,0,-1,12.535004,11.270996)" d="M0 0H3.72V-.24" fill="#ffffff" fill-rule="evenodd"/>
<path transform="matrix(1,0,0,-1,6.175003,11.270996)" d="M0 0 3.54-.24H0" fill="#ffffff" fill-rule="evenodd"/>
<path transform="matrix(1,0,0,-1,6.175003,11.270996)" d="M0 0H3.54V-.24" fill="#ffffff" fill-rule="evenodd"/>
<path transform="matrix(1,0,0,-1,12.535004,11.510986)" d="M0 0 3.66-.24H-.06" fill="#ffffff" fill-rule="evenodd"/>
<path transform="matrix(1,0,0,-1,12.535004,11.510986)" d="M0 0H3.72L3.66-.24" fill="#ffffff" fill-rule="evenodd"/>
<path transform="matrix(1,0,0,-1,6.175003,11.510986)" d="M0 0 3.6-.24H0" fill="#ffffff" fill-rule="evenodd"/>
<path transform="matrix(1,0,0,-1,6.175003,11.510986)" d="M0 0H3.54L3.6-.24" fill="#ffffff" fill-rule="evenodd"/>
<path transform="matrix(1,0,0,-1,12.475006,11.750977)" d="M0 0 3.72-.24H-.12" fill="#ffffff" fill-rule="evenodd"/>
<path transform="matrix(1,0,0,-1,12.475006,11.750977)" d="M0 0H3.72V-.24" fill="#ffffff" fill-rule="evenodd"/>
<path transform="matrix(1,0,0,-1,6.175003,11.750977)" d="M0 0 3.72-.24H.06" fill="#ffffff" fill-rule="evenodd"/>
<path transform="matrix(1,0,0,-1,6.175003,11.750977)" d="M0 0H3.6L3.72-.24" fill="#ffffff" fill-rule="evenodd"/>
<path transform="matrix(1,0,0,-1,12.354996,11.991028)" d="M0 0 3.84-.18H-.12" fill="#ffffff" fill-rule="evenodd"/>
<path transform="matrix(1,0,0,-1,12.354996,11.991028)" d="M0 0H3.84V-.18" fill="#ffffff" fill-rule="evenodd"/>
<path transform="matrix(1,0,0,-1,6.2350008,11.991028)" d="M0 0 3.84-.18H0" fill="#ffffff" fill-rule="evenodd"/>
<path transform="matrix(1,0,0,-1,6.2350008,11.991028)" d="M0 0H3.66L3.84-.18" fill="#ffffff" fill-rule="evenodd"/>
<path transform="matrix(1,0,0,-1,12.235001,12.1710209)" d="M0 0 3.96-.06H-.06" fill="#ffffff" fill-rule="evenodd"/>
<path transform="matrix(1,0,0,-1,12.235001,12.1710209)" d="M0 0H3.96V-.06" fill="#ffffff" fill-rule="evenodd"/>
<path transform="matrix(1,0,0,-1,6.2350008,12.1710209)" d="M0 0 3.84-.06H0" fill="#ffffff" fill-rule="evenodd"/>
<path transform="matrix(1,0,0,-1,6.2350008,12.1710209)" d="M0 0H3.84V-.06" fill="#ffffff" fill-rule="evenodd"/>
<path transform="matrix(1,0,0,-1,12.175003,12.231018)" d="M0 0 3.96-.18H-.18" fill="#ffffff" fill-rule="evenodd"/>
<path transform="matrix(1,0,0,-1,12.175003,12.231018)" d="M0 0H4.02L3.96-.18" fill="#ffffff" fill-rule="evenodd"/>
<path transform="matrix(1,0,0,-1,6.2350008,12.231018)" d="M0 0 4.02-.18H.06" fill="#ffffff" fill-rule="evenodd"/>
<path transform="matrix(1,0,0,-1,6.2350008,12.231018)" d="M0 0H3.84L4.02-.18" fill="#ffffff" fill-rule="evenodd"/>
<path transform="matrix(1,0,0,-1,11.994995,12.411011)" d="M0 0 4.08-.12H-.24" fill="#ffffff" fill-rule="evenodd"/>
<path transform="matrix(1,0,0,-1,11.994995,12.411011)" d="M0 0H4.14L4.08-.12" fill="#ffffff" fill-rule="evenodd"/>
<path transform="matrix(1,0,0,-1,6.294998,12.411011)" d="M0 0 4.2-.12H.06" fill="#ffffff" fill-rule="evenodd"/>
<path transform="matrix(1,0,0,-1,6.294998,12.411011)" d="M0 0H3.96L4.2-.12" fill="#ffffff" fill-rule="evenodd"/>
<path transform="matrix(1,0,0,-1,11.755005,12.531006)" d="M0 0 4.32-.12H-.24" fill="#ffffff" fill-rule="evenodd"/>
<path transform="matrix(1,0,0,-1,11.755005,12.531006)" d="M0 0H4.32V-.12" fill="#ffffff" fill-rule="evenodd"/>
<path transform="matrix(1,0,0,-1,6.3549959,12.531006)" d="M0 0 4.38-.12H0" fill="#ffffff" fill-rule="evenodd"/>
<path transform="matrix(1,0,0,-1,6.3549959,12.531006)" d="M0 0H4.14L4.38-.12" fill="#ffffff" fill-rule="evenodd"/>
<path transform="matrix(1,0,0,-1,11.514999,12.651001)" d="M0 0H4.5-.24" fill="#ffffff" fill-rule="evenodd"/>
<path transform="matrix(1,0,0,-1,11.514999,12.651001)" d="M0 0H4.56 4.5" fill="#ffffff" fill-rule="evenodd"/>
<path transform="matrix(1,0,0,-1,6.3549959,12.651001)" d="M0 0H4.62" fill="#ffffff" fill-rule="evenodd"/>
<path transform="matrix(1,0,0,-1,6.3549959,12.651001)" d="M0 0H4.62" fill="#ffffff" fill-rule="evenodd"/>
<path transform="matrix(1,0,0,-1,6.3549959,12.651001)" d="M0 0 9.54-.42H.12" fill="#ffffff" fill-rule="evenodd"/>
<path transform="matrix(1,0,0,-1,6.3549959,12.651001)" d="M0 0H9.66L9.54-.42" fill="#ffffff" fill-rule="evenodd"/>
<path transform="matrix(1,0,0,-1,6.475006,13.070984)" d="M0 0 9.06-.84H.42" fill="#ffffff" fill-rule="evenodd"/>
<path transform="matrix(1,0,0,-1,6.475006,13.070984)" d="M0 0H9.42L9.06-.84" fill="#ffffff" fill-rule="evenodd"/>
<path transform="matrix(1,0,0,-1,6.8950045,13.911011)" d="M0 0 8.04-.78H.6" fill="#ffffff" fill-rule="evenodd"/>
<path transform="matrix(1,0,0,-1,6.8950045,13.911011)" d="M0 0H8.64L8.04-.78" fill="#ffffff" fill-rule="evenodd"/>
<path transform="matrix(1,0,0,-1,7.494995,14.690979)" d="M0 0 6.78-.6H.66" fill="#ffffff" fill-rule="evenodd"/>
<path transform="matrix(1,0,0,-1,7.494995,14.690979)" d="M0 0H7.44L6.78-.6" fill="#ffffff" fill-rule="evenodd"/>
<path transform="matrix(1,0,0,-1,8.154999,15.291016)" d="M0 0 5.28-.48H.78" fill="#ffffff" fill-rule="evenodd"/>
<path transform="matrix(1,0,0,-1,8.154999,15.291016)" d="M0 0H6.12L5.28-.48" fill="#ffffff" fill-rule="evenodd"/>
<path transform="matrix(1,0,0,-1,8.934998,15.770996)" d="M0 0 3.66-.36H.9" fill="#ffffff" fill-rule="evenodd"/>
<path transform="matrix(1,0,0,-1,8.934998,15.770996)" d="M0 0H4.5L3.66-.36" fill="#ffffff" fill-rule="evenodd"/>
<path transform="matrix(1,0,0,-1,9.835007,16.130982)" d="M0 0 1.86-.18H.9" fill="#ffffff" fill-rule="evenodd"/>
<path transform="matrix(1,0,0,-1,9.835007,16.130982)" d="M0 0H2.76L1.86-.18" fill="#ffffff" fill-rule="evenodd"/>
<path transform="matrix(1,0,0,-1,-195.125,955.25)" stroke-width=".84" stroke-linecap="round" stroke-linejoin="round" fill="none" stroke="#cd2027" d="M214.08 936.059H198.48V951.659H214.08Z"/>
<path transform="matrix(1,0,0,-1,13.975006,11.270996)" d="M0 0-.06 .78-2.82 0" fill="#cd2027" fill-rule="evenodd"/>
<path transform="matrix(1,0,0,-1,13.914993,10.491028)" d="M0 0-.3 .66-2.76-.78" fill="#cd2027" fill-rule="evenodd"/>
<path transform="matrix(1,0,0,-1,13.6150059,9.830994)" d="M0 0-.48 .6-2.46-1.44" fill="#cd2027" fill-rule="evenodd"/>
<path transform="matrix(1,0,0,-1,13.1349949,9.231018)" d="M0 0-.6 .42-1.98-2.04" fill="#cd2027" fill-rule="evenodd"/>
<path transform="matrix(1,0,0,-1,12.535004,8.810974)" d="M0 0-.66 .3-1.38-2.46" fill="#cd2027" fill-rule="evenodd"/>
<path transform="matrix(1,0,0,-1,11.875,8.510986)" d="M0 0-.72 .12V-2.76" fill="#cd2027" fill-rule="evenodd"/>
<path transform="matrix(1,0,0,-1,11.154999,8.390991)" d="M0 0-.78-.12 0-2.88" fill="#cd2027" fill-rule="evenodd"/>
<path transform="matrix(1,0,0,-1,10.375,8.510986)" d="M0 0-.66-.3 .78-2.76" fill="#cd2027" fill-rule="evenodd"/>
<path transform="matrix(1,0,0,-1,9.714996,8.810974)" d="M0 0-.6-.42 1.44-2.46" fill="#cd2027" fill-rule="evenodd"/>
<path transform="matrix(1,0,0,-1,9.1150059,9.231018)" d="M0 0-.42-.6 2.04-2.04" fill="#cd2027" fill-rule="evenodd"/>
<path transform="matrix(1,0,0,-1,8.695007,9.830994)" d="M0 0-.3-.66 2.46-1.44" fill="#cd2027" fill-rule="evenodd"/>
<path transform="matrix(1,0,0,-1,8.395004,10.491028)" d="M0 0-.12-.78H2.76" fill="#cd2027" fill-rule="evenodd"/>
<path transform="matrix(1,0,0,-1,8.274994,11.270996)" d="M0 0 .12-.72 2.88 0" fill="#cd2027" fill-rule="evenodd"/>
<path transform="matrix(1,0,0,-1,8.395004,11.991028)" d="M0 0 .3-.72 2.76 .72" fill="#cd2027" fill-rule="evenodd"/>
<path transform="matrix(1,0,0,-1,8.695007,12.710999)" d="M0 0 .42-.54 2.46 1.44" fill="#cd2027" fill-rule="evenodd"/>
<path transform="matrix(1,0,0,-1,9.1150059,13.250977)" d="M0 0 .6-.48 2.04 1.98" fill="#cd2027" fill-rule="evenodd"/>
<path transform="matrix(1,0,0,-1,9.714996,13.731018)" d="M0 0 .66-.3 1.44 2.46" fill="#cd2027" fill-rule="evenodd"/>
<path transform="matrix(1,0,0,-1,10.375,14.031006)" d="M0 0 .78-.06V2.76" fill="#cd2027" fill-rule="evenodd"/>
<path transform="matrix(1,0,0,-1,11.154999,14.091003)" d="M0 0 .72 .06 0 2.82" fill="#cd2027" fill-rule="evenodd"/>
<path transform="matrix(1,0,0,-1,11.875,14.031006)" d="M0 0 .66 .3-.72 2.76" fill="#cd2027" fill-rule="evenodd"/>
<path transform="matrix(1,0,0,-1,12.535004,13.731018)" d="M0 0 .6 .48-1.38 2.46" fill="#cd2027" fill-rule="evenodd"/>
<path transform="matrix(1,0,0,-1,13.1349949,13.250977)" d="M0 0 .48 .54-1.98 1.98" fill="#cd2027" fill-rule="evenodd"/>
<path transform="matrix(1,0,0,-1,13.6150059,12.710999)" d="M0 0 .3 .72-2.46 1.44" fill="#cd2027" fill-rule="evenodd"/>
<path transform="matrix(1,0,0,-1,13.914993,11.991028)" d="M0 0 .06 .72H-2.76" fill="#cd2027" fill-rule="evenodd"/>
<path transform="matrix(1,0,0,-1,17.035004,11.270996)" d="M0 0H-1.56L-.12 1.14" fill="#cd2027" fill-rule="evenodd"/>
<path transform="matrix(1,0,0,-1,15.475006,11.270996)" d="M0 0 1.44 1.14-.06 .84" fill="#cd2027" fill-rule="evenodd"/>
<path transform="matrix(1,0,0,-1,16.914994,10.130981)" d="M0 0-1.5-.3-.36 1.08" fill="#cd2027" fill-rule="evenodd"/>
<path transform="matrix(1,0,0,-1,15.414993,10.43103)" d="M0 0 1.14 1.38-.24 .84" fill="#cd2027" fill-rule="evenodd"/>
<path transform="matrix(1,0,0,-1,16.554993,9.051025)" d="M0 0-1.38-.54-.54 1.02" fill="#cd2027" fill-rule="evenodd"/>
<path transform="matrix(1,0,0,-1,15.175003,9.591003)" d="M0 0 .84 1.56-.42 .72" fill="#cd2027" fill-rule="evenodd"/>
<path transform="matrix(1,0,0,-1,16.015,8.031006)" d="M0 0-1.26-.84-.72 .9" fill="#cd2027" fill-rule="evenodd"/>
<path transform="matrix(1,0,0,-1,14.755005,8.870972)" d="M0 0 .54 1.74-.54 .66" fill="#cd2027" fill-rule="evenodd"/>
<path transform="matrix(1,0,0,-1,15.294998,7.1309816)" d="M0 0-1.08-1.08-.84 .72" fill="#cd2027" fill-rule="evenodd"/>
<path transform="matrix(1,0,0,-1,14.214996,8.210999)" d="M0 0 .24 1.8-.6 .54" fill="#cd2027" fill-rule="evenodd"/>
<path transform="matrix(1,0,0,-1,14.455002,6.4110109)" d="M0 0-.84-1.26-1.02 .54" fill="#cd2027" fill-rule="evenodd"/>
<path transform="matrix(1,0,0,-1,13.6150059,7.6710207)" d="M0 0-.18 1.8-.78 .36" fill="#cd2027" fill-rule="evenodd"/>
<path transform="matrix(1,0,0,-1,13.434998,5.8709719)" d="M0 0-.6-1.44-1.08 .3" fill="#cd2027" fill-rule="evenodd"/>
<path transform="matrix(1,0,0,-1,12.835007,7.310974)" d="M0 0-.48 1.74-.78 .24" fill="#cd2027" fill-rule="evenodd"/>
<path transform="matrix(1,0,0,-1,12.354996,5.570984)" d="M0 0-.3-1.5-1.14 .12" fill="#cd2027" fill-rule="evenodd"/>
<path transform="matrix(1,0,0,-1,12.054993,7.070984)" d="M0 0-.84 1.62V.12" fill="#cd2027" fill-rule="evenodd"/>
<path transform="matrix(1,0,0,-1,11.214996,5.450989)" d="M0 0V-1.5L-1.14-.12" fill="#cd2027" fill-rule="evenodd"/>
<path transform="matrix(1,0,0,-1,11.214996,6.950989)" d="M0 0-1.14 1.38-.84-.12" fill="#cd2027" fill-rule="evenodd"/>
<path transform="matrix(1,0,0,-1,10.074997,5.570984)" d="M0 0 .3-1.5-1.08-.3" fill="#cd2027" fill-rule="evenodd"/>
<path transform="matrix(1,0,0,-1,10.375,7.070984)" d="M0 0-1.38 1.2-.78-.24" fill="#cd2027" fill-rule="evenodd"/>
<path transform="matrix(1,0,0,-1,8.994995,5.8709719)" d="M0 0 .6-1.44-1.02-.54" fill="#cd2027" fill-rule="evenodd"/>
<path transform="matrix(1,0,0,-1,9.595001,7.310974)" d="M0 0-1.62 .9-.78-.36" fill="#cd2027" fill-rule="evenodd"/>
<path transform="matrix(1,0,0,-1,7.975006,6.4110109)" d="M0 0 .84-1.26-.9-.72" fill="#cd2027" fill-rule="evenodd"/>
<path transform="matrix(1,0,0,-1,8.815002,7.6710207)" d="M0 0-1.74 .54-.66-.54" fill="#cd2027" fill-rule="evenodd"/>
<path transform="matrix(1,0,0,-1,7.074997,7.1309816)" d="M0 0 1.08-1.08-.72-.9" fill="#cd2027" fill-rule="evenodd"/>
<path transform="matrix(1,0,0,-1,8.154999,8.210999)" d="M0 0-1.8 .18-.54-.66" fill="#cd2027" fill-rule="evenodd"/>
<path transform="matrix(1,0,0,-1,6.3549959,8.031006)" d="M0 0 1.26-.84-.54-1.02" fill="#cd2027" fill-rule="evenodd"/>
<path transform="matrix(1,0,0,-1,7.6150057,8.870972)" d="M0 0-1.8-.18-.36-.72" fill="#cd2027" fill-rule="evenodd"/>
<path transform="matrix(1,0,0,-1,5.8150026,9.051025)" d="M0 0 1.44-.54-.3-1.08" fill="#cd2027" fill-rule="evenodd"/>
<path transform="matrix(1,0,0,-1,7.255005,9.591003)" d="M0 0-1.74-.54-.24-.84" fill="#cd2027" fill-rule="evenodd"/>
<path transform="matrix(1,0,0,-1,5.5149996,10.130981)" d="M0 0 1.5-.3-.12-1.14" fill="#cd2027" fill-rule="evenodd"/>
<path transform="matrix(1,0,0,-1,7.0149996,10.43103)" d="M0 0-1.62-.84H-.12" fill="#cd2027" fill-rule="evenodd"/>
<path transform="matrix(1,0,0,-1,5.3950045,11.270996)" d="M0 0H1.5L.12-1.14" fill="#cd2027" fill-rule="evenodd"/>
<path transform="matrix(1,0,0,-1,6.8950045,11.270996)" d="M0 0-1.38-1.14 .12-.84" fill="#cd2027" fill-rule="evenodd"/>
<path transform="matrix(1,0,0,-1,5.5149996,12.411011)" d="M0 0 1.5 .3 .3-1.08" fill="#cd2027" fill-rule="evenodd"/>
<path transform="matrix(1,0,0,-1,7.0149996,12.111023)" d="M0 0-1.2-1.38 .24-.78" fill="#cd2027" fill-rule="evenodd"/>
<path transform="matrix(1,0,0,-1,5.8150026,13.491028)" d="M0 0 1.44 .6 .54-1.02" fill="#cd2027" fill-rule="evenodd"/>
<path transform="matrix(1,0,0,-1,7.255005,12.890991)" d="M0 0-.9-1.62 .36-.78" fill="#cd2027" fill-rule="evenodd"/>
<path transform="matrix(1,0,0,-1,6.3549959,14.510986)" d="M0 0 1.26 .84 .72-.84" fill="#cd2027" fill-rule="evenodd"/>
<path transform="matrix(1,0,0,-1,7.6150057,13.6710209)" d="M0 0-.54-1.68 .54-.6" fill="#cd2027" fill-rule="evenodd"/>
<path transform="matrix(1,0,0,-1,7.074997,15.351013)" d="M0 0 1.08 1.08 .9-.72" fill="#cd2027" fill-rule="evenodd"/>
<path transform="matrix(1,0,0,-1,8.154999,14.270996)" d="M0 0-.18-1.8 .66-.54" fill="#cd2027" fill-rule="evenodd"/>
<path transform="matrix(1,0,0,-1,7.975006,16.070984)" d="M0 0 .84 1.26 1.02-.54" fill="#cd2027" fill-rule="evenodd"/>
<path transform="matrix(1,0,0,-1,8.815002,14.810974)" d="M0 0 .18-1.8 .78-.42" fill="#cd2027" fill-rule="evenodd"/>
<path transform="matrix(1,0,0,-1,8.994995,16.611023)" d="M0 0 .6 1.38 1.08-.36" fill="#cd2027" fill-rule="evenodd"/>
<path transform="matrix(1,0,0,-1,9.595001,15.231018)" d="M0 0 .48-1.74 .78-.24" fill="#cd2027" fill-rule="evenodd"/>
<path transform="matrix(1,0,0,-1,10.074997,16.971009)" d="M0 0 .3 1.5 1.14-.12" fill="#cd2027" fill-rule="evenodd"/>
<path transform="matrix(1,0,0,-1,10.375,15.471008)" d="M0 0 .84-1.62V-.06" fill="#cd2027" fill-rule="evenodd"/>
<path transform="matrix(1,0,0,-1,11.214996,17.091004)" d="M0 0V1.56L1.14 .12" fill="#cd2027" fill-rule="evenodd"/>
<path transform="matrix(1,0,0,-1,11.214996,15.531006)" d="M0 0 1.14-1.44 .84 .06" fill="#cd2027" fill-rule="evenodd"/>
<path transform="matrix(1,0,0,-1,12.354996,16.971009)" d="M0 0-.3 1.5 1.08 .36" fill="#cd2027" fill-rule="evenodd"/>
<path transform="matrix(1,0,0,-1,12.054993,15.471008)" d="M0 0 1.38-1.14 .78 .24" fill="#cd2027" fill-rule="evenodd"/>
<path transform="matrix(1,0,0,-1,13.434998,16.611023)" d="M0 0-.6 1.38 1.02 .54" fill="#cd2027" fill-rule="evenodd"/>
<path transform="matrix(1,0,0,-1,12.835007,15.231018)" d="M0 0 1.62-.84 .78 .42" fill="#cd2027" fill-rule="evenodd"/>
<path transform="matrix(1,0,0,-1,14.455002,16.070984)" d="M0 0-.84 1.26 .84 .72" fill="#cd2027" fill-rule="evenodd"/>
<path transform="matrix(1,0,0,-1,13.6150059,14.810974)" d="M0 0 1.68-.54 .6 .54" fill="#cd2027" fill-rule="evenodd"/>
<path transform="matrix(1,0,0,-1,15.294998,15.351013)" d="M0 0-1.08 1.08 .72 .84" fill="#cd2027" fill-rule="evenodd"/>
<path transform="matrix(1,0,0,-1,14.214996,14.270996)" d="M0 0 1.8-.24 .54 .6" fill="#cd2027" fill-rule="evenodd"/>
<path transform="matrix(1,0,0,-1,16.015,14.510986)" d="M0 0-1.26 .84 .54 1.02" fill="#cd2027" fill-rule="evenodd"/>
<path transform="matrix(1,0,0,-1,14.755005,13.6710209)" d="M0 0 1.8 .18 .42 .78" fill="#cd2027" fill-rule="evenodd"/>
<path transform="matrix(1,0,0,-1,16.554993,13.491028)" d="M0 0-1.38 .6 .36 1.08" fill="#cd2027" fill-rule="evenodd"/>
<path transform="matrix(1,0,0,-1,15.175003,12.890991)" d="M0 0 1.74 .48 .24 .78" fill="#cd2027" fill-rule="evenodd"/>
<path transform="matrix(1,0,0,-1,16.914994,12.411011)" d="M0 0-1.5 .3 .12 1.14" fill="#cd2027" fill-rule="evenodd"/>
<path transform="matrix(1,0,0,-1,15.414993,12.111023)" d="M0 0 1.62 .84H.06" fill="#cd2027" fill-rule="evenodd"/>
</g>
</g>
</svg>
