<svg xmlns="http://www.w3.org/2000/svg" xmlns:xlink="http://www.w3.org/1999/xlink" xmlns:inkscape="http://www.inkscape.org/namespaces/inkscape" version="1.1" width="22.75" height="16" viewBox="0 0 22.75 16">
<defs>
<clipPath id="clip_1">
<path transform="matrix(1,0,0,-1,-194.375,517.25)" d="M196.375 503.25H215.125V515.25H196.375Z"/>
</clipPath>
<clipPath id="clip_2">
<path transform="matrix(1,0,0,-1,-194.375,517.25)" d="M196.375 515.25V503.25H215.125V515.25Z" clip-rule="evenodd"/>
</clipPath>
</defs>
<g clip-path="url(#clip_1)">
<g clip-path="url(#clip_2)">
<path transform="matrix(1,0,0,-1,10.764999,4.7910158)" d="M0 0 2.64-.24H-1.32" fill="#cd2027" fill-rule="evenodd"/>
<path transform="matrix(1,0,0,-1,10.764999,4.7910158)" d="M0 0H1.32L2.64-.24" fill="#cd2027" fill-rule="evenodd"/>
<path transform="matrix(1,0,0,-1,9.445007,5.031006)" d="M0 0 5.28-.42H-1.26" fill="#cd2027" fill-rule="evenodd"/>
<path transform="matrix(1,0,0,-1,9.445007,5.031006)" d="M0 0H3.96L5.28-.42" fill="#cd2027" fill-rule="evenodd"/>
<path transform="matrix(1,0,0,-1,8.184998,5.450989)" d="M0 0 7.68-.6H-1.14" fill="#cd2027" fill-rule="evenodd"/>
<path transform="matrix(1,0,0,-1,8.184998,5.450989)" d="M0 0H6.54L7.68-.6" fill="#cd2027" fill-rule="evenodd"/>
<path transform="matrix(1,0,0,-1,7.044998,6.050995)" d="M0 0 9.9-.84H-1.08" fill="#cd2027" fill-rule="evenodd"/>
<path transform="matrix(1,0,0,-1,7.044998,6.050995)" d="M0 0H8.82L9.9-.84" fill="#cd2027" fill-rule="evenodd"/>
<path transform="matrix(1,0,0,-1,5.9649965,6.890991)" d="M0 0 11.88-.96H-.9" fill="#cd2027" fill-rule="evenodd"/>
<path transform="matrix(1,0,0,-1,5.9649965,6.890991)" d="M0 0H10.98L11.88-.96" fill="#cd2027" fill-rule="evenodd"/>
<path transform="matrix(1,0,0,-1,5.0650026,7.851013)" d="M0 0 13.56-1.08H-.78" fill="#cd2027" fill-rule="evenodd"/>
<path transform="matrix(1,0,0,-1,5.0650026,7.851013)" d="M0 0H12.78L13.56-1.08" fill="#cd2027" fill-rule="evenodd"/>
<path transform="matrix(1,0,0,-1,4.2850039,8.931)" d="M0 0 14.88-1.26H-.54" fill="#cd2027" fill-rule="evenodd"/>
<path transform="matrix(1,0,0,-1,4.2850039,8.931)" d="M0 0H14.34L14.88-1.26" fill="#cd2027" fill-rule="evenodd"/>
<path transform="matrix(1,0,0,-1,3.744995,10.1910099)" d="M0 0 15.78-1.26H-.36" fill="#cd2027" fill-rule="evenodd"/>
<path transform="matrix(1,0,0,-1,3.744995,10.1910099)" d="M0 0H15.42L15.78-1.26" fill="#cd2027" fill-rule="evenodd"/>
<path transform="matrix(1,0,0,-1,3.3849946,11.450989)" d="M0 0 16.26-1.32H-.18" fill="#cd2027" fill-rule="evenodd"/>
<path transform="matrix(1,0,0,-1,3.3849946,11.450989)" d="M0 0H16.14L16.26-1.32" fill="#cd2027" fill-rule="evenodd"/>
<path transform="matrix(1,0,0,-1,19.585007,12.830994)" stroke-width=".72" stroke-linecap="round" stroke-linejoin="bevel" fill="none" stroke="#cd2027" d="M0 0-.12 1.08C-1.684 10.25-14.636 10.25-16.2 1.08L-16.32 0"/>
</g>
</g>
</svg>
