<svg xmlns="http://www.w3.org/2000/svg" xmlns:xlink="http://www.w3.org/1999/xlink" xmlns:inkscape="http://www.inkscape.org/namespaces/inkscape" version="1.1" width="22" height="22" viewBox="0 0 22 22">
<defs>
<clipPath id="clip_1">
<path transform="matrix(1,0,0,-1,-195.125,930.5)" d="M197.125 910.5H215.125V928.5H197.125Z"/>
</clipPath>
<clipPath id="clip_2">
<path transform="matrix(1,0,0,-1,-195.125,930.5)" d="M197.125 928.5V910.5H215.125V928.5Z" clip-rule="evenodd"/>
</clipPath>
</defs>
<g clip-path="url(#clip_1)">
<g clip-path="url(#clip_2)">
<path transform="matrix(1,0,0,-1,3.3549958,3.320984)" d="M0 0 15.54-15.6H0" fill="#007b4e" fill-rule="evenodd"/>
<path transform="matrix(1,0,0,-1,3.3549958,3.320984)" d="M0 0H15.54V-15.6" fill="#007b4e" fill-rule="evenodd"/>
<path transform="matrix(1,0,0,-1,-195.125,930.5)" stroke-width=".84" stroke-linecap="round" stroke-linejoin="round" fill="none" stroke="#007b4e" d="M214.02 911.579H198.48001V927.17898H214.02Z"/>
<path transform="matrix(1,0,0,-1,7.5549929,7.5809938)" d="M0 0 7.08-7.08H0" fill="#ffffff" fill-rule="evenodd"/>
<path transform="matrix(1,0,0,-1,7.5549929,7.5809938)" d="M0 0H7.08V-7.08" fill="#ffffff" fill-rule="evenodd"/>
<path transform="matrix(1,0,0,-1,-195.125,930.5)" stroke-width=".72" stroke-linecap="round" stroke-linejoin="round" fill="none" stroke="#007b4e" d="M202.68 922.919H209.76V915.839H202.68Z"/>
</g>
</g>
</svg>
