<svg xmlns="http://www.w3.org/2000/svg" xmlns:xlink="http://www.w3.org/1999/xlink" xmlns:inkscape="http://www.inkscape.org/namespaces/inkscape" version="1.1" width="20.0511" height="21.7188" viewBox="0 0 20.0511 21.7188">
<defs>
<clipPath id="clip_1">
<path transform="matrix(1,0,0,-1,-465.4816,738.7747)" d="M467.4816 719.0559H483.5327V736.7747H467.4816Z"/>
</clipPath>
<clipPath id="clip_2">
<path transform="matrix(1,0,0,-1,-465.4816,738.7747)" d="M467.4816 736.7747V719.0559H483.5327V736.7747Z" clip-rule="evenodd"/>
</clipPath>
</defs>
<g clip-path="url(#clip_1)">
<g clip-path="url(#clip_2)">
<path transform="matrix(1,0,0,-1,4.9783937,8.035706)" d="M0 0 9.72-.96H0" fill="#ffffff" fill-rule="evenodd"/>
<path transform="matrix(1,0,0,-1,4.9783937,8.035706)" d="M0 0H9.72V-.96" fill="#ffffff" fill-rule="evenodd"/>
<path transform="matrix(1,0,0,-1,7.678406,8.995728)" d="M0 0 1.62-.54H0" fill="#ffffff" fill-rule="evenodd"/>
<path transform="matrix(1,0,0,-1,7.678406,8.995728)" d="M0 0H1.62V-.54" fill="#ffffff" fill-rule="evenodd"/>
<path transform="matrix(1,0,0,-1,7.678406,9.535706)" d="M0 0 1.62-.06H0" fill="#ffffff" fill-rule="evenodd"/>
<path transform="matrix(1,0,0,-1,7.678406,9.535706)" d="M0 0H1.62V-.06" fill="#ffffff" fill-rule="evenodd"/>
<path transform="matrix(1,0,0,-1,10.0784,8.995728)" d="M0 0 .66-.66H0" fill="#ffffff" fill-rule="evenodd"/>
<path transform="matrix(1,0,0,-1,10.0784,8.995728)" d="M0 0H.66V-.66" fill="#ffffff" fill-rule="evenodd"/>
<path transform="matrix(1,0,0,-1,4.9783937,8.995728)" d="M0 0 1.86-.66H0" fill="#ffffff" fill-rule="evenodd"/>
<path transform="matrix(1,0,0,-1,4.9783937,8.995728)" d="M0 0H1.86V-.66" fill="#ffffff" fill-rule="evenodd"/>
<path transform="matrix(1,0,0,-1,13.138397,8.995728)" d="M0 0 1.56-.66H0" fill="#ffffff" fill-rule="evenodd"/>
<path transform="matrix(1,0,0,-1,13.138397,8.995728)" d="M0 0H1.56V-.66" fill="#ffffff" fill-rule="evenodd"/>
<path transform="matrix(1,0,0,-1,10.0784,9.655701)" d="M0 0H.66" fill="#ffffff" fill-rule="evenodd"/>
<path transform="matrix(1,0,0,-1,10.0784,9.655701)" d="M0 0H.66" fill="#ffffff" fill-rule="evenodd"/>
<path transform="matrix(1,0,0,-1,7.678406,9.595703)" d="M0 0 1.62-.6H0" fill="#ffffff" fill-rule="evenodd"/>
<path transform="matrix(1,0,0,-1,7.678406,9.595703)" d="M0 0H1.62V-.6" fill="#ffffff" fill-rule="evenodd"/>
<path transform="matrix(1,0,0,-1,10.0784,9.655701)" d="M0 0 1.44-.72H0" fill="#ffffff" fill-rule="evenodd"/>
<path transform="matrix(1,0,0,-1,10.0784,9.655701)" d="M0 0H1.44V-.72" fill="#ffffff" fill-rule="evenodd"/>
<path transform="matrix(1,0,0,-1,4.9783937,9.655701)" d="M0 0 1.86-.72H0" fill="#ffffff" fill-rule="evenodd"/>
<path transform="matrix(1,0,0,-1,4.9783937,9.655701)" d="M0 0H1.86V-.72" fill="#ffffff" fill-rule="evenodd"/>
<path transform="matrix(1,0,0,-1,7.678406,10.19574)" d="M0 0 1.62-.6H0" fill="#ffffff" fill-rule="evenodd"/>
<path transform="matrix(1,0,0,-1,7.678406,10.19574)" d="M0 0H1.62V-.6" fill="#ffffff" fill-rule="evenodd"/>
<path transform="matrix(1,0,0,-1,10.0784,10.375732)" d="M0 0 1.44-.66H0" fill="#ffffff" fill-rule="evenodd"/>
<path transform="matrix(1,0,0,-1,10.0784,10.375732)" d="M0 0H1.44V-.66" fill="#ffffff" fill-rule="evenodd"/>
<path transform="matrix(1,0,0,-1,4.9783937,10.375732)" d="M0 0 1.86-.66H0" fill="#ffffff" fill-rule="evenodd"/>
<path transform="matrix(1,0,0,-1,4.9783937,10.375732)" d="M0 0H1.86V-.66" fill="#ffffff" fill-rule="evenodd"/>
<path transform="matrix(1,0,0,-1,7.678406,10.795715)" d="M0 0 1.62-.66H0" fill="#ffffff" fill-rule="evenodd"/>
<path transform="matrix(1,0,0,-1,7.678406,10.795715)" d="M0 0H1.62V-.66" fill="#ffffff" fill-rule="evenodd"/>
<path transform="matrix(1,0,0,-1,7.678406,11.4557499)" d="M0 0 1.62-.24H0" fill="#ffffff" fill-rule="evenodd"/>
<path transform="matrix(1,0,0,-1,7.678406,11.4557499)" d="M0 0H1.62V-.24" fill="#ffffff" fill-rule="evenodd"/>
<path transform="matrix(1,0,0,-1,10.0784,11.035706)" d="M0 0 1.44-.72H0" fill="#ffffff" fill-rule="evenodd"/>
<path transform="matrix(1,0,0,-1,10.0784,11.035706)" d="M0 0H1.44V-.72" fill="#ffffff" fill-rule="evenodd"/>
<path transform="matrix(1,0,0,-1,4.9783937,11.035706)" d="M0 0 1.86-.72H0" fill="#ffffff" fill-rule="evenodd"/>
<path transform="matrix(1,0,0,-1,4.9783937,11.035706)" d="M0 0H1.86V-.72" fill="#ffffff" fill-rule="evenodd"/>
<path transform="matrix(1,0,0,-1,7.678406,11.69574)" d="M0 0 1.56-.24H0" fill="#ffffff" fill-rule="evenodd"/>
<path transform="matrix(1,0,0,-1,7.678406,11.69574)" d="M0 0H1.62L1.56-.24" fill="#ffffff" fill-rule="evenodd"/>
<path transform="matrix(1,0,0,-1,7.678406,11.93573)" d="M0 0 1.44-.24H.18" fill="#ffffff" fill-rule="evenodd"/>
<path transform="matrix(1,0,0,-1,7.678406,11.93573)" d="M0 0H1.56L1.44-.24" fill="#ffffff" fill-rule="evenodd"/>
<path transform="matrix(1,0,0,-1,10.0784,11.755737)" d="M0 0 1.44-.48H-.06" fill="#ffffff" fill-rule="evenodd"/>
<path transform="matrix(1,0,0,-1,10.0784,11.755737)" d="M0 0H1.44V-.48" fill="#ffffff" fill-rule="evenodd"/>
<path transform="matrix(1,0,0,-1,4.9783937,11.755737)" d="M0 0 1.92-.48H0" fill="#ffffff" fill-rule="evenodd"/>
<path transform="matrix(1,0,0,-1,4.9783937,11.755737)" d="M0 0H1.86L1.92-.48" fill="#ffffff" fill-rule="evenodd"/>
<path transform="matrix(1,0,0,-1,8.098389,12.355713)" d="M0 0H.78L.36-.06" fill="#ffffff" fill-rule="evenodd"/>
<path transform="matrix(1,0,0,-1,7.8583986,12.17572)" d="M0 0 1.02-.18H.24" fill="#ffffff" fill-rule="evenodd"/>
<path transform="matrix(1,0,0,-1,7.8583986,12.17572)" d="M0 0H1.26L1.02-.18" fill="#ffffff" fill-rule="evenodd"/>
<path transform="matrix(1,0,0,-1,10.018402,12.235718)" d="M0 0 1.5-.36H-.24" fill="#ffffff" fill-rule="evenodd"/>
<path transform="matrix(1,0,0,-1,10.018402,12.235718)" d="M0 0H1.5V-.36" fill="#ffffff" fill-rule="evenodd"/>
<path transform="matrix(1,0,0,-1,4.9783937,12.235718)" d="M0 0 2.16-.36H0" fill="#ffffff" fill-rule="evenodd"/>
<path transform="matrix(1,0,0,-1,4.9783937,12.235718)" d="M0 0H1.92L2.16-.36" fill="#ffffff" fill-rule="evenodd"/>
<path transform="matrix(1,0,0,-1,9.778412,12.595703)" d="M0 0 1.74-.3H-.36" fill="#ffffff" fill-rule="evenodd"/>
<path transform="matrix(1,0,0,-1,9.778412,12.595703)" d="M0 0H1.74V-.3" fill="#ffffff" fill-rule="evenodd"/>
<path transform="matrix(1,0,0,-1,4.9783937,12.595703)" d="M0 0 2.52-.3H0" fill="#ffffff" fill-rule="evenodd"/>
<path transform="matrix(1,0,0,-1,4.9783937,12.595703)" d="M0 0H2.16L2.52-.3" fill="#ffffff" fill-rule="evenodd"/>
<path transform="matrix(1,0,0,-1,9.418396,12.895691)" d="M0 0 2.1-.18H-.48" fill="#ffffff" fill-rule="evenodd"/>
<path transform="matrix(1,0,0,-1,9.418396,12.895691)" d="M0 0H2.1V-.18" fill="#ffffff" fill-rule="evenodd"/>
<path transform="matrix(1,0,0,-1,4.9783937,12.895691)" d="M0 0 3-.18H0" fill="#ffffff" fill-rule="evenodd"/>
<path transform="matrix(1,0,0,-1,4.9783937,12.895691)" d="M0 0H2.52L3-.18" fill="#ffffff" fill-rule="evenodd"/>
<path transform="matrix(1,0,0,-1,12.358398,9.655701)" d="M0 0 2.34-3.48H0" fill="#ffffff" fill-rule="evenodd"/>
<path transform="matrix(1,0,0,-1,12.358398,9.655701)" d="M0 0H2.34V-3.48" fill="#ffffff" fill-rule="evenodd"/>
<path transform="matrix(1,0,0,-1,8.938416,13.075745)" d="M0 0 2.58-.06H-.48" fill="#ffffff" fill-rule="evenodd"/>
<path transform="matrix(1,0,0,-1,8.938416,13.075745)" d="M0 0H2.58V-.06" fill="#ffffff" fill-rule="evenodd"/>
<path transform="matrix(1,0,0,-1,4.9783937,13.075745)" d="M0 0 3.48-.06H0" fill="#ffffff" fill-rule="evenodd"/>
<path transform="matrix(1,0,0,-1,4.9783937,13.075745)" d="M0 0H3L3.48-.06" fill="#ffffff" fill-rule="evenodd"/>
<path transform="matrix(1,0,0,-1,4.9783937,13.135742)" d="M0 0 9.72-1.02H0" fill="#ffffff" fill-rule="evenodd"/>
<path transform="matrix(1,0,0,-1,4.9783937,13.135742)" d="M0 0H9.72V-1.02" fill="#ffffff" fill-rule="evenodd"/>
<path transform="matrix(1,0,0,-1,9.298401,8.995728)" d="M0 0 .78-.54H0" fill="#0000ff" fill-rule="evenodd"/>
<path transform="matrix(1,0,0,-1,9.298401,8.995728)" d="M0 0H.78V-.54" fill="#0000ff" fill-rule="evenodd"/>
<path transform="matrix(1,0,0,-1,6.8384096,8.995728)" d="M0 0 .84-.6H0" fill="#0000ff" fill-rule="evenodd"/>
<path transform="matrix(1,0,0,-1,6.8384096,8.995728)" d="M0 0H.84V-.6" fill="#0000ff" fill-rule="evenodd"/>
<path transform="matrix(1,0,0,-1,9.298401,9.535706)" d="M0 0 .78-.12H0" fill="#0000ff" fill-rule="evenodd"/>
<path transform="matrix(1,0,0,-1,9.298401,9.535706)" d="M0 0H.78V-.12" fill="#0000ff" fill-rule="evenodd"/>
<path transform="matrix(1,0,0,-1,6.8384096,9.595703)" d="M0 0 .84-.06H0" fill="#0000ff" fill-rule="evenodd"/>
<path transform="matrix(1,0,0,-1,6.8384096,9.595703)" d="M0 0H.84V-.06" fill="#0000ff" fill-rule="evenodd"/>
<path transform="matrix(1,0,0,-1,10.738403,8.995728)" d="M0 0 2.4-.66H0" fill="#0000ff" fill-rule="evenodd"/>
<path transform="matrix(1,0,0,-1,10.738403,8.995728)" d="M0 0H2.4V-.66" fill="#0000ff" fill-rule="evenodd"/>
<path transform="matrix(1,0,0,-1,9.298401,9.655701)" d="M0 0 .78-.54H0" fill="#0000ff" fill-rule="evenodd"/>
<path transform="matrix(1,0,0,-1,9.298401,9.655701)" d="M0 0H.78V-.54" fill="#0000ff" fill-rule="evenodd"/>
<path transform="matrix(1,0,0,-1,6.8384096,9.655701)" d="M0 0 .84-.54H0" fill="#0000ff" fill-rule="evenodd"/>
<path transform="matrix(1,0,0,-1,6.8384096,9.655701)" d="M0 0H.84V-.54" fill="#0000ff" fill-rule="evenodd"/>
<path transform="matrix(1,0,0,-1,9.298401,10.19574)" d="M0 0 .78-.18H0" fill="#0000ff" fill-rule="evenodd"/>
<path transform="matrix(1,0,0,-1,9.298401,10.19574)" d="M0 0H.78V-.18" fill="#0000ff" fill-rule="evenodd"/>
<path transform="matrix(1,0,0,-1,6.8384096,10.19574)" d="M0 0 .84-.18H0" fill="#0000ff" fill-rule="evenodd"/>
<path transform="matrix(1,0,0,-1,6.8384096,10.19574)" d="M0 0H.84V-.18" fill="#0000ff" fill-rule="evenodd"/>
<path transform="matrix(1,0,0,-1,9.298401,10.375732)" d="M0 0 .78-.42H0" fill="#0000ff" fill-rule="evenodd"/>
<path transform="matrix(1,0,0,-1,9.298401,10.375732)" d="M0 0H.78V-.42" fill="#0000ff" fill-rule="evenodd"/>
<path transform="matrix(1,0,0,-1,6.8384096,10.375732)" d="M0 0 .84-.42H0" fill="#0000ff" fill-rule="evenodd"/>
<path transform="matrix(1,0,0,-1,6.8384096,10.375732)" d="M0 0H.84V-.42" fill="#0000ff" fill-rule="evenodd"/>
<path transform="matrix(1,0,0,-1,9.298401,10.795715)" d="M0 0 .78-.24H0" fill="#0000ff" fill-rule="evenodd"/>
<path transform="matrix(1,0,0,-1,9.298401,10.795715)" d="M0 0H.78V-.24" fill="#0000ff" fill-rule="evenodd"/>
<path transform="matrix(1,0,0,-1,6.8384096,10.795715)" d="M0 0 .84-.24H0" fill="#0000ff" fill-rule="evenodd"/>
<path transform="matrix(1,0,0,-1,6.8384096,10.795715)" d="M0 0H.84V-.24" fill="#0000ff" fill-rule="evenodd"/>
<path transform="matrix(1,0,0,-1,9.298401,11.035706)" d="M0 0 .78-.42H0" fill="#0000ff" fill-rule="evenodd"/>
<path transform="matrix(1,0,0,-1,9.298401,11.035706)" d="M0 0H.78V-.42" fill="#0000ff" fill-rule="evenodd"/>
<path transform="matrix(1,0,0,-1,6.8384096,11.035706)" d="M0 0 .84-.42H0" fill="#0000ff" fill-rule="evenodd"/>
<path transform="matrix(1,0,0,-1,6.8384096,11.035706)" d="M0 0H.84V-.42" fill="#0000ff" fill-rule="evenodd"/>
<path transform="matrix(1,0,0,-1,9.298401,11.4557499)" d="M0 0 .78-.24H0" fill="#0000ff" fill-rule="evenodd"/>
<path transform="matrix(1,0,0,-1,9.298401,11.4557499)" d="M0 0H.78V-.24" fill="#0000ff" fill-rule="evenodd"/>
<path transform="matrix(1,0,0,-1,6.8384096,11.4557499)" d="M0 0 .84-.24H0" fill="#0000ff" fill-rule="evenodd"/>
<path transform="matrix(1,0,0,-1,6.8384096,11.4557499)" d="M0 0H.84V-.24" fill="#0000ff" fill-rule="evenodd"/>
<path transform="matrix(1,0,0,-1,9.298401,11.69574)" d="M0 0 .78-.06H0" fill="#0000ff" fill-rule="evenodd"/>
<path transform="matrix(1,0,0,-1,9.298401,11.69574)" d="M0 0H.78V-.06" fill="#0000ff" fill-rule="evenodd"/>
<path transform="matrix(1,0,0,-1,6.8384096,11.69574)" d="M0 0 .84-.06H0" fill="#0000ff" fill-rule="evenodd"/>
<path transform="matrix(1,0,0,-1,6.8384096,11.69574)" d="M0 0H.84V-.06" fill="#0000ff" fill-rule="evenodd"/>
<path transform="matrix(1,0,0,-1,9.298401,11.755737)" d="M0 0 .72-.18H-.06" fill="#0000ff" fill-rule="evenodd"/>
<path transform="matrix(1,0,0,-1,9.298401,11.755737)" d="M0 0H.78L.72-.18" fill="#0000ff" fill-rule="evenodd"/>
<path transform="matrix(1,0,0,-1,6.8384096,11.755737)" d="M0 0 .84-.18H0" fill="#0000ff" fill-rule="evenodd"/>
<path transform="matrix(1,0,0,-1,6.8384096,11.755737)" d="M0 0H.84V-.18" fill="#0000ff" fill-rule="evenodd"/>
<path transform="matrix(1,0,0,-1,9.238403,11.93573)" d="M0 0 .78-.24H-.12" fill="#0000ff" fill-rule="evenodd"/>
<path transform="matrix(1,0,0,-1,9.238403,11.93573)" d="M0 0H.78V-.24" fill="#0000ff" fill-rule="evenodd"/>
<path transform="matrix(1,0,0,-1,6.8384096,11.93573)" d="M0 0 1.02-.24H.06" fill="#0000ff" fill-rule="evenodd"/>
<path transform="matrix(1,0,0,-1,6.8384096,11.93573)" d="M0 0H.84L1.02-.24" fill="#0000ff" fill-rule="evenodd"/>
<path transform="matrix(1,0,0,-1,9.118408,12.17572)" d="M0 0 .9-.06H-.06" fill="#0000ff" fill-rule="evenodd"/>
<path transform="matrix(1,0,0,-1,9.118408,12.17572)" d="M0 0H.9V-.06" fill="#0000ff" fill-rule="evenodd"/>
<path transform="matrix(1,0,0,-1,6.898407,12.17572)" d="M0 0 1.02-.06H0" fill="#0000ff" fill-rule="evenodd"/>
<path transform="matrix(1,0,0,-1,6.898407,12.17572)" d="M0 0H.96L1.02-.06" fill="#0000ff" fill-rule="evenodd"/>
<path transform="matrix(1,0,0,-1,9.058411,12.235718)" d="M0 0 .84-.12H-.18" fill="#0000ff" fill-rule="evenodd"/>
<path transform="matrix(1,0,0,-1,9.058411,12.235718)" d="M0 0H.96L.84-.12" fill="#0000ff" fill-rule="evenodd"/>
<path transform="matrix(1,0,0,-1,6.898407,12.235718)" d="M0 0 1.2-.12H.12" fill="#0000ff" fill-rule="evenodd"/>
<path transform="matrix(1,0,0,-1,6.898407,12.235718)" d="M0 0H1.02L1.2-.12" fill="#0000ff" fill-rule="evenodd"/>
<path transform="matrix(1,0,0,-1,8.878387,12.355713)" d="M0 0 1.02-.06H-.42" fill="#0000ff" fill-rule="evenodd"/>
<path transform="matrix(1,0,0,-1,8.878387,12.355713)" d="M0 0H1.02V-.06" fill="#0000ff" fill-rule="evenodd"/>
<path transform="matrix(1,0,0,-1,7.018402,12.355713)" d="M0 0 1.44-.06H.06" fill="#0000ff" fill-rule="evenodd"/>
<path transform="matrix(1,0,0,-1,7.018402,12.355713)" d="M0 0H1.08L1.44-.06" fill="#0000ff" fill-rule="evenodd"/>
<path transform="matrix(1,0,0,-1,7.0783998,12.41571)" d="M0 0 2.7-.18H.06" fill="#0000ff" fill-rule="evenodd"/>
<path transform="matrix(1,0,0,-1,7.0783998,12.41571)" d="M0 0H2.82L2.7-.18" fill="#0000ff" fill-rule="evenodd"/>
<path transform="matrix(1,0,0,-1,7.138397,12.595703)" d="M0 0 2.28-.3H.36" fill="#0000ff" fill-rule="evenodd"/>
<path transform="matrix(1,0,0,-1,7.138397,12.595703)" d="M0 0H2.64L2.28-.3" fill="#0000ff" fill-rule="evenodd"/>
<path transform="matrix(1,0,0,-1,7.9783937,13.075745)" d="M0 0H.96L.48-.06" fill="#0000ff" fill-rule="evenodd"/>
<path transform="matrix(1,0,0,-1,7.498413,12.895691)" d="M0 0 1.44-.18H.48" fill="#0000ff" fill-rule="evenodd"/>
<path transform="matrix(1,0,0,-1,7.498413,12.895691)" d="M0 0H1.92L1.44-.18" fill="#0000ff" fill-rule="evenodd"/>
<path transform="matrix(1,0,0,-1,11.518402,9.655701)" d="M0 0 .84-3.48H0" fill="#0000ff" fill-rule="evenodd"/>
<path transform="matrix(1,0,0,-1,11.518402,9.655701)" d="M0 0H.84V-3.48" fill="#0000ff" fill-rule="evenodd"/>
<path transform="matrix(1,0,0,-1,7.678406,10.19574)" stroke-width=".72" stroke-linecap="round" stroke-linejoin="round" fill="none" stroke="#0000ff" d="M0 0V1.2H-.84V-.18C-.76-1.432-1.245-2.425 .3-2.88L.78-2.94 1.26-2.88C2.805-2.425 2.32-1.432 2.4-.18V1.2H1.62V-1.5L1.56-1.74 1.44-1.98 1.2-2.16 .78-2.22C.201-2.201-.097-1.846 0-1.26V0Z"/>
<path transform="matrix(1,0,0,-1,10.738405,9.65574)" stroke-width=".72" stroke-linecap="round" stroke-linejoin="round" fill="none" stroke="#0000ff" d="M0 0V.66H2.4"/>
<path transform="matrix(1,0,0,-1,10.738405,9.65574)" stroke-width=".72" stroke-linecap="round" stroke-linejoin="round" fill="none" stroke="#0000ff" d="M0 0H.78"/>
<path transform="matrix(1,0,0,-1,12.358405,9.65574)" stroke-width=".72" stroke-linecap="round" stroke-linejoin="round" fill="none" stroke="#0000ff" d="M0 0H.78V.66"/>
<path transform="matrix(1,0,0,-1,12.358405,9.65574)" stroke-width=".72" stroke-linecap="round" stroke-linejoin="round" fill="none" stroke="#0000ff" d="M0 0V-3.48"/>
<path transform="matrix(1,0,0,-1,11.518405,9.65574)" stroke-width=".72" stroke-linecap="round" stroke-linejoin="round" fill="none" stroke="#0000ff" d="M0 0V-3.48H.84"/>
<path transform="matrix(1,0,0,-1,14.698395,14.155701)" stroke-width="1.14" stroke-linecap="round" stroke-linejoin="round" fill="none" stroke="#0000ff" d="M-9.72 0H0V6.12H-9.72Z"/>
<path transform="matrix(1,0,0,-1,10.858395,3.0557004)" stroke-width="1.14" stroke-linecap="round" stroke-linejoin="round" fill="none" stroke="#0000ff" d="M0 0ZM0 0 6.36-2.1 0-3.96"/>
<path transform="matrix(1,0,0,-1,2.9983946,5.1557)" stroke-width="1.14" stroke-linecap="round" stroke-linejoin="round" fill="none" stroke="#0000ff" d="M0 0H14.22"/>
<path transform="matrix(1,0,0,-1,10.858395,14.935699)" stroke-width="1.14" stroke-linecap="round" stroke-linejoin="round" fill="none" stroke="#0000ff" d="M0 0 6.36-2.1 0-4.02"/>
<path transform="matrix(1,0,0,-1,2.9983946,17.0357)" stroke-width="1.14" stroke-linecap="round" stroke-linejoin="round" fill="none" stroke="#0000ff" d="M0 0H14.22"/>
</g>
</g>
</svg>
