<svg xmlns="http://www.w3.org/2000/svg" xmlns:xlink="http://www.w3.org/1999/xlink" xmlns:inkscape="http://www.inkscape.org/namespaces/inkscape" version="1.1" width="15.2566" height="11.9212" viewBox="0 0 15.2566 11.9212">
<defs>
<clipPath id="clip_1">
<path transform="matrix(1,0,0,-1,-491.5386,733.56326)" d="M493.5386 723.642H504.7952V731.5632H493.5386Z"/>
</clipPath>
<clipPath id="clip_2">
<path transform="matrix(1,0,0,-1,-491.5386,733.56326)" d="M493.5386 731.5632V723.642H504.7952V731.5632Z" clip-rule="evenodd"/>
</clipPath>
</defs>
<g clip-path="url(#clip_1)">
<g clip-path="url(#clip_2)">
<path transform="matrix(1,0,0,-1,2.741394,2.8842164)" d="M0 0 9.72-.96H0" fill="#ffffff" fill-rule="evenodd"/>
<path transform="matrix(1,0,0,-1,2.741394,2.8842164)" d="M0 0H9.72V-.96" fill="#ffffff" fill-rule="evenodd"/>
<path transform="matrix(1,0,0,-1,5.3814089,3.8442384)" d="M0 0 1.68-.6H0" fill="#ffffff" fill-rule="evenodd"/>
<path transform="matrix(1,0,0,-1,5.3814089,3.8442384)" d="M0 0H1.68V-.6" fill="#ffffff" fill-rule="evenodd"/>
<path transform="matrix(1,0,0,-1,5.3814089,4.444214)" d="M0 0H1.68" fill="#ffffff" fill-rule="evenodd"/>
<path transform="matrix(1,0,0,-1,5.3814089,4.444214)" d="M0 0H1.68" fill="#ffffff" fill-rule="evenodd"/>
<path transform="matrix(1,0,0,-1,7.8414,3.8442384)" d="M0 0 .66-.66H0" fill="#ffffff" fill-rule="evenodd"/>
<path transform="matrix(1,0,0,-1,7.8414,3.8442384)" d="M0 0H.66V-.66" fill="#ffffff" fill-rule="evenodd"/>
<path transform="matrix(1,0,0,-1,2.741394,3.8442384)" d="M0 0 1.8-.66H0" fill="#ffffff" fill-rule="evenodd"/>
<path transform="matrix(1,0,0,-1,2.741394,3.8442384)" d="M0 0H1.8V-.66" fill="#ffffff" fill-rule="evenodd"/>
<path transform="matrix(1,0,0,-1,10.961395,3.8442384)" d="M0 0 1.5-.72H0" fill="#ffffff" fill-rule="evenodd"/>
<path transform="matrix(1,0,0,-1,10.961395,3.8442384)" d="M0 0H1.5V-.72" fill="#ffffff" fill-rule="evenodd"/>
<path transform="matrix(1,0,0,-1,7.8414,4.5042116)" d="M0 0 .66-.06H0" fill="#ffffff" fill-rule="evenodd"/>
<path transform="matrix(1,0,0,-1,7.8414,4.5042116)" d="M0 0H.66V-.06" fill="#ffffff" fill-rule="evenodd"/>
<path transform="matrix(1,0,0,-1,5.3814089,4.444214)" d="M0 0 1.68-.6H0" fill="#ffffff" fill-rule="evenodd"/>
<path transform="matrix(1,0,0,-1,5.3814089,4.444214)" d="M0 0H1.68V-.6" fill="#ffffff" fill-rule="evenodd"/>
<path transform="matrix(1,0,0,-1,7.8414,4.564209)" d="M0 0 1.44-.66H0" fill="#ffffff" fill-rule="evenodd"/>
<path transform="matrix(1,0,0,-1,7.8414,4.564209)" d="M0 0H1.44V-.66" fill="#ffffff" fill-rule="evenodd"/>
<path transform="matrix(1,0,0,-1,2.741394,4.5042116)" d="M0 0 1.8-.72H0" fill="#ffffff" fill-rule="evenodd"/>
<path transform="matrix(1,0,0,-1,2.741394,4.5042116)" d="M0 0H1.8V-.72" fill="#ffffff" fill-rule="evenodd"/>
<path transform="matrix(1,0,0,-1,5.3814089,5.0442507)" d="M0 0 1.68-.66H0" fill="#ffffff" fill-rule="evenodd"/>
<path transform="matrix(1,0,0,-1,5.3814089,5.0442507)" d="M0 0H1.68V-.66" fill="#ffffff" fill-rule="evenodd"/>
<path transform="matrix(1,0,0,-1,7.8414,5.224243)" d="M0 0 1.44-.66H0" fill="#ffffff" fill-rule="evenodd"/>
<path transform="matrix(1,0,0,-1,7.8414,5.224243)" d="M0 0H1.44V-.66" fill="#ffffff" fill-rule="evenodd"/>
<path transform="matrix(1,0,0,-1,2.741394,5.224243)" d="M0 0 1.8-.66H0" fill="#ffffff" fill-rule="evenodd"/>
<path transform="matrix(1,0,0,-1,2.741394,5.224243)" d="M0 0H1.8V-.66" fill="#ffffff" fill-rule="evenodd"/>
<path transform="matrix(1,0,0,-1,5.3814089,5.7042238)" d="M0 0 1.68-.6H0" fill="#ffffff" fill-rule="evenodd"/>
<path transform="matrix(1,0,0,-1,5.3814089,5.7042238)" d="M0 0H1.68V-.6" fill="#ffffff" fill-rule="evenodd"/>
<path transform="matrix(1,0,0,-1,5.3814089,6.3042604)" d="M0 0 1.68-.24H0" fill="#ffffff" fill-rule="evenodd"/>
<path transform="matrix(1,0,0,-1,5.3814089,6.3042604)" d="M0 0H1.68V-.24" fill="#ffffff" fill-rule="evenodd"/>
<path transform="matrix(1,0,0,-1,7.8414,5.8842165)" d="M0 0 1.44-.72H0" fill="#ffffff" fill-rule="evenodd"/>
<path transform="matrix(1,0,0,-1,7.8414,5.8842165)" d="M0 0H1.44V-.72" fill="#ffffff" fill-rule="evenodd"/>
<path transform="matrix(1,0,0,-1,2.741394,5.8842165)" d="M0 0 1.8-.72H0" fill="#ffffff" fill-rule="evenodd"/>
<path transform="matrix(1,0,0,-1,2.741394,5.8842165)" d="M0 0H1.8V-.72" fill="#ffffff" fill-rule="evenodd"/>
<path transform="matrix(1,0,0,-1,5.3814089,6.5442507)" d="M0 0 1.62-.3H.06" fill="#ffffff" fill-rule="evenodd"/>
<path transform="matrix(1,0,0,-1,5.3814089,6.5442507)" d="M0 0H1.68L1.62-.3" fill="#ffffff" fill-rule="evenodd"/>
<path transform="matrix(1,0,0,-1,5.4414064,6.8442385)" d="M0 0 1.44-.24H.12" fill="#ffffff" fill-rule="evenodd"/>
<path transform="matrix(1,0,0,-1,5.4414064,6.8442385)" d="M0 0H1.56L1.44-.24" fill="#ffffff" fill-rule="evenodd"/>
<path transform="matrix(1,0,0,-1,7.8414,6.604248)" d="M0 0 1.44-.54H-.06" fill="#ffffff" fill-rule="evenodd"/>
<path transform="matrix(1,0,0,-1,7.8414,6.604248)" d="M0 0H1.44V-.54" fill="#ffffff" fill-rule="evenodd"/>
<path transform="matrix(1,0,0,-1,2.741394,6.604248)" d="M0 0 1.92-.54H0" fill="#ffffff" fill-rule="evenodd"/>
<path transform="matrix(1,0,0,-1,2.741394,6.604248)" d="M0 0H1.8L1.92-.54" fill="#ffffff" fill-rule="evenodd"/>
<path transform="matrix(1,0,0,-1,5.8013918,7.264221)" d="M0 0H.84L.42-.06" fill="#ffffff" fill-rule="evenodd"/>
<path transform="matrix(1,0,0,-1,5.5614016,7.0842287)" d="M0 0 1.08-.18H.24" fill="#ffffff" fill-rule="evenodd"/>
<path transform="matrix(1,0,0,-1,5.5614016,7.0842287)" d="M0 0H1.32L1.08-.18" fill="#ffffff" fill-rule="evenodd"/>
<path transform="matrix(1,0,0,-1,7.7814028,7.144226)" d="M0 0 1.5-.36H-.24" fill="#ffffff" fill-rule="evenodd"/>
<path transform="matrix(1,0,0,-1,7.7814028,7.144226)" d="M0 0H1.5V-.36" fill="#ffffff" fill-rule="evenodd"/>
<path transform="matrix(1,0,0,-1,2.741394,7.144226)" d="M0 0 2.16-.36H0" fill="#ffffff" fill-rule="evenodd"/>
<path transform="matrix(1,0,0,-1,2.741394,7.144226)" d="M0 0H1.92L2.16-.36" fill="#ffffff" fill-rule="evenodd"/>
<path transform="matrix(1,0,0,-1,7.541382,7.5042116)" d="M0 0 1.74-.3H-.36" fill="#ffffff" fill-rule="evenodd"/>
<path transform="matrix(1,0,0,-1,7.541382,7.5042116)" d="M0 0H1.74V-.3" fill="#ffffff" fill-rule="evenodd"/>
<path transform="matrix(1,0,0,-1,2.741394,7.5042116)" d="M0 0 2.52-.3H0" fill="#ffffff" fill-rule="evenodd"/>
<path transform="matrix(1,0,0,-1,2.741394,7.5042116)" d="M0 0H2.16L2.52-.3" fill="#ffffff" fill-rule="evenodd"/>
<path transform="matrix(1,0,0,-1,7.1813967,7.8042604)" d="M0 0 2.1-.18H-.48" fill="#ffffff" fill-rule="evenodd"/>
<path transform="matrix(1,0,0,-1,7.1813967,7.8042604)" d="M0 0H2.1V-.18" fill="#ffffff" fill-rule="evenodd"/>
<path transform="matrix(1,0,0,-1,2.741394,7.8042604)" d="M0 0 2.94-.18H0" fill="#ffffff" fill-rule="evenodd"/>
<path transform="matrix(1,0,0,-1,2.741394,7.8042604)" d="M0 0H2.52L2.94-.18" fill="#ffffff" fill-rule="evenodd"/>
<path transform="matrix(1,0,0,-1,10.121399,4.564209)" d="M0 0 2.34-3.48H0" fill="#ffffff" fill-rule="evenodd"/>
<path transform="matrix(1,0,0,-1,10.121399,4.564209)" d="M0 0H2.34V-3.48" fill="#ffffff" fill-rule="evenodd"/>
<path transform="matrix(1,0,0,-1,6.7013857,7.984253)" d="M0 0 2.58-.06H-.48" fill="#ffffff" fill-rule="evenodd"/>
<path transform="matrix(1,0,0,-1,6.7013857,7.984253)" d="M0 0H2.58V-.06" fill="#ffffff" fill-rule="evenodd"/>
<path transform="matrix(1,0,0,-1,2.741394,7.984253)" d="M0 0 3.48-.06H0" fill="#ffffff" fill-rule="evenodd"/>
<path transform="matrix(1,0,0,-1,2.741394,7.984253)" d="M0 0H2.94L3.48-.06" fill="#ffffff" fill-rule="evenodd"/>
<path transform="matrix(1,0,0,-1,2.741394,8.0442509)" d="M0 0 9.72-1.02H0" fill="#ffffff" fill-rule="evenodd"/>
<path transform="matrix(1,0,0,-1,2.741394,8.0442509)" d="M0 0H9.72V-1.02" fill="#ffffff" fill-rule="evenodd"/>
<path transform="matrix(1,0,0,-1,7.0614016,3.8442384)" d="M0 0 .78-.6H0" fill="#0000ff" fill-rule="evenodd"/>
<path transform="matrix(1,0,0,-1,7.0614016,3.8442384)" d="M0 0H.78V-.6" fill="#0000ff" fill-rule="evenodd"/>
<path transform="matrix(1,0,0,-1,4.541382,3.8442384)" d="M0 0 .84-.6H0" fill="#0000ff" fill-rule="evenodd"/>
<path transform="matrix(1,0,0,-1,4.541382,3.8442384)" d="M0 0H.84V-.6" fill="#0000ff" fill-rule="evenodd"/>
<path transform="matrix(1,0,0,-1,7.0614016,4.444214)" d="M0 0 .78-.06H0" fill="#0000ff" fill-rule="evenodd"/>
<path transform="matrix(1,0,0,-1,7.0614016,4.444214)" d="M0 0H.78V-.06" fill="#0000ff" fill-rule="evenodd"/>
<path transform="matrix(1,0,0,-1,4.541382,4.444214)" d="M0 0 .84-.06H0" fill="#0000ff" fill-rule="evenodd"/>
<path transform="matrix(1,0,0,-1,4.541382,4.444214)" d="M0 0H.84V-.06" fill="#0000ff" fill-rule="evenodd"/>
<path transform="matrix(1,0,0,-1,8.501404,3.8442384)" d="M0 0 2.46-.72H0" fill="#0000ff" fill-rule="evenodd"/>
<path transform="matrix(1,0,0,-1,8.501404,3.8442384)" d="M0 0H2.46V-.72" fill="#0000ff" fill-rule="evenodd"/>
<path transform="matrix(1,0,0,-1,7.0614016,4.5042116)" d="M0 0 .78-.54H0" fill="#0000ff" fill-rule="evenodd"/>
<path transform="matrix(1,0,0,-1,7.0614016,4.5042116)" d="M0 0H.78V-.54" fill="#0000ff" fill-rule="evenodd"/>
<path transform="matrix(1,0,0,-1,4.541382,4.5042116)" d="M0 0 .84-.54H0" fill="#0000ff" fill-rule="evenodd"/>
<path transform="matrix(1,0,0,-1,4.541382,4.5042116)" d="M0 0H.84V-.54" fill="#0000ff" fill-rule="evenodd"/>
<path transform="matrix(1,0,0,-1,7.0614016,5.0442507)" d="M0 0 .78-.18H0" fill="#0000ff" fill-rule="evenodd"/>
<path transform="matrix(1,0,0,-1,7.0614016,5.0442507)" d="M0 0H.78V-.18" fill="#0000ff" fill-rule="evenodd"/>
<path transform="matrix(1,0,0,-1,4.541382,5.0442507)" d="M0 0 .84-.18H0" fill="#0000ff" fill-rule="evenodd"/>
<path transform="matrix(1,0,0,-1,4.541382,5.0442507)" d="M0 0H.84V-.18" fill="#0000ff" fill-rule="evenodd"/>
<path transform="matrix(1,0,0,-1,7.0614016,5.224243)" d="M0 0 .78-.48H0" fill="#0000ff" fill-rule="evenodd"/>
<path transform="matrix(1,0,0,-1,7.0614016,5.224243)" d="M0 0H.78V-.48" fill="#0000ff" fill-rule="evenodd"/>
<path transform="matrix(1,0,0,-1,4.541382,5.224243)" d="M0 0 .84-.48H0" fill="#0000ff" fill-rule="evenodd"/>
<path transform="matrix(1,0,0,-1,4.541382,5.224243)" d="M0 0H.84V-.48" fill="#0000ff" fill-rule="evenodd"/>
<path transform="matrix(1,0,0,-1,7.0614016,5.7042238)" d="M0 0 .78-.18H0" fill="#0000ff" fill-rule="evenodd"/>
<path transform="matrix(1,0,0,-1,7.0614016,5.7042238)" d="M0 0H.78V-.18" fill="#0000ff" fill-rule="evenodd"/>
<path transform="matrix(1,0,0,-1,4.541382,5.7042238)" d="M0 0 .84-.18H0" fill="#0000ff" fill-rule="evenodd"/>
<path transform="matrix(1,0,0,-1,4.541382,5.7042238)" d="M0 0H.84V-.18" fill="#0000ff" fill-rule="evenodd"/>
<path transform="matrix(1,0,0,-1,7.0614016,5.8842165)" d="M0 0 .78-.42H0" fill="#0000ff" fill-rule="evenodd"/>
<path transform="matrix(1,0,0,-1,7.0614016,5.8842165)" d="M0 0H.78V-.42" fill="#0000ff" fill-rule="evenodd"/>
<path transform="matrix(1,0,0,-1,4.541382,5.8842165)" d="M0 0 .84-.42H0" fill="#0000ff" fill-rule="evenodd"/>
<path transform="matrix(1,0,0,-1,4.541382,5.8842165)" d="M0 0H.84V-.42" fill="#0000ff" fill-rule="evenodd"/>
<path transform="matrix(1,0,0,-1,7.0614016,6.3042604)" d="M0 0 .78-.24H0" fill="#0000ff" fill-rule="evenodd"/>
<path transform="matrix(1,0,0,-1,7.0614016,6.3042604)" d="M0 0H.78V-.24" fill="#0000ff" fill-rule="evenodd"/>
<path transform="matrix(1,0,0,-1,4.541382,6.3042604)" d="M0 0 .84-.24H0" fill="#0000ff" fill-rule="evenodd"/>
<path transform="matrix(1,0,0,-1,4.541382,6.3042604)" d="M0 0H.84V-.24" fill="#0000ff" fill-rule="evenodd"/>
<path transform="matrix(1,0,0,-1,7.0614016,6.5442507)" d="M0 0 .78-.06H0" fill="#0000ff" fill-rule="evenodd"/>
<path transform="matrix(1,0,0,-1,7.0614016,6.5442507)" d="M0 0H.78V-.06" fill="#0000ff" fill-rule="evenodd"/>
<path transform="matrix(1,0,0,-1,4.541382,6.5442507)" d="M0 0 .9-.06H0" fill="#0000ff" fill-rule="evenodd"/>
<path transform="matrix(1,0,0,-1,4.541382,6.5442507)" d="M0 0H.84L.9-.06" fill="#0000ff" fill-rule="evenodd"/>
<path transform="matrix(1,0,0,-1,7.0614016,6.604248)" d="M0 0 .72-.24H-.06" fill="#0000ff" fill-rule="evenodd"/>
<path transform="matrix(1,0,0,-1,7.0614016,6.604248)" d="M0 0H.78L.72-.24" fill="#0000ff" fill-rule="evenodd"/>
<path transform="matrix(1,0,0,-1,4.541382,6.604248)" d="M0 0 .9-.24H.06" fill="#0000ff" fill-rule="evenodd"/>
<path transform="matrix(1,0,0,-1,4.541382,6.604248)" d="M0 0H.9V-.24" fill="#0000ff" fill-rule="evenodd"/>
<path transform="matrix(1,0,0,-1,7.001404,6.8442385)" d="M0 0 .78-.24H-.12" fill="#0000ff" fill-rule="evenodd"/>
<path transform="matrix(1,0,0,-1,7.001404,6.8442385)" d="M0 0H.78V-.24" fill="#0000ff" fill-rule="evenodd"/>
<path transform="matrix(1,0,0,-1,4.60141,6.8442385)" d="M0 0 .96-.24H.06" fill="#0000ff" fill-rule="evenodd"/>
<path transform="matrix(1,0,0,-1,4.60141,6.8442385)" d="M0 0H.84L.96-.24" fill="#0000ff" fill-rule="evenodd"/>
<path transform="matrix(1,0,0,-1,6.8814089,7.0842287)" d="M0 0 .9-.06H-.06" fill="#0000ff" fill-rule="evenodd"/>
<path transform="matrix(1,0,0,-1,6.8814089,7.0842287)" d="M0 0H.9V-.06" fill="#0000ff" fill-rule="evenodd"/>
<path transform="matrix(1,0,0,-1,4.6614077,7.0842287)" d="M0 0 .96-.06H0" fill="#0000ff" fill-rule="evenodd"/>
<path transform="matrix(1,0,0,-1,4.6614077,7.0842287)" d="M0 0H.9L.96-.06" fill="#0000ff" fill-rule="evenodd"/>
<path transform="matrix(1,0,0,-1,6.8213808,7.144226)" d="M0 0 .84-.12H-.18" fill="#0000ff" fill-rule="evenodd"/>
<path transform="matrix(1,0,0,-1,6.8213808,7.144226)" d="M0 0H.96L.84-.12" fill="#0000ff" fill-rule="evenodd"/>
<path transform="matrix(1,0,0,-1,4.6614077,7.144226)" d="M0 0 1.14-.12H.06" fill="#0000ff" fill-rule="evenodd"/>
<path transform="matrix(1,0,0,-1,4.6614077,7.144226)" d="M0 0H.96L1.14-.12" fill="#0000ff" fill-rule="evenodd"/>
<path transform="matrix(1,0,0,-1,6.641388,7.264221)" d="M0 0 1.02-.06H-.42" fill="#0000ff" fill-rule="evenodd"/>
<path transform="matrix(1,0,0,-1,6.641388,7.264221)" d="M0 0H1.02V-.06" fill="#0000ff" fill-rule="evenodd"/>
<path transform="matrix(1,0,0,-1,4.721405,7.264221)" d="M0 0 1.5-.06H.06" fill="#0000ff" fill-rule="evenodd"/>
<path transform="matrix(1,0,0,-1,4.721405,7.264221)" d="M0 0H1.08L1.5-.06" fill="#0000ff" fill-rule="evenodd"/>
<path transform="matrix(1,0,0,-1,4.7814028,7.3242189)" d="M0 0 2.76-.18H.12" fill="#0000ff" fill-rule="evenodd"/>
<path transform="matrix(1,0,0,-1,4.7814028,7.3242189)" d="M0 0H2.88L2.76-.18" fill="#0000ff" fill-rule="evenodd"/>
<path transform="matrix(1,0,0,-1,4.9013979,7.5042116)" d="M0 0 2.28-.3H.36" fill="#0000ff" fill-rule="evenodd"/>
<path transform="matrix(1,0,0,-1,4.9013979,7.5042116)" d="M0 0H2.64L2.28-.3" fill="#0000ff" fill-rule="evenodd"/>
<path transform="matrix(1,0,0,-1,5.6813967,7.984253)" d="M0 0H1.02L.54-.06" fill="#0000ff" fill-rule="evenodd"/>
<path transform="matrix(1,0,0,-1,5.261383,7.8042604)" d="M0 0 1.44-.18H.42" fill="#0000ff" fill-rule="evenodd"/>
<path transform="matrix(1,0,0,-1,5.261383,7.8042604)" d="M0 0H1.92L1.44-.18" fill="#0000ff" fill-rule="evenodd"/>
<path transform="matrix(1,0,0,-1,9.281403,4.564209)" d="M0 0 .84-3.48H0" fill="#0000ff" fill-rule="evenodd"/>
<path transform="matrix(1,0,0,-1,9.281403,4.564209)" d="M0 0H.84V-3.48" fill="#0000ff" fill-rule="evenodd"/>
<path transform="matrix(1,0,0,-1,5.3814089,5.0442507)" stroke-width=".72" stroke-linecap="round" stroke-linejoin="round" fill="none" stroke="#0000ff" d="M0 0V1.2H-.84V-.18C-.795-1.393-1.16-2.428 .3-2.94L.84-3 1.32-2.94C2.881-2.485 2.372-1.459 2.46-.18V1.2H1.68V0C1.603-.535 1.845-1.558 1.5-2.04L1.26-2.22 .84-2.28 .42-2.22 .18-2.04 .06-1.8 0-1.5V0Z"/>
<path transform="matrix(1,0,0,-1,8.501409,4.5642507)" stroke-width=".72" stroke-linecap="round" stroke-linejoin="round" fill="none" stroke="#0000ff" d="M0 0V.72H2.46"/>
<path transform="matrix(1,0,0,-1,8.501409,4.5642507)" stroke-width=".72" stroke-linecap="round" stroke-linejoin="round" fill="none" stroke="#0000ff" d="M0 0H.78"/>
<path transform="matrix(1,0,0,-1,10.121408,4.5642507)" stroke-width=".72" stroke-linecap="round" stroke-linejoin="round" fill="none" stroke="#0000ff" d="M0 0H.84V.72"/>
<path transform="matrix(1,0,0,-1,10.121408,4.5642507)" stroke-width=".72" stroke-linecap="round" stroke-linejoin="round" fill="none" stroke="#0000ff" d="M0 0V-3.48"/>
<path transform="matrix(1,0,0,-1,9.281408,4.5642507)" stroke-width=".72" stroke-linecap="round" stroke-linejoin="round" fill="none" stroke="#0000ff" d="M0 0V-3.48H.84"/>
<path transform="matrix(1,0,0,-1,12.461395,9.064209)" stroke-width="1.14" stroke-linecap="round" stroke-linejoin="round" fill="none" stroke="#0000ff" d="M-9.72 0H0V6.18H-9.72Z"/>
</g>
</g>
</svg>
