<svg xmlns="http://www.w3.org/2000/svg" xmlns:xlink="http://www.w3.org/1999/xlink" xmlns:inkscape="http://www.inkscape.org/namespaces/inkscape" version="1.1" width="19.6342" height="11.9213" viewBox="0 0 19.6342 11.9213">
<defs>
<clipPath id="clip_1">
<path transform="matrix(1,0,0,-1,-486.5356,678.32247)" d="M488.5356 668.4011H504.1698V676.3224H488.5356Z"/>
</clipPath>
<clipPath id="clip_2">
<path transform="matrix(1,0,0,-1,-486.5356,678.32247)" d="M488.5356 676.3224V668.4011H504.1698V676.3224Z" clip-rule="evenodd"/>
</clipPath>
</defs>
<g clip-path="url(#clip_1)">
<g clip-path="url(#clip_2)">
<path transform="matrix(1,0,0,-1,2.584381,2.543457)" d="M0 0 14.34-6.84H0" fill="#ffffff" fill-rule="evenodd"/>
<path transform="matrix(1,0,0,-1,2.584381,2.543457)" d="M0 0H14.34V-6.84" fill="#ffffff" fill-rule="evenodd"/>
<path transform="matrix(1,0,0,-1,2.584381,2.543457)" d="M0 0 14.34-1.5H0" fill="#ffffff" fill-rule="evenodd"/>
<path transform="matrix(1,0,0,-1,2.584381,2.543457)" d="M0 0H14.34V-1.5" fill="#ffffff" fill-rule="evenodd"/>
<path transform="matrix(1,0,0,-1,10.564392,4.043457)" d="M0 0 1.62-.6H0" fill="#ffffff" fill-rule="evenodd"/>
<path transform="matrix(1,0,0,-1,10.564392,4.043457)" d="M0 0H1.62V-.6" fill="#ffffff" fill-rule="evenodd"/>
<path transform="matrix(1,0,0,-1,10.564392,4.6434328)" d="M0 0H1.62" fill="#ffffff" fill-rule="evenodd"/>
<path transform="matrix(1,0,0,-1,10.564392,4.6434328)" d="M0 0H1.62" fill="#ffffff" fill-rule="evenodd"/>
<path transform="matrix(1,0,0,-1,12.964386,4.043457)" d="M0 0 3.96-.66H0" fill="#ffffff" fill-rule="evenodd"/>
<path transform="matrix(1,0,0,-1,12.964386,4.043457)" d="M0 0H3.96V-.66" fill="#ffffff" fill-rule="evenodd"/>
<path transform="matrix(1,0,0,-1,2.584381,4.043457)" d="M0 0 7.2-.66H0" fill="#ffffff" fill-rule="evenodd"/>
<path transform="matrix(1,0,0,-1,2.584381,4.043457)" d="M0 0H7.2V-.66" fill="#ffffff" fill-rule="evenodd"/>
<path transform="matrix(1,0,0,-1,10.564392,4.6434328)" d="M0 0 1.62-.6H0" fill="#ffffff" fill-rule="evenodd"/>
<path transform="matrix(1,0,0,-1,10.564392,4.6434328)" d="M0 0H1.62V-.6" fill="#ffffff" fill-rule="evenodd"/>
<path transform="matrix(1,0,0,-1,12.964386,4.70343)" d="M0 0 3.96-.72H0" fill="#ffffff" fill-rule="evenodd"/>
<path transform="matrix(1,0,0,-1,12.964386,4.70343)" d="M0 0H3.96V-.72" fill="#ffffff" fill-rule="evenodd"/>
<path transform="matrix(1,0,0,-1,2.584381,4.70343)" d="M0 0 7.2-.72H0" fill="#ffffff" fill-rule="evenodd"/>
<path transform="matrix(1,0,0,-1,2.584381,4.70343)" d="M0 0H7.2V-.72" fill="#ffffff" fill-rule="evenodd"/>
<path transform="matrix(1,0,0,-1,10.564392,5.243469)" d="M0 0 1.62-.6H0" fill="#ffffff" fill-rule="evenodd"/>
<path transform="matrix(1,0,0,-1,10.564392,5.243469)" d="M0 0H1.62V-.6" fill="#ffffff" fill-rule="evenodd"/>
<path transform="matrix(1,0,0,-1,12.964386,5.423462)" d="M0 0 3.96-.66H0" fill="#ffffff" fill-rule="evenodd"/>
<path transform="matrix(1,0,0,-1,12.964386,5.423462)" d="M0 0H3.96V-.66" fill="#ffffff" fill-rule="evenodd"/>
<path transform="matrix(1,0,0,-1,2.584381,5.423462)" d="M0 0 7.2-.66H0" fill="#ffffff" fill-rule="evenodd"/>
<path transform="matrix(1,0,0,-1,2.584381,5.423462)" d="M0 0H7.2V-.66" fill="#ffffff" fill-rule="evenodd"/>
<path transform="matrix(1,0,0,-1,10.564392,5.843445)" d="M0 0 1.62-.66H0" fill="#ffffff" fill-rule="evenodd"/>
<path transform="matrix(1,0,0,-1,10.564392,5.843445)" d="M0 0H1.62V-.66" fill="#ffffff" fill-rule="evenodd"/>
<path transform="matrix(1,0,0,-1,10.564392,6.503479)" d="M0 0 1.62-.24H0" fill="#ffffff" fill-rule="evenodd"/>
<path transform="matrix(1,0,0,-1,10.564392,6.503479)" d="M0 0H1.62V-.24" fill="#ffffff" fill-rule="evenodd"/>
<path transform="matrix(1,0,0,-1,12.964386,6.083435)" d="M0 0 3.96-.66H0" fill="#ffffff" fill-rule="evenodd"/>
<path transform="matrix(1,0,0,-1,12.964386,6.083435)" d="M0 0H3.96V-.66" fill="#ffffff" fill-rule="evenodd"/>
<path transform="matrix(1,0,0,-1,2.584381,6.083435)" d="M0 0 7.2-.66H0" fill="#ffffff" fill-rule="evenodd"/>
<path transform="matrix(1,0,0,-1,2.584381,6.083435)" d="M0 0H7.2V-.66" fill="#ffffff" fill-rule="evenodd"/>
<path transform="matrix(1,0,0,-1,10.564392,6.743469)" d="M0 0 1.56-.24H.06" fill="#ffffff" fill-rule="evenodd"/>
<path transform="matrix(1,0,0,-1,10.564392,6.743469)" d="M0 0H1.62L1.56-.24" fill="#ffffff" fill-rule="evenodd"/>
<path transform="matrix(1,0,0,-1,10.62439,6.9834597)" d="M0 0 1.38-.24H.12" fill="#ffffff" fill-rule="evenodd"/>
<path transform="matrix(1,0,0,-1,10.62439,6.9834597)" d="M0 0H1.5L1.38-.24" fill="#ffffff" fill-rule="evenodd"/>
<path transform="matrix(1,0,0,-1,12.964386,6.743469)" d="M0 0 3.96-.54H-.06" fill="#ffffff" fill-rule="evenodd"/>
<path transform="matrix(1,0,0,-1,12.964386,6.743469)" d="M0 0H3.96V-.54" fill="#ffffff" fill-rule="evenodd"/>
<path transform="matrix(1,0,0,-1,2.584381,6.743469)" d="M0 0 7.26-.54H0" fill="#ffffff" fill-rule="evenodd"/>
<path transform="matrix(1,0,0,-1,2.584381,6.743469)" d="M0 0H7.2L7.26-.54" fill="#ffffff" fill-rule="evenodd"/>
<path transform="matrix(1,0,0,-1,10.984375,7.4034426)" d="M0 0H.78L.36-.06" fill="#ffffff" fill-rule="evenodd"/>
<path transform="matrix(1,0,0,-1,10.744385,7.2234499)" d="M0 0 1.02-.18H.24" fill="#ffffff" fill-rule="evenodd"/>
<path transform="matrix(1,0,0,-1,10.744385,7.2234499)" d="M0 0H1.26L1.02-.18" fill="#ffffff" fill-rule="evenodd"/>
<path transform="matrix(1,0,0,-1,12.904388,7.2834475)" d="M0 0 4.02-.36H-.24" fill="#ffffff" fill-rule="evenodd"/>
<path transform="matrix(1,0,0,-1,12.904388,7.2834475)" d="M0 0H4.02V-.36" fill="#ffffff" fill-rule="evenodd"/>
<path transform="matrix(1,0,0,-1,2.584381,7.2834475)" d="M0 0 7.5-.36H0" fill="#ffffff" fill-rule="evenodd"/>
<path transform="matrix(1,0,0,-1,2.584381,7.2834475)" d="M0 0H7.26L7.5-.36" fill="#ffffff" fill-rule="evenodd"/>
<path transform="matrix(1,0,0,-1,12.664398,7.6434328)" d="M0 0 4.26-.3H-.36" fill="#ffffff" fill-rule="evenodd"/>
<path transform="matrix(1,0,0,-1,12.664398,7.6434328)" d="M0 0H4.26V-.3" fill="#ffffff" fill-rule="evenodd"/>
<path transform="matrix(1,0,0,-1,2.584381,7.6434328)" d="M0 0 7.86-.3H0" fill="#ffffff" fill-rule="evenodd"/>
<path transform="matrix(1,0,0,-1,2.584381,7.6434328)" d="M0 0H7.5L7.86-.3" fill="#ffffff" fill-rule="evenodd"/>
<path transform="matrix(1,0,0,-1,12.304382,7.9434206)" d="M0 0 4.62-.12H-.42" fill="#ffffff" fill-rule="evenodd"/>
<path transform="matrix(1,0,0,-1,12.304382,7.9434206)" d="M0 0H4.62V-.12" fill="#ffffff" fill-rule="evenodd"/>
<path transform="matrix(1,0,0,-1,2.584381,7.9434206)" d="M0 0 8.28-.12H0" fill="#ffffff" fill-rule="evenodd"/>
<path transform="matrix(1,0,0,-1,2.584381,7.9434206)" d="M0 0H7.86L8.28-.12" fill="#ffffff" fill-rule="evenodd"/>
<path transform="matrix(1,0,0,-1,11.884399,8.063477)" d="M0 0 5.04-.12H-.54" fill="#ffffff" fill-rule="evenodd"/>
<path transform="matrix(1,0,0,-1,11.884399,8.063477)" d="M0 0H5.04V-.12" fill="#ffffff" fill-rule="evenodd"/>
<path transform="matrix(1,0,0,-1,2.584381,8.063477)" d="M0 0 8.76-.12H0" fill="#ffffff" fill-rule="evenodd"/>
<path transform="matrix(1,0,0,-1,2.584381,8.063477)" d="M0 0H8.28L8.76-.12" fill="#ffffff" fill-rule="evenodd"/>
<path transform="matrix(1,0,0,-1,2.584381,8.183472)" d="M0 0 14.34-1.2H0" fill="#ffffff" fill-rule="evenodd"/>
<path transform="matrix(1,0,0,-1,2.584381,8.183472)" d="M0 0H14.34V-1.2" fill="#ffffff" fill-rule="evenodd"/>
<path transform="matrix(1,0,0,-1,4.984375,2.8434449)" d="M0 0H.24-.12" fill="#0000ff" fill-rule="evenodd"/>
<path transform="matrix(1,0,0,-1,4.984375,2.8434449)" d="M0 0H.24" fill="#0000ff" fill-rule="evenodd"/>
<path transform="matrix(1,0,0,-1,4.86438,2.8434449)" d="M0 0 .42-.06H-.12" fill="#0000ff" fill-rule="evenodd"/>
<path transform="matrix(1,0,0,-1,4.86438,2.8434449)" d="M0 0H.36L.42-.06" fill="#0000ff" fill-rule="evenodd"/>
<path transform="matrix(1,0,0,-1,4.744385,2.9034425)" d="M0 0 .66-.06H-.06" fill="#0000ff" fill-rule="evenodd"/>
<path transform="matrix(1,0,0,-1,4.744385,2.9034425)" d="M0 0H.54L.66-.06" fill="#0000ff" fill-rule="evenodd"/>
<path transform="matrix(1,0,0,-1,4.684387,2.96344)" d="M0 0 .78-.06H-.12" fill="#0000ff" fill-rule="evenodd"/>
<path transform="matrix(1,0,0,-1,4.684387,2.96344)" d="M0 0H.72L.78-.06" fill="#0000ff" fill-rule="evenodd"/>
<path transform="matrix(1,0,0,-1,4.564392,3.0234376)" d="M0 0 1.02-.12H-.06" fill="#0000ff" fill-rule="evenodd"/>
<path transform="matrix(1,0,0,-1,4.564392,3.0234376)" d="M0 0H.9L1.02-.12" fill="#0000ff" fill-rule="evenodd"/>
<path transform="matrix(1,0,0,-1,4.5043947,3.1434327)" d="M0 0 1.08-.12H-.06" fill="#0000ff" fill-rule="evenodd"/>
<path transform="matrix(1,0,0,-1,4.5043947,3.1434327)" d="M0 0H1.08V-.12" fill="#0000ff" fill-rule="evenodd"/>
<path transform="matrix(1,0,0,-1,4.444397,3.2634278)" d="M0 0 1.2-.06H0" fill="#0000ff" fill-rule="evenodd"/>
<path transform="matrix(1,0,0,-1,4.444397,3.2634278)" d="M0 0H1.14L1.2-.06" fill="#0000ff" fill-rule="evenodd"/>
<path transform="matrix(1,0,0,-1,4.444397,3.3234254)" d="M0 0 1.2-.12H0" fill="#0000ff" fill-rule="evenodd"/>
<path transform="matrix(1,0,0,-1,4.444397,3.3234254)" d="M0 0H1.2V-.12" fill="#0000ff" fill-rule="evenodd"/>
<path transform="matrix(1,0,0,-1,4.444397,3.4434205)" d="M0 0 1.2-.12H0" fill="#0000ff" fill-rule="evenodd"/>
<path transform="matrix(1,0,0,-1,4.444397,3.4434205)" d="M0 0H1.2V-.12" fill="#0000ff" fill-rule="evenodd"/>
<path transform="matrix(1,0,0,-1,4.444397,3.5634766)" d="M0 0H1.2" fill="#0000ff" fill-rule="evenodd"/>
<path transform="matrix(1,0,0,-1,4.444397,3.5634766)" d="M0 0H1.2" fill="#0000ff" fill-rule="evenodd"/>
<path transform="matrix(1,0,0,-1,4.444397,3.5634766)" d="M0 0 1.14-.12H0" fill="#0000ff" fill-rule="evenodd"/>
<path transform="matrix(1,0,0,-1,4.444397,3.5634766)" d="M0 0H1.2L1.14-.12" fill="#0000ff" fill-rule="evenodd"/>
<path transform="matrix(1,0,0,-1,4.444397,3.6834717)" d="M0 0H1.14" fill="#0000ff" fill-rule="evenodd"/>
<path transform="matrix(1,0,0,-1,4.444397,3.6834717)" d="M0 0H1.14" fill="#0000ff" fill-rule="evenodd"/>
<path transform="matrix(1,0,0,-1,4.444397,3.6834717)" d="M0 0 1.14-.12H.06" fill="#0000ff" fill-rule="evenodd"/>
<path transform="matrix(1,0,0,-1,4.444397,3.6834717)" d="M0 0H1.14V-.12" fill="#0000ff" fill-rule="evenodd"/>
<path transform="matrix(1,0,0,-1,4.5043947,3.8034669)" d="M0 0H1.02" fill="#0000ff" fill-rule="evenodd"/>
<path transform="matrix(1,0,0,-1,4.5043947,3.8034669)" d="M0 0H1.08 1.02" fill="#0000ff" fill-rule="evenodd"/>
<path transform="matrix(1,0,0,-1,4.5043947,3.8034669)" d="M0 0 .96-.06H.06" fill="#0000ff" fill-rule="evenodd"/>
<path transform="matrix(1,0,0,-1,4.5043947,3.8034669)" d="M0 0H1.02L.96-.06" fill="#0000ff" fill-rule="evenodd"/>
<path transform="matrix(1,0,0,-1,4.564392,3.8634644)" d="M0 0H.9" fill="#0000ff" fill-rule="evenodd"/>
<path transform="matrix(1,0,0,-1,4.564392,3.8634644)" d="M0 0H.9" fill="#0000ff" fill-rule="evenodd"/>
<path transform="matrix(1,0,0,-1,4.564392,3.8634644)" d="M0 0 .84-.12H.12" fill="#0000ff" fill-rule="evenodd"/>
<path transform="matrix(1,0,0,-1,4.564392,3.8634644)" d="M0 0H.9L.84-.12" fill="#0000ff" fill-rule="evenodd"/>
<path transform="matrix(1,0,0,-1,4.684387,3.9834595)" d="M0 0H.72" fill="#0000ff" fill-rule="evenodd"/>
<path transform="matrix(1,0,0,-1,4.684387,3.9834595)" d="M0 0H.72" fill="#0000ff" fill-rule="evenodd"/>
<path transform="matrix(1,0,0,-1,4.684387,3.9834595)" d="M0 0 .6-.06H.06" fill="#0000ff" fill-rule="evenodd"/>
<path transform="matrix(1,0,0,-1,4.684387,3.9834595)" d="M0 0H.72L.6-.06" fill="#0000ff" fill-rule="evenodd"/>
<path transform="matrix(1,0,0,-1,4.744385,4.043457)" d="M0 0H.54 .06" fill="#0000ff" fill-rule="evenodd"/>
<path transform="matrix(1,0,0,-1,4.744385,4.043457)" d="M0 0H.54" fill="#0000ff" fill-rule="evenodd"/>
<path transform="matrix(1,0,0,-1,4.8043825,4.043457)" d="M0 0H.42 .06" fill="#0000ff" fill-rule="evenodd"/>
<path transform="matrix(1,0,0,-1,4.8043825,4.043457)" d="M0 0H.48 .42" fill="#0000ff" fill-rule="evenodd"/>
<path transform="matrix(1,0,0,-1,5.2243959,4.043457)" d="M0 0H-.06" fill="#0000ff" fill-rule="evenodd"/>
<path transform="matrix(1,0,0,-1,4.86438,4.043457)" d="M0 0H.3" fill="#0000ff" fill-rule="evenodd"/>
<path transform="matrix(1,0,0,-1,4.86438,4.043457)" d="M0 0H.36 .3" fill="#0000ff" fill-rule="evenodd"/>
<path transform="matrix(1,0,0,-1,4.984375,4.043457)" d="M0 0H.06L0-.06" fill="#0000ff" fill-rule="evenodd"/>
<path transform="matrix(1,0,0,-1,5.164398,4.043457)" d="M0 0H.12-.06" fill="#0000ff" fill-rule="evenodd"/>
<path transform="matrix(1,0,0,-1,5.164398,4.043457)" d="M0 0H.12" fill="#0000ff" fill-rule="evenodd"/>
<path transform="matrix(1,0,0,-1,4.86438,4.043457)" d="M0 0H.18 .12" fill="#0000ff" fill-rule="evenodd"/>
<path transform="matrix(1,0,0,-1,4.86438,4.043457)" d="M0 0H.3 .18" fill="#0000ff" fill-rule="evenodd"/>
<path transform="matrix(1,0,0,-1,5.1044008,4.043457)" d="M0 0 .18-.06H-.12" fill="#0000ff" fill-rule="evenodd"/>
<path transform="matrix(1,0,0,-1,5.1044008,4.043457)" d="M0 0H.18V-.06" fill="#0000ff" fill-rule="evenodd"/>
<path transform="matrix(1,0,0,-1,4.984375,4.1034548)" d="M0 0H.36-.06" fill="#0000ff" fill-rule="evenodd"/>
<path transform="matrix(1,0,0,-1,4.984375,4.1034548)" d="M0 0H.36" fill="#0000ff" fill-rule="evenodd"/>
<path transform="matrix(1,0,0,-1,4.9243776,4.1034548)" d="M0 0H.54-.06" fill="#0000ff" fill-rule="evenodd"/>
<path transform="matrix(1,0,0,-1,4.9243776,4.1034548)" d="M0 0H.54" fill="#0000ff" fill-rule="evenodd"/>
<path transform="matrix(1,0,0,-1,4.86438,4.1034548)" d="M0 0 .78-.18H-.18" fill="#0000ff" fill-rule="evenodd"/>
<path transform="matrix(1,0,0,-1,4.86438,4.1034548)" d="M0 0H.6L.78-.18" fill="#0000ff" fill-rule="evenodd"/>
<path transform="matrix(1,0,0,-1,4.684387,4.2834475)" d="M0 0 1.08-.36H-.12" fill="#0000ff" fill-rule="evenodd"/>
<path transform="matrix(1,0,0,-1,4.684387,4.2834475)" d="M0 0H.96L1.08-.36" fill="#0000ff" fill-rule="evenodd"/>
<path transform="matrix(1,0,0,-1,6.844391,5.0634768)" d="M0 0 .06-.06H-.9" fill="#0000ff" fill-rule="evenodd"/>
<path transform="matrix(1,0,0,-1,4.564392,4.6434328)" d="M0 0 1.38-.48H.18" fill="#0000ff" fill-rule="evenodd"/>
<path transform="matrix(1,0,0,-1,4.564392,4.6434328)" d="M0 0H1.2L1.38-.48" fill="#0000ff" fill-rule="evenodd"/>
<path transform="matrix(1,0,0,-1,4.744385,5.123474)" d="M0 0H2.16" fill="#0000ff" fill-rule="evenodd"/>
<path transform="matrix(1,0,0,-1,4.744385,5.123474)" d="M0 0H2.16" fill="#0000ff" fill-rule="evenodd"/>
<path transform="matrix(1,0,0,-1,4.8043825,5.303467)" d="M0 0V0" fill="#0000ff" fill-rule="evenodd"/>
<path transform="matrix(1,0,0,-1,4.744385,5.123474)" d="M0 0 2.16-.18H.06" fill="#0000ff" fill-rule="evenodd"/>
<path transform="matrix(1,0,0,-1,4.744385,5.123474)" d="M0 0H2.16V-.18" fill="#0000ff" fill-rule="evenodd"/>
<path transform="matrix(1,0,0,-1,4.8043825,5.303467)" d="M0 0H2.1" fill="#0000ff" fill-rule="evenodd"/>
<path transform="matrix(1,0,0,-1,4.8043825,5.303467)" d="M0 0H2.1" fill="#0000ff" fill-rule="evenodd"/>
<path transform="matrix(1,0,0,-1,4.8043825,5.303467)" d="M0 0 2.04-.18H.06" fill="#0000ff" fill-rule="evenodd"/>
<path transform="matrix(1,0,0,-1,4.8043825,5.303467)" d="M0 0H2.1L2.04-.18" fill="#0000ff" fill-rule="evenodd"/>
<path transform="matrix(1,0,0,-1,4.8043825,5.303467)" d="M0 0 .06-.18H-.3" fill="#0000ff" fill-rule="evenodd"/>
<path transform="matrix(1,0,0,-1,4.8043825,5.303467)" d="M0 0 .06-.18" fill="#0000ff" fill-rule="evenodd"/>
<path transform="matrix(1,0,0,-1,4.86438,5.4834597)" d="M0 0H1.2" fill="#0000ff" fill-rule="evenodd"/>
<path transform="matrix(1,0,0,-1,4.86438,5.4834597)" d="M0 0H1.98 1.2" fill="#0000ff" fill-rule="evenodd"/>
<path transform="matrix(1,0,0,-1,7.564392,5.663452)" d="M0 0 .24-.06H-.42" fill="#0000ff" fill-rule="evenodd"/>
<path transform="matrix(1,0,0,-1,4.86438,5.4834597)" d="M0 0 1.26-.18H.06" fill="#0000ff" fill-rule="evenodd"/>
<path transform="matrix(1,0,0,-1,4.86438,5.4834597)" d="M0 0H1.2L1.26-.18" fill="#0000ff" fill-rule="evenodd"/>
<path transform="matrix(1,0,0,-1,4.5043947,5.4834597)" d="M0 0 .42-.18H-.24" fill="#0000ff" fill-rule="evenodd"/>
<path transform="matrix(1,0,0,-1,4.5043947,5.4834597)" d="M0 0H.36L.42-.18" fill="#0000ff" fill-rule="evenodd"/>
<path transform="matrix(1,0,0,-1,4.9243776,5.663452)" d="M0 0 1.26-.06H.06" fill="#0000ff" fill-rule="evenodd"/>
<path transform="matrix(1,0,0,-1,4.9243776,5.663452)" d="M0 0H1.2L1.26-.06" fill="#0000ff" fill-rule="evenodd"/>
<path transform="matrix(1,0,0,-1,4.264374,5.663452)" d="M0 0 .72-.06H-.06" fill="#0000ff" fill-rule="evenodd"/>
<path transform="matrix(1,0,0,-1,4.264374,5.663452)" d="M0 0H.66L.72-.06" fill="#0000ff" fill-rule="evenodd"/>
<path transform="matrix(1,0,0,-1,4.204376,5.7234499)" d="M0 0H.78" fill="#0000ff" fill-rule="evenodd"/>
<path transform="matrix(1,0,0,-1,4.204376,5.7234499)" d="M0 0H.78" fill="#0000ff" fill-rule="evenodd"/>
<path transform="matrix(1,0,0,-1,4.204376,5.7234499)" d="M0 0 .78-.06H-.06" fill="#0000ff" fill-rule="evenodd"/>
<path transform="matrix(1,0,0,-1,4.204376,5.7234499)" d="M0 0H.78V-.06" fill="#0000ff" fill-rule="evenodd"/>
<path transform="matrix(1,0,0,-1,7.1443789,5.7234499)" d="M0 0 .78-.06H-.96" fill="#0000ff" fill-rule="evenodd"/>
<path transform="matrix(1,0,0,-1,7.1443789,5.7234499)" d="M0 0H.66L.78-.06" fill="#0000ff" fill-rule="evenodd"/>
<path transform="matrix(1,0,0,-1,4.984375,5.7234499)" d="M0 0 1.2-.06H0" fill="#0000ff" fill-rule="evenodd"/>
<path transform="matrix(1,0,0,-1,4.984375,5.7234499)" d="M0 0H1.2V-.06" fill="#0000ff" fill-rule="evenodd"/>
<path transform="matrix(1,0,0,-1,4.984375,5.7834475)" d="M0 0 3-.06H.06" fill="#0000ff" fill-rule="evenodd"/>
<path transform="matrix(1,0,0,-1,4.984375,5.7834475)" d="M0 0H2.94L3-.06" fill="#0000ff" fill-rule="evenodd"/>
<path transform="matrix(1,0,0,-1,4.1443789,5.7834475)" d="M0 0 .6-.12H-.06" fill="#0000ff" fill-rule="evenodd"/>
<path transform="matrix(1,0,0,-1,4.1443789,5.7834475)" d="M0 0H.84L.6-.12" fill="#0000ff" fill-rule="evenodd"/>
<path transform="matrix(1,0,0,-1,4.084381,5.9034426)" d="M0 0 .54-.06H-.12" fill="#0000ff" fill-rule="evenodd"/>
<path transform="matrix(1,0,0,-1,4.084381,5.9034426)" d="M0 0H.66L.54-.06" fill="#0000ff" fill-rule="evenodd"/>
<path transform="matrix(1,0,0,-1,3.964386,5.96344)" d="M0 0 .6-.06H0" fill="#0000ff" fill-rule="evenodd"/>
<path transform="matrix(1,0,0,-1,3.964386,5.96344)" d="M0 0H.66L.6-.06" fill="#0000ff" fill-rule="evenodd"/>
<path transform="matrix(1,0,0,-1,3.964386,6.0234377)" d="M0 0 .42-.24H-.12" fill="#0000ff" fill-rule="evenodd"/>
<path transform="matrix(1,0,0,-1,3.964386,6.0234377)" d="M0 0H.6L.42-.24" fill="#0000ff" fill-rule="evenodd"/>
<path transform="matrix(1,0,0,-1,3.8443909,6.2634279)" d="M0 0H.48-.06" fill="#0000ff" fill-rule="evenodd"/>
<path transform="matrix(1,0,0,-1,3.8443909,6.2634279)" d="M0 0H.54 .48" fill="#0000ff" fill-rule="evenodd"/>
<path transform="matrix(1,0,0,-1,3.7843934,6.2634279)" d="M0 0 .48-.24H-.06" fill="#0000ff" fill-rule="evenodd"/>
<path transform="matrix(1,0,0,-1,3.7843934,6.2634279)" d="M0 0H.54L.48-.24" fill="#0000ff" fill-rule="evenodd"/>
<path transform="matrix(1,0,0,-1,5.0443727,5.843445)" d="M0 0 3.18-.66H.24" fill="#0000ff" fill-rule="evenodd"/>
<path transform="matrix(1,0,0,-1,5.0443727,5.843445)" d="M0 0H2.94L3.18-.66" fill="#0000ff" fill-rule="evenodd"/>
<path transform="matrix(1,0,0,-1,7.3243715,6.503479)" d="M0 0V-.06H-.54" fill="#0000ff" fill-rule="evenodd"/>
<path transform="matrix(1,0,0,-1,7.3843996,6.503479)" d="M0 0H.84" fill="#0000ff" fill-rule="evenodd"/>
<path transform="matrix(1,0,0,-1,7.3843996,6.503479)" d="M0 0H.84" fill="#0000ff" fill-rule="evenodd"/>
<path transform="matrix(1,0,0,-1,5.2843935,6.503479)" d="M0 0H2.04" fill="#0000ff" fill-rule="evenodd"/>
<path transform="matrix(1,0,0,-1,5.2843935,6.503479)" d="M0 0H2.1 2.04" fill="#0000ff" fill-rule="evenodd"/>
<path transform="matrix(1,0,0,-1,5.2843935,6.503479)" d="M0 0 1.5-.06H0" fill="#0000ff" fill-rule="evenodd"/>
<path transform="matrix(1,0,0,-1,5.2843935,6.503479)" d="M0 0H2.04L1.5-.06" fill="#0000ff" fill-rule="evenodd"/>
<path transform="matrix(1,0,0,-1,5.344391,6.623474)" d="M0 0H.42L0-.06" fill="#0000ff" fill-rule="evenodd"/>
<path transform="matrix(1,0,0,-1,5.2843935,6.5634768)" d="M0 0 .48-.06H.06" fill="#0000ff" fill-rule="evenodd"/>
<path transform="matrix(1,0,0,-1,5.2843935,6.5634768)" d="M0 0H1.5L.48-.06" fill="#0000ff" fill-rule="evenodd"/>
<path transform="matrix(1,0,0,-1,3.7243958,6.503479)" d="M0 0 .48-.12H0" fill="#0000ff" fill-rule="evenodd"/>
<path transform="matrix(1,0,0,-1,3.7243958,6.503479)" d="M0 0H.54L.48-.12" fill="#0000ff" fill-rule="evenodd"/>
<path transform="matrix(1,0,0,-1,3.7243958,6.623474)" d="M0 0 .42-.12H-.06" fill="#0000ff" fill-rule="evenodd"/>
<path transform="matrix(1,0,0,-1,3.7243958,6.623474)" d="M0 0H.48L.42-.12" fill="#0000ff" fill-rule="evenodd"/>
<path transform="matrix(1,0,0,-1,6.7843935,6.5634768)" d="M0 0 .6-.24H.06" fill="#0000ff" fill-rule="evenodd"/>
<path transform="matrix(1,0,0,-1,6.7843935,6.5634768)" d="M0 0H.54L.6-.24" fill="#0000ff" fill-rule="evenodd"/>
<path transform="matrix(1,0,0,-1,6.844391,6.803467)" d="M0 0 .54-.06H0" fill="#0000ff" fill-rule="evenodd"/>
<path transform="matrix(1,0,0,-1,6.844391,6.803467)" d="M0 0H.54V-.06" fill="#0000ff" fill-rule="evenodd"/>
<path transform="matrix(1,0,0,-1,3.6643983,6.743469)" d="M0 0 .48-.24H0" fill="#0000ff" fill-rule="evenodd"/>
<path transform="matrix(1,0,0,-1,3.6643983,6.743469)" d="M0 0H.48V-.24" fill="#0000ff" fill-rule="evenodd"/>
<path transform="matrix(1,0,0,-1,3.6643983,6.9834597)" d="M0 0H.48" fill="#0000ff" fill-rule="evenodd"/>
<path transform="matrix(1,0,0,-1,3.6643983,6.9834597)" d="M0 0H.48" fill="#0000ff" fill-rule="evenodd"/>
<path transform="matrix(1,0,0,-1,6.844391,6.8634645)" d="M0 0 .54-.18H0" fill="#0000ff" fill-rule="evenodd"/>
<path transform="matrix(1,0,0,-1,6.844391,6.8634645)" d="M0 0H.54V-.18" fill="#0000ff" fill-rule="evenodd"/>
<path transform="matrix(1,0,0,-1,6.844391,7.043457)" d="M0 0 .54-.18H0" fill="#0000ff" fill-rule="evenodd"/>
<path transform="matrix(1,0,0,-1,6.844391,7.043457)" d="M0 0H.54V-.18" fill="#0000ff" fill-rule="evenodd"/>
<path transform="matrix(1,0,0,-1,3.6643983,6.9834597)" d="M0 0 .48-.3H0" fill="#0000ff" fill-rule="evenodd"/>
<path transform="matrix(1,0,0,-1,3.6643983,6.9834597)" d="M0 0H.48V-.3" fill="#0000ff" fill-rule="evenodd"/>
<path transform="matrix(1,0,0,-1,6.844391,7.2234499)" d="M0 0 .54-.12H0" fill="#0000ff" fill-rule="evenodd"/>
<path transform="matrix(1,0,0,-1,6.844391,7.2234499)" d="M0 0H.54V-.12" fill="#0000ff" fill-rule="evenodd"/>
<path transform="matrix(1,0,0,-1,3.6643983,7.2834475)" d="M0 0 .54-.06H0" fill="#0000ff" fill-rule="evenodd"/>
<path transform="matrix(1,0,0,-1,3.6643983,7.2834475)" d="M0 0H.48L.54-.06" fill="#0000ff" fill-rule="evenodd"/>
<path transform="matrix(1,0,0,-1,3.6643983,7.343445)" d="M0 0 .6-.18H.06" fill="#0000ff" fill-rule="evenodd"/>
<path transform="matrix(1,0,0,-1,3.6643983,7.343445)" d="M0 0H.54L.6-.18" fill="#0000ff" fill-rule="evenodd"/>
<path transform="matrix(1,0,0,-1,6.844391,7.343445)" d="M0 0 .48-.24H-.06" fill="#0000ff" fill-rule="evenodd"/>
<path transform="matrix(1,0,0,-1,6.844391,7.343445)" d="M0 0H.54L.48-.24" fill="#0000ff" fill-rule="evenodd"/>
<path transform="matrix(1,0,0,-1,6.7843935,7.583435)" d="M0 0H.54-.06" fill="#0000ff" fill-rule="evenodd"/>
<path transform="matrix(1,0,0,-1,6.7843935,7.583435)" d="M0 0H.54" fill="#0000ff" fill-rule="evenodd"/>
<path transform="matrix(1,0,0,-1,3.7243958,7.5234377)" d="M0 0 .6-.18H.06" fill="#0000ff" fill-rule="evenodd"/>
<path transform="matrix(1,0,0,-1,3.7243958,7.5234377)" d="M0 0H.54L.6-.18" fill="#0000ff" fill-rule="evenodd"/>
<path transform="matrix(1,0,0,-1,3.7843934,7.70343)" d="M0 0 .6-.06H0" fill="#0000ff" fill-rule="evenodd"/>
<path transform="matrix(1,0,0,-1,3.7843934,7.70343)" d="M0 0H.54L.6-.06" fill="#0000ff" fill-rule="evenodd"/>
<path transform="matrix(1,0,0,-1,6.7243959,7.583435)" d="M0 0 .48-.24H-.12" fill="#0000ff" fill-rule="evenodd"/>
<path transform="matrix(1,0,0,-1,6.7243959,7.583435)" d="M0 0H.6L.48-.24" fill="#0000ff" fill-rule="evenodd"/>
<path transform="matrix(1,0,0,-1,7.3843996,6.503479)" d="M0 0 1.32-1.38H.48" fill="#0000ff" fill-rule="evenodd"/>
<path transform="matrix(1,0,0,-1,7.3843996,6.503479)" d="M0 0H.84L1.32-1.38" fill="#0000ff" fill-rule="evenodd"/>
<path transform="matrix(1,0,0,-1,6.6044008,7.8234255)" d="M0 0 .6-.06H-.06" fill="#0000ff" fill-rule="evenodd"/>
<path transform="matrix(1,0,0,-1,6.6044008,7.8234255)" d="M0 0H.6V-.06" fill="#0000ff" fill-rule="evenodd"/>
<path transform="matrix(1,0,0,-1,3.7843934,7.7634279)" d="M0 0 .72-.18H.12" fill="#0000ff" fill-rule="evenodd"/>
<path transform="matrix(1,0,0,-1,3.7843934,7.7634279)" d="M0 0H.6L.72-.18" fill="#0000ff" fill-rule="evenodd"/>
<path transform="matrix(1,0,0,-1,6.5443727,7.883423)" d="M0 0 .54-.12H-.12" fill="#0000ff" fill-rule="evenodd"/>
<path transform="matrix(1,0,0,-1,6.5443727,7.883423)" d="M0 0H.66L.54-.12" fill="#0000ff" fill-rule="evenodd"/>
<path transform="matrix(1,0,0,-1,7.86438,8.003479)" d="M0 0H.42L.06-.12" fill="#0000ff" fill-rule="evenodd"/>
<path transform="matrix(1,0,0,-1,7.86438,7.883423)" d="M0 0 .42-.12H0" fill="#0000ff" fill-rule="evenodd"/>
<path transform="matrix(1,0,0,-1,7.86438,7.883423)" d="M0 0H.84L.42-.12" fill="#0000ff" fill-rule="evenodd"/>
<path transform="matrix(1,0,0,-1,3.9043885,7.9434206)" d="M0 0 .66-.06H0" fill="#0000ff" fill-rule="evenodd"/>
<path transform="matrix(1,0,0,-1,3.9043885,7.9434206)" d="M0 0H.6L.66-.06" fill="#0000ff" fill-rule="evenodd"/>
<path transform="matrix(1,0,0,-1,3.9043885,8.003479)" d="M0 0 .84-.12H.12" fill="#0000ff" fill-rule="evenodd"/>
<path transform="matrix(1,0,0,-1,3.9043885,8.003479)" d="M0 0H.66L.84-.12" fill="#0000ff" fill-rule="evenodd"/>
<path transform="matrix(1,0,0,-1,6.4243776,8.003479)" d="M0 0 .6-.18H-.18" fill="#0000ff" fill-rule="evenodd"/>
<path transform="matrix(1,0,0,-1,6.4243776,8.003479)" d="M0 0H.66L.6-.18" fill="#0000ff" fill-rule="evenodd"/>
<path transform="matrix(1,0,0,-1,6.244385,8.183472)" d="M0 0H.72-.06" fill="#0000ff" fill-rule="evenodd"/>
<path transform="matrix(1,0,0,-1,6.244385,8.183472)" d="M0 0H.78 .72" fill="#0000ff" fill-rule="evenodd"/>
<path transform="matrix(1,0,0,-1,4.0243837,8.123474)" d="M0 0 .96-.18H.12" fill="#0000ff" fill-rule="evenodd"/>
<path transform="matrix(1,0,0,-1,4.0243837,8.123474)" d="M0 0H.72L.96-.18" fill="#0000ff" fill-rule="evenodd"/>
<path transform="matrix(1,0,0,-1,6.184387,8.183472)" d="M0 0 .72-.12H-.18" fill="#0000ff" fill-rule="evenodd"/>
<path transform="matrix(1,0,0,-1,6.184387,8.183472)" d="M0 0H.78L.72-.12" fill="#0000ff" fill-rule="evenodd"/>
<path transform="matrix(1,0,0,-1,4.1443789,8.303467)" d="M0 0H.9" fill="#0000ff" fill-rule="evenodd"/>
<path transform="matrix(1,0,0,-1,4.1443789,8.303467)" d="M0 0H.9" fill="#0000ff" fill-rule="evenodd"/>
<path transform="matrix(1,0,0,-1,4.1443789,8.303467)" d="M0 0 1.08-.06H.06" fill="#0000ff" fill-rule="evenodd"/>
<path transform="matrix(1,0,0,-1,4.1443789,8.303467)" d="M0 0H.9L1.08-.06" fill="#0000ff" fill-rule="evenodd"/>
<path transform="matrix(1,0,0,-1,6.0043947,8.303467)" d="M0 0 .84-.06H-.24" fill="#0000ff" fill-rule="evenodd"/>
<path transform="matrix(1,0,0,-1,6.0043947,8.303467)" d="M0 0H.9L.84-.06" fill="#0000ff" fill-rule="evenodd"/>
<path transform="matrix(1,0,0,-1,5.764374,8.363464)" d="M0 0H1.02-.3" fill="#0000ff" fill-rule="evenodd"/>
<path transform="matrix(1,0,0,-1,5.764374,8.363464)" d="M0 0H1.08 1.02" fill="#0000ff" fill-rule="evenodd"/>
<path transform="matrix(1,0,0,-1,4.204376,8.363464)" d="M0 0H1.26 .06" fill="#0000ff" fill-rule="evenodd"/>
<path transform="matrix(1,0,0,-1,4.204376,8.363464)" d="M0 0H1.26" fill="#0000ff" fill-rule="evenodd"/>
<path transform="matrix(1,0,0,-1,4.264374,8.363464)" d="M0 0 2.46-.12H.06" fill="#0000ff" fill-rule="evenodd"/>
<path transform="matrix(1,0,0,-1,4.264374,8.363464)" d="M0 0H2.52L2.46-.12" fill="#0000ff" fill-rule="evenodd"/>
<path transform="matrix(1,0,0,-1,4.3243715,8.483459)" d="M0 0 2.28-.06H.12" fill="#0000ff" fill-rule="evenodd"/>
<path transform="matrix(1,0,0,-1,4.3243715,8.483459)" d="M0 0H2.4L2.28-.06" fill="#0000ff" fill-rule="evenodd"/>
<path transform="matrix(1,0,0,-1,4.444397,8.543457)" d="M0 0 1.98-.12H.18" fill="#0000ff" fill-rule="evenodd"/>
<path transform="matrix(1,0,0,-1,4.444397,8.543457)" d="M0 0H2.16L1.98-.12" fill="#0000ff" fill-rule="evenodd"/>
<path transform="matrix(1,0,0,-1,4.6243898,8.663452)" d="M0 0 1.68-.06H.12" fill="#0000ff" fill-rule="evenodd"/>
<path transform="matrix(1,0,0,-1,4.6243898,8.663452)" d="M0 0H1.8L1.68-.06" fill="#0000ff" fill-rule="evenodd"/>
<path transform="matrix(1,0,0,-1,4.744385,8.72345)" d="M0 0 1.38-.06H.18" fill="#0000ff" fill-rule="evenodd"/>
<path transform="matrix(1,0,0,-1,4.744385,8.72345)" d="M0 0H1.56L1.38-.06" fill="#0000ff" fill-rule="evenodd"/>
<path transform="matrix(1,0,0,-1,4.9243776,8.783447)" d="M0 0 1.02-.06H.12" fill="#0000ff" fill-rule="evenodd"/>
<path transform="matrix(1,0,0,-1,4.9243776,8.783447)" d="M0 0H1.2L1.02-.06" fill="#0000ff" fill-rule="evenodd"/>
<path transform="matrix(1,0,0,-1,5.344391,8.903442)" d="M0 0H.42 .06" fill="#0000ff" fill-rule="evenodd"/>
<path transform="matrix(1,0,0,-1,5.0443727,8.843445)" d="M0 0 .72-.06H.3" fill="#0000ff" fill-rule="evenodd"/>
<path transform="matrix(1,0,0,-1,5.0443727,8.843445)" d="M0 0H.9L.72-.06" fill="#0000ff" fill-rule="evenodd"/>
<path transform="matrix(1,0,0,-1,-486.5356,678.32247)" stroke-width=".72" stroke-linecap="round" stroke-linejoin="round" fill="none" stroke="#0000ff" d="M489.12 675.779H503.46V668.93899H489.12Z"/>
<path transform="matrix(1,0,0,-1,12.184387,4.043457)" d="M0 0 .78-.6H0" fill="#0000ff" fill-rule="evenodd"/>
<path transform="matrix(1,0,0,-1,12.184387,4.043457)" d="M0 0H.78V-.6" fill="#0000ff" fill-rule="evenodd"/>
<path transform="matrix(1,0,0,-1,9.784393,4.043457)" d="M0 0 .78-.6H0" fill="#0000ff" fill-rule="evenodd"/>
<path transform="matrix(1,0,0,-1,9.784393,4.043457)" d="M0 0H.78V-.6" fill="#0000ff" fill-rule="evenodd"/>
<path transform="matrix(1,0,0,-1,12.184387,4.6434328)" d="M0 0 .78-.06H0" fill="#0000ff" fill-rule="evenodd"/>
<path transform="matrix(1,0,0,-1,12.184387,4.6434328)" d="M0 0H.78V-.06" fill="#0000ff" fill-rule="evenodd"/>
<path transform="matrix(1,0,0,-1,9.784393,4.6434328)" d="M0 0 .78-.06H0" fill="#0000ff" fill-rule="evenodd"/>
<path transform="matrix(1,0,0,-1,9.784393,4.6434328)" d="M0 0H.78V-.06" fill="#0000ff" fill-rule="evenodd"/>
<path transform="matrix(1,0,0,-1,13.62439,4.043457)" d="M0 0 2.4-.72H0" fill="#0000ff" fill-rule="evenodd"/>
<path transform="matrix(1,0,0,-1,13.62439,4.043457)" d="M0 0H2.4V-.72" fill="#0000ff" fill-rule="evenodd"/>
<path transform="matrix(1,0,0,-1,12.184387,4.70343)" d="M0 0 .78-.54H0" fill="#0000ff" fill-rule="evenodd"/>
<path transform="matrix(1,0,0,-1,12.184387,4.70343)" d="M0 0H.78V-.54" fill="#0000ff" fill-rule="evenodd"/>
<path transform="matrix(1,0,0,-1,9.784393,4.70343)" d="M0 0 .78-.54H0" fill="#0000ff" fill-rule="evenodd"/>
<path transform="matrix(1,0,0,-1,9.784393,4.70343)" d="M0 0H.78V-.54" fill="#0000ff" fill-rule="evenodd"/>
<path transform="matrix(1,0,0,-1,12.184387,5.243469)" d="M0 0 .78-.18H0" fill="#0000ff" fill-rule="evenodd"/>
<path transform="matrix(1,0,0,-1,12.184387,5.243469)" d="M0 0H.78V-.18" fill="#0000ff" fill-rule="evenodd"/>
<path transform="matrix(1,0,0,-1,9.784393,5.243469)" d="M0 0 .78-.18H0" fill="#0000ff" fill-rule="evenodd"/>
<path transform="matrix(1,0,0,-1,9.784393,5.243469)" d="M0 0H.78V-.18" fill="#0000ff" fill-rule="evenodd"/>
<path transform="matrix(1,0,0,-1,12.184387,5.423462)" d="M0 0 .78-.42H0" fill="#0000ff" fill-rule="evenodd"/>
<path transform="matrix(1,0,0,-1,12.184387,5.423462)" d="M0 0H.78V-.42" fill="#0000ff" fill-rule="evenodd"/>
<path transform="matrix(1,0,0,-1,9.784393,5.423462)" d="M0 0 .78-.42H0" fill="#0000ff" fill-rule="evenodd"/>
<path transform="matrix(1,0,0,-1,9.784393,5.423462)" d="M0 0H.78V-.42" fill="#0000ff" fill-rule="evenodd"/>
<path transform="matrix(1,0,0,-1,12.184387,5.843445)" d="M0 0 .78-.24H0" fill="#0000ff" fill-rule="evenodd"/>
<path transform="matrix(1,0,0,-1,12.184387,5.843445)" d="M0 0H.78V-.24" fill="#0000ff" fill-rule="evenodd"/>
<path transform="matrix(1,0,0,-1,9.784393,5.843445)" d="M0 0 .78-.24H0" fill="#0000ff" fill-rule="evenodd"/>
<path transform="matrix(1,0,0,-1,9.784393,5.843445)" d="M0 0H.78V-.24" fill="#0000ff" fill-rule="evenodd"/>
<path transform="matrix(1,0,0,-1,12.184387,6.083435)" d="M0 0 .78-.42H0" fill="#0000ff" fill-rule="evenodd"/>
<path transform="matrix(1,0,0,-1,12.184387,6.083435)" d="M0 0H.78V-.42" fill="#0000ff" fill-rule="evenodd"/>
<path transform="matrix(1,0,0,-1,9.784393,6.083435)" d="M0 0 .78-.42H0" fill="#0000ff" fill-rule="evenodd"/>
<path transform="matrix(1,0,0,-1,9.784393,6.083435)" d="M0 0H.78V-.42" fill="#0000ff" fill-rule="evenodd"/>
<path transform="matrix(1,0,0,-1,12.184387,6.503479)" d="M0 0 .78-.24H0" fill="#0000ff" fill-rule="evenodd"/>
<path transform="matrix(1,0,0,-1,12.184387,6.503479)" d="M0 0H.78V-.24" fill="#0000ff" fill-rule="evenodd"/>
<path transform="matrix(1,0,0,-1,9.784393,6.503479)" d="M0 0 .78-.24H0" fill="#0000ff" fill-rule="evenodd"/>
<path transform="matrix(1,0,0,-1,9.784393,6.503479)" d="M0 0H.78V-.24" fill="#0000ff" fill-rule="evenodd"/>
<path transform="matrix(1,0,0,-1,12.184387,6.743469)" d="M0 0H.78" fill="#0000ff" fill-rule="evenodd"/>
<path transform="matrix(1,0,0,-1,12.184387,6.743469)" d="M0 0H.78" fill="#0000ff" fill-rule="evenodd"/>
<path transform="matrix(1,0,0,-1,9.784393,6.743469)" d="M0 0H.78" fill="#0000ff" fill-rule="evenodd"/>
<path transform="matrix(1,0,0,-1,9.784393,6.743469)" d="M0 0H.78" fill="#0000ff" fill-rule="evenodd"/>
<path transform="matrix(1,0,0,-1,12.184387,6.743469)" d="M0 0 .78-.24H-.06" fill="#0000ff" fill-rule="evenodd"/>
<path transform="matrix(1,0,0,-1,12.184387,6.743469)" d="M0 0H.78V-.24" fill="#0000ff" fill-rule="evenodd"/>
<path transform="matrix(1,0,0,-1,9.784393,6.743469)" d="M0 0 .84-.24H0" fill="#0000ff" fill-rule="evenodd"/>
<path transform="matrix(1,0,0,-1,9.784393,6.743469)" d="M0 0H.78L.84-.24" fill="#0000ff" fill-rule="evenodd"/>
<path transform="matrix(1,0,0,-1,12.12439,6.9834597)" d="M0 0 .78-.24H-.12" fill="#0000ff" fill-rule="evenodd"/>
<path transform="matrix(1,0,0,-1,12.12439,6.9834597)" d="M0 0H.84L.78-.24" fill="#0000ff" fill-rule="evenodd"/>
<path transform="matrix(1,0,0,-1,9.784393,6.9834597)" d="M0 0 .96-.24H.06" fill="#0000ff" fill-rule="evenodd"/>
<path transform="matrix(1,0,0,-1,9.784393,6.9834597)" d="M0 0H.84L.96-.24" fill="#0000ff" fill-rule="evenodd"/>
<path transform="matrix(1,0,0,-1,12.004395,7.2234499)" d="M0 0 .9-.06H-.06" fill="#0000ff" fill-rule="evenodd"/>
<path transform="matrix(1,0,0,-1,12.004395,7.2234499)" d="M0 0H.9V-.06" fill="#0000ff" fill-rule="evenodd"/>
<path transform="matrix(1,0,0,-1,9.844391,7.2234499)" d="M0 0 .96-.06H0" fill="#0000ff" fill-rule="evenodd"/>
<path transform="matrix(1,0,0,-1,9.844391,7.2234499)" d="M0 0H.9L.96-.06" fill="#0000ff" fill-rule="evenodd"/>
<path transform="matrix(1,0,0,-1,11.944397,7.2834475)" d="M0 0 .9-.12H-.18" fill="#0000ff" fill-rule="evenodd"/>
<path transform="matrix(1,0,0,-1,11.944397,7.2834475)" d="M0 0H.96L.9-.12" fill="#0000ff" fill-rule="evenodd"/>
<path transform="matrix(1,0,0,-1,9.844391,7.2834475)" d="M0 0 1.14-.12H.06" fill="#0000ff" fill-rule="evenodd"/>
<path transform="matrix(1,0,0,-1,9.844391,7.2834475)" d="M0 0H.96L1.14-.12" fill="#0000ff" fill-rule="evenodd"/>
<path transform="matrix(1,0,0,-1,11.764374,7.4034426)" d="M0 0 1.02-.06H-.42" fill="#0000ff" fill-rule="evenodd"/>
<path transform="matrix(1,0,0,-1,11.764374,7.4034426)" d="M0 0H1.08L1.02-.06" fill="#0000ff" fill-rule="evenodd"/>
<path transform="matrix(1,0,0,-1,9.904388,7.4034426)" d="M0 0 1.44-.06H.06" fill="#0000ff" fill-rule="evenodd"/>
<path transform="matrix(1,0,0,-1,9.904388,7.4034426)" d="M0 0H1.08L1.44-.06" fill="#0000ff" fill-rule="evenodd"/>
<path transform="matrix(1,0,0,-1,9.964386,7.46344)" d="M0 0 2.7-.18H.12" fill="#0000ff" fill-rule="evenodd"/>
<path transform="matrix(1,0,0,-1,9.964386,7.46344)" d="M0 0H2.82L2.7-.18" fill="#0000ff" fill-rule="evenodd"/>
<path transform="matrix(1,0,0,-1,10.084381,7.6434328)" d="M0 0 2.22-.3H.36" fill="#0000ff" fill-rule="evenodd"/>
<path transform="matrix(1,0,0,-1,10.084381,7.6434328)" d="M0 0H2.58L2.22-.3" fill="#0000ff" fill-rule="evenodd"/>
<path transform="matrix(1,0,0,-1,10.86438,8.063477)" d="M0 0H1.02L.48-.12" fill="#0000ff" fill-rule="evenodd"/>
<path transform="matrix(1,0,0,-1,10.444397,7.9434206)" d="M0 0 1.44-.12H.42" fill="#0000ff" fill-rule="evenodd"/>
<path transform="matrix(1,0,0,-1,10.444397,7.9434206)" d="M0 0H1.86L1.44-.12" fill="#0000ff" fill-rule="evenodd"/>
<path transform="matrix(1,0,0,-1,14.404388,4.7634279)" d="M0 0 .84-3.42H0" fill="#0000ff" fill-rule="evenodd"/>
<path transform="matrix(1,0,0,-1,14.404388,4.7634279)" d="M0 0H.84V-3.42" fill="#0000ff" fill-rule="evenodd"/>
<path transform="matrix(1,0,0,-1,15.244385,8.183472)" stroke-width=".72" stroke-linecap="round" stroke-linejoin="round" fill="none" stroke="#0000ff" d="M0 0H-.84V3.42"/>
<path transform="matrix(1,0,0,-1,15.244385,4.7634718)" stroke-width=".72" stroke-linecap="round" stroke-linejoin="round" fill="none" stroke="#0000ff" d="M0 0V-3.42"/>
<path transform="matrix(1,0,0,-1,16.024386,4.0434715)" stroke-width=".72" stroke-linecap="round" stroke-linejoin="round" fill="none" stroke="#0000ff" d="M0 0V-.72H-.78"/>
<path transform="matrix(1,0,0,-1,13.624386,4.7634718)" stroke-width=".72" stroke-linecap="round" stroke-linejoin="round" fill="none" stroke="#0000ff" d="M0 0H.78"/>
<path transform="matrix(1,0,0,-1,16.024386,4.0434715)" stroke-width=".72" stroke-linecap="round" stroke-linejoin="round" fill="none" stroke="#0000ff" d="M0 0H-2.4V-.72"/>
<path transform="matrix(1,0,0,-1,10.564385,5.243471)" stroke-width=".72" stroke-linecap="round" stroke-linejoin="round" fill="none" stroke="#0000ff" d="M0 0V1.2H-.78V-.18C-.7-1.257-1.17-2.516 .3-2.82L.78-2.94 1.32-2.82C2.79-2.516 2.32-1.257 2.4-.18V1.2H1.62V-1.5L1.56-1.74 1.44-1.98 1.2-2.16 .78-2.22 .42-2.16 .18-1.98 .06-1.74 0-1.5V0Z"/>
</g>
</g>
</svg>
