<svg xmlns="http://www.w3.org/2000/svg" xmlns:xlink="http://www.w3.org/1999/xlink" xmlns:inkscape="http://www.inkscape.org/namespaces/inkscape" version="1.1" width="95.736" height="62.244" viewBox="0 0 95.736 62.244">
<defs>
<clipPath id="clip_1">
<path transform="matrix(1,0,0,-1,2,60.244)" d="M0 0H91.73598V58.244H0Z"/>
</clipPath>
<path id="font_2_39" d="M.47898866 .23098755V.46299745H.45599366C.44499208 .38398744 .42799378 .36999513 .34599305 .36799623H.20098877V.58999636C.20199585 .6199951 .20498657 .6230011 .23298645 .6239929H.36898805C.4850006 .621994 .5049896 .60798647 .5209961 .5189972H.54599L.54299929 .6619873H.011993408V.6429901C.084991458 .6380005 .09700012 .625 .09899902 .5529938V.11999512C.09799194 .034988405 .08799744 .023986817 .011993408 .018997193V0H.2919922V.018997193C.21598816 .021987915 .20199585 .035995485 .20098877 .10899353V.32699586H.34599305C.42799378 .32598878 .44400025 .31199647 .45599366 .23098755H.47898866Z"/>
<path id="font_2_0" d=""/>
<path id="font_2_51" d="M.6589966 .018997193C.62098696 .021987915 .6009979 .03199768 .57199099 .06599426L.3659973 .31900025C.49299623 .34399415 .5469971 .3939972 .5469971 .48599244 .5469971 .5289917 .5339966 .56599429 .5079956 .59498599 .46998597 .6359863 .38598634 .6619873 .29299928 .6619873H.016998291V.6429901C.09098816 .6349945 .100997928 .6259918 .101989749 .5529938V.11999512C.100997928 .034988405 .09199524 .024993897 .016998291 .018997193V0H.2939911V.018997193C.21699524 .023986817 .20498657 .035995485 .20399475 .10899353V.30599977L.2599945 .30799867 .49798585 0H.6589966V.018997193M.20399475 .58898928C.20399475 .61698916 .21499634 .625 .25498963 .625 .37998963 .625 .43798829 .58200076 .43798829 .48799134 .43798829 .43798829 .4169922 .3959961 .3809967 .3769989 .33499146 .35099793 .2999878 .34498597 .20399475 .34298707V.58898928Z"/>
<path id="font_2_44" d="M.41299439 .6429901C.47299195 .6399994 .48098756 .6359863 .48098756 .6119995 .48098756 .58999636 .45799256 .55999758 .40299989 .5089874L.22599793 .34799195V.5529938C.22698975 .6279907 .23699951 .6369934 .31799317 .6429901V.6619873H.033996583V.6429901C.11099243 .6380005 .12199402 .6259918 .12399292 .5529938V.11999512C.12298584 .034988405 .11199951 .023986817 .033996583 .018997193V0H.31599427V.018997193C.23899842 .023986817 .22698975 .034988405 .22599793 .10899353V.29599L.2519989 .31698609 .35798646 .21199036C.43499757 .1349945 .48799134 .06599426 .48799134 .041992189 .48799134 .026992798 .47499085 .020996094 .44599916 .019989014 .44099427 .019989014 .42999269 .019989014 .41799928 .018997193V0H.72299197V.018997193C.67099 .019989014 .6569977 .02999878 .56599429 .1269989L.33299256 .3769989 .522995 .5649872C.59098818 .6299896 .6069946 .6380005 .6749878 .6429901V.6619873H.41299439V.6429901Z"/>
<path id="font_2_45" d="M.2939911 .6619873H.011993408V.6429901C.084991458 .6380005 .09700012 .625 .09899902 .5529938V.10899353C.09700012 .036987306 .083999637 .022994996 .011993408 .018997193V0H.5499878L.59799197 .17399597H.57299807C.526001 .068984989 .48298646 .042999269 .35398866 .038986207H.2869873C.20999146 .040985109 .20199585 .04399109 .20098877 .07998657V.5529938C.20298767 .6259918 .21598816 .6389923 .2939911 .6429901V.6619873Z"/>
<path id="font_2_34" d="M.70599368 .018997193C.6609955 .021987915 .651001 .03199768 .6159973 .10598755L.36698915 .673996H.34700013L.13899231 .18299866C.07499695 .036987306 .06298828 .020996094 .01499939 .018997193V0H.21299744V.018997193C.16499329 .018997193 .14498902 .0309906 .14498902 .05999756 .14498902 .07199097 .147995 .085998538 .15299988 .09899902L.19898987 .21598816H.46099855L.5019989 .11999512C.5139923 .09298706 .5209961 .066986087 .5209961 .052993776 .5209961 .027999878 .5039978 .019989014 .45098878 .018997193V0H.70599368V.018997193M.21598816 .25698854 .33099366 .5319977 .44699098 .25698854H.21598816Z"/>
<path id="font_2_42" d="M.017990113 0H.31498719V.018997193C.23298645 .020996094 .21899414 .034988405 .21699524 .10899353V.5529938C.21899414 .6279907 .23199463 .6399994 .31498719 .6429901V.6619873H.017990113V.6429901C.102996829 .6380005 .11399841 .6279907 .114990238 .5529938V.10899353C.11399841 .032989503 .101989749 .021987915 .017990113 .018997193V0Z"/>
<path id="font_2_47" d="M.70700076 .6619873H.47200013V.6429901C.5519867 .6380005 .5649872 .62098696 .56799319 .5149994V.17799378L.18299866 .6619873H.011993408V.6429901C.054992677 .6429901 .068984989 .6349945 .10899353 .58799746V.14698792C.10699463 .040985109 .09399414 .023986817 .011993408 .018997193V0H.24699402V.018997193C.16999817 .022994996 .15499878 .04399109 .15299988 .14698792V.5389862L.59498599-.011001587H.6119995V.5149994C.61499026 .61898806 .6279907 .6359863 .70700076 .6429901V.6619873Z"/>
<path id="font_2_40" d="M.70899966 .35398866H.45399476V.33599855C.5319977 .33099366 .5399933 .32299806 .5419922 .24699402V.084991458C.5419922 .052993776 .48199464 .025985718 .40899659 .025985718 .24598694 .025985718 .1459961 .13999939 .1459961 .32598878 .1459961 .41999818 .17399597 .5109863 .21798706 .55999758 .26098634 .60899356 .32398988 .6359863 .3919983 .6359863 .44799806 .6359863 .49798585 .61698916 .5359955 .58099368 .56599429 .5519867 .58200076 .526001 .6069946 .46499635H.6299896L.621994 .6759949H.59999087C.59399417 .6559906 .57598879 .6429901 .5549927 .6429901 .54499819 .6429901 .5289917 .6459961 .5109863 .6529999 .46598817 .66799929 .4189911 .6759949 .37399293 .6759949 .1749878 .6759949 .03199768 .5289917 .03199768 .32499696 .03199768 .22698975 .05899048 .1519928 .114990238 .09298706 .18099976 .023986817 .27799989-.014007568 .3880005-.014007568 .47499085-.014007568 .598999 .020996094 .6389923 .055999757V.25898744C.6409912 .31999208 .6519928 .33198548 .70899966 .33599855V.35398866Z"/>
<path id="font_2_35" d="M.016998291 .6429901C.100997928 .6380005 .11199951 .6279907 .11299133 .5529938V.10899353C.11199951 .033996583 .09899902 .021987915 .016998291 .018997193V0H.35099793C.42799378 0 .5 .020996094 .5369873 .054992677 .57299807 .08699036 .59298709 .13198853 .59298709 .17999268 .59298709 .22399903 .57598879 .2639923 .5439911 .29299928 .5139923 .31999208 .4869995 .33198548 .42199708 .34799195 .47399903 .36099244 .49499513 .37098695 .5189972 .3919983 .5439911 .4139862 .5589905 .44999696 .5589905 .49198915 .5589905 .60398867 .46899415 .6619873 .29699708 .6619873H.016998291V.6429901M.21499634 .32598878C.31199647 .32598878 .35798646 .31999208 .3939972 .30499269 .45098878 .28199769 .47799684 .24099732 .47799684 .1789856 .47799684 .125 .45700074 .085998538 .4169922 .06298828 .3849945 .04499817 .34399415 .036987306 .27799989 .036987306 .22898865 .036987306 .21499634 .04598999 .21499634 .07798767V.32598878M.21499634 .36499024V.59498599C.21598816 .61698916 .21998596 .6230011 .23699951 .6239929L.2809906 .625C.3919983 .6279907 .45700074 .57699587 .45700074 .48799134 .45700074 .40899659 .4059906 .36698915 .30999757 .3659973L.21499634 .36499024Z"/>
<path id="font_2_37" d="M.015991211 0H.2999878C.41600038 0 .5209961 .032989503 .58299258 .08898926 .647995 .147995 .68499758 .23699951 .68499758 .33399964 .68499758 .42399598 .6559906 .5019989 .59999087 .5569916 .5319977 .6259918 .4229889 .6619873 .28599549 .6619873H.015991211V.6429901C.09498596 .6359863 .102996829 .6279907 .10398865 .5529938V.10899353C.102996829 .035995485 .09098816 .023986817 .015991211 .018997193V0M.20599365 .58599856C.20599365 .61698916 .21598816 .625 .2579956 .625 .34498597 .625 .40899659 .60899356 .45700074 .57499697 .5349884 .5209961 .57598879 .43499757 .57598879 .32699586 .57598879 .20899964 .5349884 .125 .45399476 .07798767 .40299989 .04899597 .34498597 .036987306 .2579956 .036987306 .21798706 .036987306 .20599365 .04598999 .20599365 .07798767V.58599856Z"/>
<path id="font_2_46" d="M.86299136 .6619873H.6639862L.44299317 .15699768 .21199036 .6619873H.01399231V.6429901C.09599304 .6389923 .10699463 .6279907 .10899353 .5529938V.14698792C.10699463 .040985109 .09399414 .023986817 .011993408 .018997193V0H.24699402V.018997193C.16999817 .022994996 .15499878 .04399109 .15299988 .14698792V.5499878L.4039917 0H.41799928L.673996 .57299807V.11999512C.6729889 .034988405 .6619873 .023986817 .58299258 .018997193V0H.86299136V.018997193C.79100039 .022994996 .7779999 .036987306 .776001 .10899353V.5529938C.7779999 .625 .7899933 .6380005 .86299136 .6429901V.6619873Z"/>
<path id="font_2_36" d="M.6199951 .45098878 .61099246 .6759949H.58999636C.58399966 .6549988 .56799319 .6429901 .5479889 .6429901 .5389862 .6429901 .5239868 .6459961 .5089874 .651001 .45999146 .66799929 .4099884 .6759949 .36299134 .6759949 .2809906 .6759949 .19799805 .644989 .13598633 .58999636 .06599426 .5279999 .027999878 .43598939 .027999878 .32598878 .027999878 .12199402 .16099549-.014007568 .3600006-.014007568 .47299195-.014007568 .57299807 .03199768 .6329956 .11299133L.61499026 .1309967C.5419922 .05999756 .47499085 .02999878 .3919983 .02999878 .32899476 .02999878 .272995 .049987794 .22999573 .08799744 .1749878 .13699341 .14399719 .22698975 .14399719 .33898927 .14399719 .519989 .23699951 .6359863 .38198854 .6359863 .43899537 .6359863 .4909973 .61499026 .5309906 .57598879 .5629883 .5439911 .5779877 .5159912 .5970001 .45098878H.6199951Z"/>
<path id="font_2_38" d="M.5970001 .16899109H.56900027C.5209961 .06298828 .47599793 .037994386 .33299256 .036987306H.30599977C.20199585 .039993287 .20098877 .040985109 .20098877 .07998657V.32699586H.35499574C.43899537 .32499696 .45199586 .31298829 .46499635 .23098755H.48799134V.46299745H.46499635C.45298768 .38198854 .43899537 .36999513 .35499574 .36799623H.20098877V.58999636C.20199585 .6199951 .20599365 .6239929 .23399353 .6239929H.36898805C.4850006 .621994 .5049896 .60798647 .5209961 .5189972H.54599L.54299929 .6619873H.011993408V.6429901C.084991458 .6380005 .09700012 .625 .09899902 .5529938V.10899353C.09700012 .036987306 .083999637 .022994996 .011993408 .018997193V0H.5519867L.5970001 .16899109Z"/>
<path id="font_2_53" d="M.45199586 .018997193C.36999513 .022994996 .35699464 .034988405 .35598756 .10899353V.6199951H.4099884C.526001 .6179962 .5469971 .6009979 .56900027 .49198915H.59298709L.58699038 .6619873H.022994996L.016998291 .49198915H.040985109C.06399536 .6009979 .084991458 .6179962 .19999695 .6199951H.2539978V.11999512C.25299073 .033996583 .24398804 .023986817 .1599884 .018997193V0H.45199586V.018997193Z"/>
<path id="font_2_48" d="M.36099244 .6759949C.16999817 .6759949 .033996583 .5329895 .033996583 .33099366 .033996583 .23699951 .06599426 .14498902 .11999512 .08799744 .17799378 .024993897 .2669983-.014007568 .35499574-.014007568 .5519867-.014007568 .6879883 .125 .6879883 .32699586 .6879883 .42599488 .6589966 .5119934 .60398867 .57099917 .54100039 .6399994 .45700074 .6759949 .36099244 .6759949M.36099244 .6399994C.40699769 .6399994 .45298768 .621994 .4889984 .58999636 .54299929 .54100039 .57398989 .44699098 .57398989 .32798768 .57398989 .2689972 .56199648 .19999695 .54100039 .147995 .5319977 .12298584 .5149994 .09799194 .49198915 .07499695 .45700074 .039993287 .4119873 .021987915 .35899354 .021987915 .31298829 .021987915 .2679901 .039993287 .23199463 .070999149 .18099976 .116989139 .147995 .21798706 .147995 .32899476 .147995 .43099977 .17599488 .5279999 .21798706 .57499697 .25698854 .6179962 .30599977 .6399994 .36099244 .6399994Z"/>
<path id="font_2_41" d="M.018997193 0H.29699708V.018997193C.22200012 .024993897 .20999146 .036987306 .20899964 .10899353V.31498719H.5119934V.11999512C.5109863 .034988405 .5019989 .023986817 .42399598 .018997193V0H.70199587V.018997193C.6269989 .024993897 .61499026 .036987306 .6139984 .10899353V.5529938C.61499026 .6259918 .625 .6359863 .70199587 .6429901V.6619873H.42399598V.6429901C.5009918 .6369934 .5109863 .6269989 .5119934 .5529938V.35899354H.20899964V.5529938C.20999146 .6259918 .21998596 .6359863 .29699708 .6429901V.6619873H.018997193V.6429901C.09599304 .6369934 .10598755 .6269989 .10699463 .5529938V.11999512C.10598755 .034988405 .09700012 .023986817 .018997193 .018997193V0Z"/>
<path id="font_2_54" d="M.7049866 .6619873H.47299195V.6429901C.5499878 .6380005 .5649872 .6179962 .5669861 .5149994V.24499512C.5669861 .1769867 .5609894 .13899231 .5439911 .10899353 .5169983 .06098938 .45298768 .02999878 .37799073 .02999878 .30699159 .02999878 .2579956 .053985597 .23098755 .100997928 .21299744 .1329956 .20599365 .16999817 .20599365 .23298645V.5529938C.20698548 .6259918 .21699524 .6359863 .29699708 .6429901V.6619873H.01399231V.6429901C.09298706 .6369934 .102996829 .6269989 .10398865 .5529938V.24099732C.10398865 .067993167 .18499756-.014007568 .35499574-.014007568 .46398927-.014007568 .5389862 .020996094 .5779877 .08898926 .60198977 .1309967 .61099246 .1769867 .61099246 .2539978V.5149994C.61299136 .6199951 .6239929 .6339874 .7049866 .6429901V.6619873Z"/>
<path id="font_2_52" d="M.44699098 .6759949H.42599488C.42199708 .6539917 .41099549 .6419983 .3939972 .6419983 .38398744 .6419983 .36698915 .6459961 .34999085 .6539917 .31298829 .66799929 .27598573 .6759949 .24299622 .6759949 .20098877 .6759949 .15699768 .6589966 .12399292 .6299896 .08898926 .598999 .070999149 .5569916 .070999149 .5049896 .070999149 .4249878 .114990238 .36898805 .22698975 .30999757 .29899598 .2709961 .35099793 .23098755 .37599183 .19299317 .3849945 .17999268 .3899994 .15899658 .3899994 .13398743 .3899994 .067993167 .33999635 .021987915 .2669983 .021987915 .1769867 .021987915 .114990238 .07699585 .06498718 .19898987H.041992189L.07199097-.013000488H.09399414C.09498596 .005996704 .10699463 .019989014 .12199402 .019989014 .1329956 .019989014 .1499939 .015991211 .16899109 .008987427 .20698548-.006011963 .24798584-.014007568 .2869873-.014007568 .40299989-.014007568 .4909973 .06498718 .4909973 .16899109 .4909973 .25099183 .43598939 .31498719 .3039856 .3869934 .19898987 .44400025 .15699768 .48799134 .15699768 .54299929 .15699768 .59799197 .19898987 .6349945 .26098634 .6349945 .30599977 .6349945 .34799195 .6159973 .3829956 .5799866 .4139862 .5479889 .42799378 .5219879 .44400025 .46299745H.46899415L.44699098 .6759949Z"/>
<path id="font_2_49" d="M.015991211 .6429901C.08999634 .6349945 .09899902 .6259918 .099990848 .5529938V.11999512C.09899902 .034988405 .09199524 .025985718 .015991211 .018997193V0H.29599V.018997193C.21699524 .020996094 .20298767 .034988405 .20199585 .10899353V.29100038C.22799683 .2889862 .24499512 .28799439 .2709961 .28799439 .34999085 .28799439 .40299989 .2979889 .44599916 .32199098 .5059967 .35398866 .5419922 .4149933 .5419922 .48098756 .5419922 .522995 .5279999 .5609894 .5009918 .58999636 .46099855 .6339874 .37399293 .6619873 .27999879 .6619873H.015991211V.6429901M.20199585 .59098818C.20199585 .6179962 .20899964 .625 .23599243 .625 .37098695 .625 .43299867 .5779877 .43299867 .47499085 .43299867 .37799073 .37399293 .32798768 .25898744 .32798768 .23899842 .32798768 .22499085 .32899476 .20199585 .33099366V.59098818Z"/>
</defs>
<g clip-path="url(#clip_1)">
<use data-text="F" xlink:href="#font_2_39" transform="matrix(12,0,0,-12,12.707996,19.133999)"/>
<use data-text="&#xfffd;" xlink:href="#font_2_0" transform="matrix(12,0,0,-12,19.379998,19.133999)"/>
<use data-text="R" xlink:href="#font_2_51" transform="matrix(12,0,0,-12,22.379998,19.133999)"/>
<use data-text="K" xlink:href="#font_2_44" transform="matrix(12,0,0,-12,30.383999,19.133999)"/>
<use data-text="L" xlink:href="#font_2_45" transform="matrix(12,0,0,-12,39.048,19.133999)"/>
<use data-text="A" xlink:href="#font_2_34" transform="matrix(12,0,0,-12,46.38,19.133999)"/>
<use data-text="R" xlink:href="#font_2_51" transform="matrix(12,0,0,-12,55.044004,19.133999)"/>
<use data-text="I" xlink:href="#font_2_42" transform="matrix(12,0,0,-12,63.048006,19.133999)"/>
<use data-text="N" xlink:href="#font_2_47" transform="matrix(12,0,0,-12,67.04401,19.133999)"/>
<use data-text="G" xlink:href="#font_2_40" transform="matrix(12,0,0,-12,75.708,19.133999)"/>
<use data-text="A" xlink:href="#font_2_34" transform="matrix(12,0,0,-12,84.372,19.133999)"/>
<use data-text="R" xlink:href="#font_2_51" transform="matrix(12,0,0,-12,93.036,19.133999)"/>
<path transform="matrix(1,0,0,-1,12.707996,19.133999)" stroke-width=".5" stroke-linecap="butt" stroke-miterlimit="10" stroke-linejoin="miter" fill="none" stroke="#000000" d="M0-1.542H70.32"/>
<use data-text="B" xlink:href="#font_2_35" transform="matrix(8,0,0,-8,23.784,37.432)"/>
<use data-text="R" xlink:href="#font_2_51" transform="matrix(8,0,0,-8,29.12,37.432)"/>
<use data-text="A" xlink:href="#font_2_34" transform="matrix(8,0,0,-8,34.456,37.432)"/>
<use data-text="N" xlink:href="#font_2_47" transform="matrix(8,0,0,-8,40.232004,37.432)"/>
<use data-text="D" xlink:href="#font_2_37" transform="matrix(8,0,0,-8,46.008005,37.432)"/>
<use data-text="L" xlink:href="#font_2_45" transform="matrix(8,0,0,-8,51.784006,37.432)"/>
<use data-text="A" xlink:href="#font_2_34" transform="matrix(8,0,0,-8,56.672006,37.432)"/>
<use data-text="R" xlink:href="#font_2_51" transform="matrix(8,0,0,-8,62.448007,37.432)"/>
<use data-text="M" xlink:href="#font_2_46" transform="matrix(8,0,0,-8,67.78401,37.432)"/>
<use data-text="C" xlink:href="#font_2_36" transform="matrix(8,0,0,-8,74.89601,37.432)"/>
<use data-text="E" xlink:href="#font_2_38" transform="matrix(8,0,0,-8,80.23201,37.432)"/>
<use data-text="N" xlink:href="#font_2_47" transform="matrix(8,0,0,-8,85.12001,37.432)"/>
<use data-text="T" xlink:href="#font_2_53" transform="matrix(8,0,0,-8,90.89601,37.432)"/>
<use data-text="R" xlink:href="#font_2_51" transform="matrix(8,0,0,-8,95.78401,37.432)"/>
<use data-text="A" xlink:href="#font_2_34" transform="matrix(8,0,0,-8,101.12001,37.432)"/>
<use data-text="L" xlink:href="#font_2_45" transform="matrix(8,0,0,-8,106.89601,37.432)"/>
<use data-text="I" xlink:href="#font_2_42" transform="matrix(8,0,0,-8,23.784,55.216)"/>
<use data-text="N" xlink:href="#font_2_47" transform="matrix(8,0,0,-8,26.448,55.216)"/>
<use data-text="O" xlink:href="#font_2_48" transform="matrix(8,0,0,-8,32.224,55.216)"/>
<use data-text="M" xlink:href="#font_2_46" transform="matrix(8,0,0,-8,38,55.216)"/>
<use data-text="H" xlink:href="#font_2_41" transform="matrix(8,0,0,-8,45.112005,55.216)"/>
<use data-text="U" xlink:href="#font_2_54" transform="matrix(8,0,0,-8,50.888006,55.216)"/>
<use data-text="S" xlink:href="#font_2_52" transform="matrix(8,0,0,-8,56.664007,55.216)"/>
<use data-text="B" xlink:href="#font_2_35" transform="matrix(8,0,0,-8,61.112009,55.216)"/>
<use data-text="R" xlink:href="#font_2_51" transform="matrix(8,0,0,-8,66.44801,55.216)"/>
<use data-text="A" xlink:href="#font_2_34" transform="matrix(8,0,0,-8,71.78401,55.216)"/>
<use data-text="N" xlink:href="#font_2_47" transform="matrix(8,0,0,-8,77.56001,55.216)"/>
<use data-text="D" xlink:href="#font_2_37" transform="matrix(8,0,0,-8,83.33601,55.216)"/>
<use data-text="P" xlink:href="#font_2_49" transform="matrix(8,0,0,-8,89.112018,55.216)"/>
<use data-text="O" xlink:href="#font_2_48" transform="matrix(8,0,0,-8,93.56001,55.216)"/>
<use data-text="S" xlink:href="#font_2_52" transform="matrix(8,0,0,-8,99.33601,55.216)"/>
<use data-text="T" xlink:href="#font_2_53" transform="matrix(8,0,0,-8,103.78401,55.216)"/>
</g>
</svg>
