<svg xmlns="http://www.w3.org/2000/svg" xmlns:xlink="http://www.w3.org/1999/xlink" xmlns:inkscape="http://www.inkscape.org/namespaces/inkscape" version="1.1" width="19.75" height="16" viewBox="0 0 19.75 16">
<defs>
<clipPath id="clip_1">
<path transform="matrix(1,0,0,-1,-195.875,1010)" d="M197.875 996H213.625V1008H197.875Z"/>
</clipPath>
<clipPath id="clip_2">
<path transform="matrix(1,0,0,-1,-195.875,1010)" d="M197.875 1008V996H213.625V1008Z" clip-rule="evenodd"/>
</clipPath>
</defs>
<g clip-path="url(#clip_1)">
<g clip-path="url(#clip_2)">
<path transform="matrix(1,0,0,-1,9.684998,4.101013)" d="M0 0 7.2-3H3" fill="#cd2027" fill-rule="evenodd"/>
<path transform="matrix(1,0,0,-1,9.684998,4.101013)" d="M0 0H4.2L7.2-3" fill="#cd2027" fill-rule="evenodd"/>
<path transform="matrix(1,0,0,-1,2.125,7.101013)" d="M0 0V-1.380005H15.62503V-1.335999Z" fill="#cd2027" fill-rule="evenodd"/>
<path transform="matrix(1,0,0,-1,2.125,7.101013)" d="M14.75999 0H0L15.62503-1.335999V-.8650513Z" fill="#cd2027" fill-rule="evenodd"/>
<path transform="matrix(1,0,0,-1,2.125,8.481018)" d="M0 0 14.76-1.38H0" fill="#cd2027" fill-rule="evenodd"/>
<path transform="matrix(1,0,0,-1,2.125,8.481018)" d="M0 0 14.75999-1.380005 15.62503-.5149536V0Z" fill="#cd2027" fill-rule="evenodd"/>
<path transform="matrix(1,0,0,-1,12.684998,9.861023)" d="M0 0 1.2-3H-3" fill="#cd2027" fill-rule="evenodd"/>
<path transform="matrix(1,0,0,-1,12.684998,9.861023)" d="M0 0H4.2L1.2-3" fill="#cd2027" fill-rule="evenodd"/>
</g>
</g>
</svg>
