<svg xmlns="http://www.w3.org/2000/svg" xmlns:xlink="http://www.w3.org/1999/xlink" xmlns:inkscape="http://www.inkscape.org/namespaces/inkscape" version="1.1" width="37.75" height="18.25" viewBox="0 0 37.75 18.25">
<defs>
<clipPath id="clip_1">
<path transform="matrix(1,0,0,-1,-180.125,479)" d="M182.125 462.75H215.875V477H182.125Z"/>
</clipPath>
<clipPath id="clip_2">
<path transform="matrix(1,0,0,-1,-180.125,479)" d="M182.125 477V462.75H215.875V477Z" clip-rule="evenodd"/>
</clipPath>
</defs>
<g clip-path="url(#clip_1)">
<g clip-path="url(#clip_2)">
<path transform="matrix(1,0,0,-1,23.574997,12.561005)" stroke-width="1.14" stroke-linecap="round" stroke-linejoin="round" fill="none" stroke="#000000" d="M0 0-8.28 2.76 0 5.22"/>
<path transform="matrix(1,0,0,-1,33.954999,9.801004)" stroke-width="1.14" stroke-linecap="round" stroke-linejoin="round" fill="none" stroke="#000000" d="M0 0H-18.66"/>
<path transform="matrix(1,0,0,-1,8.574997,4.040985)" d="M0 0 1.08-.12H-1.14" fill="#007b4e" fill-rule="evenodd"/>
<path transform="matrix(1,0,0,-1,7.4349977,4.1610109)" d="M0 0 3.3-.3H-1.08" fill="#007b4e" fill-rule="evenodd"/>
<path transform="matrix(1,0,0,-1,7.4349977,4.1610109)" d="M0 0H2.22L3.3-.3" fill="#007b4e" fill-rule="evenodd"/>
<path transform="matrix(1,0,0,-1,6.3549959,4.4609987)" d="M0 0 5.4-.54H-.96" fill="#007b4e" fill-rule="evenodd"/>
<path transform="matrix(1,0,0,-1,6.3549959,4.4609987)" d="M0 0H4.38L5.4-.54" fill="#007b4e" fill-rule="evenodd"/>
<path transform="matrix(1,0,0,-1,5.3950045,5.001007)" d="M0 0 7.26-.66H-.9" fill="#007b4e" fill-rule="evenodd"/>
<path transform="matrix(1,0,0,-1,5.3950045,5.001007)" d="M0 0H6.36L7.26-.66" fill="#007b4e" fill-rule="evenodd"/>
<path transform="matrix(1,0,0,-1,4.494995,5.6610109)" d="M0 0 8.88-.84H-.72" fill="#007b4e" fill-rule="evenodd"/>
<path transform="matrix(1,0,0,-1,4.494995,5.6610109)" d="M0 0H8.16L8.88-.84" fill="#007b4e" fill-rule="evenodd"/>
<path transform="matrix(1,0,0,-1,3.774994,6.501007)" d="M0 0 10.14-1.02H-.6" fill="#007b4e" fill-rule="evenodd"/>
<path transform="matrix(1,0,0,-1,3.774994,6.501007)" d="M0 0H9.6L10.14-1.02" fill="#007b4e" fill-rule="evenodd"/>
<path transform="matrix(1,0,0,-1,3.175003,7.520996)" d="M0 0 11.16-1.02H-.36" fill="#007b4e" fill-rule="evenodd"/>
<path transform="matrix(1,0,0,-1,3.175003,7.520996)" d="M0 0H10.74L11.16-1.02" fill="#007b4e" fill-rule="evenodd"/>
<path transform="matrix(1,0,0,-1,2.8150025,8.540985)" d="M0 0 11.64-1.14H-.18" fill="#007b4e" fill-rule="evenodd"/>
<path transform="matrix(1,0,0,-1,2.8150025,8.540985)" d="M0 0H11.52L11.64-1.14" fill="#007b4e" fill-rule="evenodd"/>
<path transform="matrix(1,0,0,-1,2.6349946,9.681)" d="M0 0 11.76-1.14H.06" fill="#007b4e" fill-rule="evenodd"/>
<path transform="matrix(1,0,0,-1,2.6349946,9.681)" d="M0 0H11.82L11.76-1.14" fill="#007b4e" fill-rule="evenodd"/>
<path transform="matrix(1,0,0,-1,2.6950074,10.821014)" d="M0 0 11.46-1.08H.3" fill="#007b4e" fill-rule="evenodd"/>
<path transform="matrix(1,0,0,-1,2.6950074,10.821014)" d="M0 0H11.7L11.46-1.08" fill="#007b4e" fill-rule="evenodd"/>
<path transform="matrix(1,0,0,-1,2.994995,11.901001)" d="M0 0 10.68-1.02H.42" fill="#007b4e" fill-rule="evenodd"/>
<path transform="matrix(1,0,0,-1,2.994995,11.901001)" d="M0 0H11.16L10.68-1.02" fill="#007b4e" fill-rule="evenodd"/>
<path transform="matrix(1,0,0,-1,3.4149934,12.92099)" d="M0 0 9.6-.9H.66" fill="#007b4e" fill-rule="evenodd"/>
<path transform="matrix(1,0,0,-1,3.4149934,12.92099)" d="M0 0H10.26L9.6-.9" fill="#007b4e" fill-rule="evenodd"/>
<path transform="matrix(1,0,0,-1,4.074997,13.821014)" d="M0 0 8.16-.78H.84" fill="#007b4e" fill-rule="evenodd"/>
<path transform="matrix(1,0,0,-1,4.074997,13.821014)" d="M0 0H8.94L8.16-.78" fill="#007b4e" fill-rule="evenodd"/>
<path transform="matrix(1,0,0,-1,4.9149935,14.601013)" d="M0 0 6.36-.6H.96" fill="#007b4e" fill-rule="evenodd"/>
<path transform="matrix(1,0,0,-1,4.9149935,14.601013)" d="M0 0H7.32L6.36-.6" fill="#007b4e" fill-rule="evenodd"/>
<path transform="matrix(1,0,0,-1,5.875,15.200989)" d="M0 0 4.38-.42H1.02" fill="#007b4e" fill-rule="evenodd"/>
<path transform="matrix(1,0,0,-1,5.875,15.200989)" d="M0 0H5.4L4.38-.42" fill="#007b4e" fill-rule="evenodd"/>
<path transform="matrix(1,0,0,-1,6.8950045,15.621002)" d="M0 0 2.22-.24H1.08" fill="#007b4e" fill-rule="evenodd"/>
<path transform="matrix(1,0,0,-1,6.8950045,15.621002)" d="M0 0H3.36L2.22-.24" fill="#007b4e" fill-rule="evenodd"/>
<path transform="matrix(1,0,0,-1,14.455002,9.980988)" stroke-width=".72" stroke-linecap="round" stroke-linejoin="bevel" fill="none" stroke="#000000" d="M0 0-.05999756 .8999939-.2400055 1.73999-.6928406 2.778778-1.272476 3.665344-2.733612 4.987396-4.466232 5.717743-6.313126 5.868011-8.117142 5.449738-9.721069 4.474579-10.96776 2.954132-11.408 1.993042-11.7 .8999939-11.75999 0-11.7-.8999939-11.408-1.993042-10.96776-2.954132-9.721069-4.474579-8.117142-5.449738-6.313126-5.868011-4.466232-5.717743-2.733612-4.987396-1.272476-3.665344-.6928406-2.778778-.2400055-1.73999-.05999756-.8999939Z"/>
</g>
</g>
</svg>
