<svg xmlns="http://www.w3.org/2000/svg" xmlns:xlink="http://www.w3.org/1999/xlink" xmlns:inkscape="http://www.inkscape.org/namespaces/inkscape" version="1.1" width="22" height="21.25" viewBox="0 0 22 21.25">
<defs>
<clipPath id="clip_1">
<path transform="matrix(1,0,0,-1,-195.125,731)" d="M197.125 711.75H215.125V729H197.125Z"/>
</clipPath>
<clipPath id="clip_2">
<path transform="matrix(1,0,0,-1,-195.125,731)" d="M197.125 729V711.75H215.125V729Z" clip-rule="evenodd"/>
</clipPath>
</defs>
<g clip-path="url(#clip_1)">
<g clip-path="url(#clip_2)">
<path transform="matrix(1,0,0,-1,3.175003,2.9609986)" d="M0 0 15.84-15.78H0" fill="#007b4e" fill-rule="evenodd"/>
<path transform="matrix(1,0,0,-1,3.175003,2.9609986)" d="M0 0H15.84V-15.78" fill="#007b4e" fill-rule="evenodd"/>
<path transform="matrix(1,0,0,-1,8.994995,4.4609987)" d="M0 0 .42-.06H-.24" fill="#fffffa" fill-rule="evenodd"/>
<path transform="matrix(1,0,0,-1,8.994995,4.4609987)" d="M0 0H.24L.42-.06" fill="#fffffa" fill-rule="evenodd"/>
<path transform="matrix(1,0,0,-1,8.755005,4.520996)" d="M0 0 .9-.06H-.18" fill="#fffffa" fill-rule="evenodd"/>
<path transform="matrix(1,0,0,-1,8.755005,4.520996)" d="M0 0H.66L.9-.06" fill="#fffffa" fill-rule="evenodd"/>
<path transform="matrix(1,0,0,-1,8.574997,4.5809938)" d="M0 0 1.26-.12H-.18" fill="#fffffa" fill-rule="evenodd"/>
<path transform="matrix(1,0,0,-1,8.574997,4.5809938)" d="M0 0H1.08L1.26-.12" fill="#fffffa" fill-rule="evenodd"/>
<path transform="matrix(1,0,0,-1,8.395004,4.700989)" d="M0 0 1.62-.18H-.18" fill="#fffffa" fill-rule="evenodd"/>
<path transform="matrix(1,0,0,-1,8.395004,4.700989)" d="M0 0H1.44L1.62-.18" fill="#fffffa" fill-rule="evenodd"/>
<path transform="matrix(1,0,0,-1,8.214996,4.8809816)" d="M0 0 1.92-.18H-.12" fill="#fffffa" fill-rule="evenodd"/>
<path transform="matrix(1,0,0,-1,8.214996,4.8809816)" d="M0 0H1.8L1.92-.18" fill="#fffffa" fill-rule="evenodd"/>
<path transform="matrix(1,0,0,-1,8.095001,5.060974)" d="M0 0 2.1-.18H-.12" fill="#fffffa" fill-rule="evenodd"/>
<path transform="matrix(1,0,0,-1,8.095001,5.060974)" d="M0 0H2.04L2.1-.18" fill="#fffffa" fill-rule="evenodd"/>
<path transform="matrix(1,0,0,-1,7.975006,5.241028)" d="M0 0 2.28-.24H-.06" fill="#fffffa" fill-rule="evenodd"/>
<path transform="matrix(1,0,0,-1,7.975006,5.241028)" d="M0 0H2.22L2.28-.24" fill="#fffffa" fill-rule="evenodd"/>
<path transform="matrix(1,0,0,-1,7.9149935,5.481018)" d="M0 0 2.4-.24H0" fill="#fffffa" fill-rule="evenodd"/>
<path transform="matrix(1,0,0,-1,7.9149935,5.481018)" d="M0 0H2.34L2.4-.24" fill="#fffffa" fill-rule="evenodd"/>
<path transform="matrix(1,0,0,-1,7.9149935,5.7210085)" d="M0 0 2.34-.18H0" fill="#fffffa" fill-rule="evenodd"/>
<path transform="matrix(1,0,0,-1,7.9149935,5.7210085)" d="M0 0H2.4L2.34-.18" fill="#fffffa" fill-rule="evenodd"/>
<path transform="matrix(1,0,0,-1,7.9149935,5.901001)" d="M0 0H2.34" fill="#fffffa" fill-rule="evenodd"/>
<path transform="matrix(1,0,0,-1,7.9149935,5.901001)" d="M0 0H2.34" fill="#fffffa" fill-rule="evenodd"/>
<path transform="matrix(1,0,0,-1,7.9149935,5.901001)" d="M0 0 2.28-.24H.06" fill="#fffffa" fill-rule="evenodd"/>
<path transform="matrix(1,0,0,-1,7.9149935,5.901001)" d="M0 0H2.34L2.28-.24" fill="#fffffa" fill-rule="evenodd"/>
<path transform="matrix(1,0,0,-1,7.975006,6.140991)" d="M0 0H2.22" fill="#fffffa" fill-rule="evenodd"/>
<path transform="matrix(1,0,0,-1,7.975006,6.140991)" d="M0 0H2.22" fill="#fffffa" fill-rule="evenodd"/>
<path transform="matrix(1,0,0,-1,7.975006,6.140991)" d="M0 0 2.16-.18H.12" fill="#fffffa" fill-rule="evenodd"/>
<path transform="matrix(1,0,0,-1,7.975006,6.140991)" d="M0 0H2.22L2.16-.18" fill="#fffffa" fill-rule="evenodd"/>
<path transform="matrix(1,0,0,-1,8.095001,6.320984)" d="M0 0H2.04" fill="#fffffa" fill-rule="evenodd"/>
<path transform="matrix(1,0,0,-1,8.095001,6.320984)" d="M0 0H2.04" fill="#fffffa" fill-rule="evenodd"/>
<path transform="matrix(1,0,0,-1,8.095001,6.320984)" d="M0 0 1.92-.18H.12" fill="#fffffa" fill-rule="evenodd"/>
<path transform="matrix(1,0,0,-1,8.095001,6.320984)" d="M0 0H2.04L1.92-.18" fill="#fffffa" fill-rule="evenodd"/>
<path transform="matrix(1,0,0,-1,8.214996,6.5009768)" d="M0 0H1.74" fill="#fffffa" fill-rule="evenodd"/>
<path transform="matrix(1,0,0,-1,8.214996,6.5009768)" d="M0 0H1.8 1.74" fill="#fffffa" fill-rule="evenodd"/>
<path transform="matrix(1,0,0,-1,8.214996,6.5009768)" d="M0 0 1.62-.18H.18" fill="#fffffa" fill-rule="evenodd"/>
<path transform="matrix(1,0,0,-1,8.214996,6.5009768)" d="M0 0H1.74L1.62-.18" fill="#fffffa" fill-rule="evenodd"/>
<path transform="matrix(1,0,0,-1,8.395004,6.6810305)" d="M0 0H1.38" fill="#fffffa" fill-rule="evenodd"/>
<path transform="matrix(1,0,0,-1,8.395004,6.6810305)" d="M0 0H1.44 1.38" fill="#fffffa" fill-rule="evenodd"/>
<path transform="matrix(1,0,0,-1,8.395004,6.6810305)" d="M0 0 1.26-.12H.18" fill="#fffffa" fill-rule="evenodd"/>
<path transform="matrix(1,0,0,-1,8.395004,6.6810305)" d="M0 0H1.38L1.26-.12" fill="#fffffa" fill-rule="evenodd"/>
<path transform="matrix(1,0,0,-1,8.574997,6.8010256)" d="M0 0H1.02" fill="#fffffa" fill-rule="evenodd"/>
<path transform="matrix(1,0,0,-1,8.574997,6.8010256)" d="M0 0H1.08 1.02" fill="#fffffa" fill-rule="evenodd"/>
<path transform="matrix(1,0,0,-1,8.574997,6.8010256)" d="M0 0 .84-.06H.18" fill="#fffffa" fill-rule="evenodd"/>
<path transform="matrix(1,0,0,-1,8.574997,6.8010256)" d="M0 0H1.02L.84-.06" fill="#fffffa" fill-rule="evenodd"/>
<path transform="matrix(1,0,0,-1,9.414993,6.861023)" d="M0 0H.06-.06" fill="#fffffa" fill-rule="evenodd"/>
<path transform="matrix(1,0,0,-1,8.755005,6.861023)" d="M0 0H.54 .06" fill="#fffffa" fill-rule="evenodd"/>
<path transform="matrix(1,0,0,-1,8.755005,6.861023)" d="M0 0H.66 .54" fill="#fffffa" fill-rule="evenodd"/>
<path transform="matrix(1,0,0,-1,8.994995,6.9210207)" d="M0 0H.12 .06" fill="#fffffa" fill-rule="evenodd"/>
<path transform="matrix(1,0,0,-1,9.354996,6.861023)" d="M0 0 .18-.06H-.12" fill="#fffffa" fill-rule="evenodd"/>
<path transform="matrix(1,0,0,-1,9.354996,6.861023)" d="M0 0H.12L.18-.06" fill="#fffffa" fill-rule="evenodd"/>
<path transform="matrix(1,0,0,-1,8.815002,6.861023)" d="M0 0 .3-.06H.18" fill="#fffffa" fill-rule="evenodd"/>
<path transform="matrix(1,0,0,-1,8.815002,6.861023)" d="M0 0H.48L.3-.06" fill="#fffffa" fill-rule="evenodd"/>
<path transform="matrix(1,0,0,-1,9.235001,6.9210207)" d="M0 0H.36-.18" fill="#fffffa" fill-rule="evenodd"/>
<path transform="matrix(1,0,0,-1,9.235001,6.9210207)" d="M0 0H.36" fill="#fffffa" fill-rule="evenodd"/>
<path transform="matrix(1,0,0,-1,9.054993,6.9210207)" d="M0 0H.6-.24" fill="#fffffa" fill-rule="evenodd"/>
<path transform="matrix(1,0,0,-1,9.054993,6.9210207)" d="M0 0H.6" fill="#fffffa" fill-rule="evenodd"/>
<path transform="matrix(1,0,0,-1,8.815002,6.9210207)" d="M0 0 1.08-.06H-.06" fill="#fffffa" fill-rule="evenodd"/>
<path transform="matrix(1,0,0,-1,8.815002,6.9210207)" d="M0 0H.84L1.08-.06" fill="#fffffa" fill-rule="evenodd"/>
<path transform="matrix(1,0,0,-1,8.755005,6.981018)" d="M0 0 1.56-.3H-.36" fill="#fffffa" fill-rule="evenodd"/>
<path transform="matrix(1,0,0,-1,8.755005,6.981018)" d="M0 0H1.14L1.56-.3" fill="#fffffa" fill-rule="evenodd"/>
<path transform="matrix(1,0,0,-1,8.395004,7.281006)" d="M0 0 2.16-.78H-.24" fill="#fffffa" fill-rule="evenodd"/>
<path transform="matrix(1,0,0,-1,8.395004,7.281006)" d="M0 0H1.92L2.16-.78" fill="#fffffa" fill-rule="evenodd"/>
<path transform="matrix(1,0,0,-1,12.595001,8.781006)" d="M0 0 .12-.12H-1.74" fill="#fffffa" fill-rule="evenodd"/>
<path transform="matrix(1,0,0,-1,8.154999,8.060974)" d="M0 0 2.7-.84H.36" fill="#fffffa" fill-rule="evenodd"/>
<path transform="matrix(1,0,0,-1,8.154999,8.060974)" d="M0 0H2.4L2.7-.84" fill="#fffffa" fill-rule="evenodd"/>
<path transform="matrix(1,0,0,-1,8.514999,8.901001)" d="M0 0 4.26-.12H0" fill="#fffffa" fill-rule="evenodd"/>
<path transform="matrix(1,0,0,-1,8.514999,8.901001)" d="M0 0H4.2L4.26-.12" fill="#fffffa" fill-rule="evenodd"/>
<path transform="matrix(1,0,0,-1,8.6349949,9.320984)" d="M0 0V0" fill="#fffffa" fill-rule="evenodd"/>
<path transform="matrix(1,0,0,-1,8.514999,9.020996)" d="M0 0 4.26-.3H.12" fill="#fffffa" fill-rule="evenodd"/>
<path transform="matrix(1,0,0,-1,8.514999,9.020996)" d="M0 0H4.26V-.3" fill="#fffffa" fill-rule="evenodd"/>
<path transform="matrix(1,0,0,-1,8.6349949,9.320984)" d="M0 0H4.14" fill="#fffffa" fill-rule="evenodd"/>
<path transform="matrix(1,0,0,-1,8.6349949,9.320984)" d="M0 0H4.14" fill="#fffffa" fill-rule="evenodd"/>
<path transform="matrix(1,0,0,-1,8.6349949,9.320984)" d="M0 0 3.96-.3H.12" fill="#fffffa" fill-rule="evenodd"/>
<path transform="matrix(1,0,0,-1,8.6349949,9.320984)" d="M0 0H4.14L3.96-.3" fill="#fffffa" fill-rule="evenodd"/>
<path transform="matrix(1,0,0,-1,8.6349949,9.320984)" d="M0 0 .12-.3H-.48" fill="#fffffa" fill-rule="evenodd"/>
<path transform="matrix(1,0,0,-1,8.6349949,9.320984)" d="M0 0 .12-.3" fill="#fffffa" fill-rule="evenodd"/>
<path transform="matrix(1,0,0,-1,8.154999,9.620972)" d="M0 0H.66-.12" fill="#fffffa" fill-rule="evenodd"/>
<path transform="matrix(1,0,0,-1,8.154999,9.620972)" d="M0 0H.66" fill="#fffffa" fill-rule="evenodd"/>
<path transform="matrix(1,0,0,-1,8.755005,9.620972)" d="M0 0 2.4-.06H.06" fill="#fffffa" fill-rule="evenodd"/>
<path transform="matrix(1,0,0,-1,8.755005,9.620972)" d="M0 0H3.84L2.4-.06" fill="#fffffa" fill-rule="evenodd"/>
<path transform="matrix(1,0,0,-1,13.975006,9.981018)" d="M0 0 .6-.06H-.78" fill="#fffffa" fill-rule="evenodd"/>
<path transform="matrix(1,0,0,-1,8.035004,9.620972)" d="M0 0 .96-.48H-.54" fill="#fffffa" fill-rule="evenodd"/>
<path transform="matrix(1,0,0,-1,8.035004,9.620972)" d="M0 0H.78L.96-.48" fill="#fffffa" fill-rule="evenodd"/>
<path transform="matrix(1,0,0,-1,7.494995,10.101013)" d="M0 0 1.5-.06H-.06" fill="#fffffa" fill-rule="evenodd"/>
<path transform="matrix(1,0,0,-1,7.494995,10.101013)" d="M0 0H1.5V-.06" fill="#fffffa" fill-rule="evenodd"/>
<path transform="matrix(1,0,0,-1,13.195007,10.041016)" d="M0 0 1.62-.24H-1.8" fill="#fffffa" fill-rule="evenodd"/>
<path transform="matrix(1,0,0,-1,13.195007,10.041016)" d="M0 0H1.38L1.62-.24" fill="#fffffa" fill-rule="evenodd"/>
<path transform="matrix(1,0,0,-1,8.815002,9.68103)" d="M0 0 2.58-.6H.24" fill="#fffffa" fill-rule="evenodd"/>
<path transform="matrix(1,0,0,-1,8.815002,9.68103)" d="M0 0H2.34L2.58-.6" fill="#fffffa" fill-rule="evenodd"/>
<path transform="matrix(1,0,0,-1,9.054993,10.281006)" d="M0 0H5.82" fill="#fffffa" fill-rule="evenodd"/>
<path transform="matrix(1,0,0,-1,9.054993,10.281006)" d="M0 0H5.82" fill="#fffffa" fill-rule="evenodd"/>
<path transform="matrix(1,0,0,-1,7.4349977,10.161011)" d="M0 0 1.14-.24H-.24" fill="#fffffa" fill-rule="evenodd"/>
<path transform="matrix(1,0,0,-1,7.4349977,10.161011)" d="M0 0H1.56L1.14-.24" fill="#fffffa" fill-rule="evenodd"/>
<path transform="matrix(1,0,0,-1,7.1950075,10.401001)" d="M0 0 1.14-.24H-.18" fill="#fffffa" fill-rule="evenodd"/>
<path transform="matrix(1,0,0,-1,7.1950075,10.401001)" d="M0 0H1.38L1.14-.24" fill="#fffffa" fill-rule="evenodd"/>
<path transform="matrix(1,0,0,-1,7.0149996,10.640991)" d="M0 0 1.14-.12H-.06" fill="#fffffa" fill-rule="evenodd"/>
<path transform="matrix(1,0,0,-1,7.0149996,10.640991)" d="M0 0H1.32L1.14-.12" fill="#fffffa" fill-rule="evenodd"/>
<path transform="matrix(1,0,0,-1,6.955002,10.760986)" d="M0 0 .84-.42H-.24" fill="#fffffa" fill-rule="evenodd"/>
<path transform="matrix(1,0,0,-1,6.955002,10.760986)" d="M0 0H1.2L.84-.42" fill="#fffffa" fill-rule="evenodd"/>
<path transform="matrix(1,0,0,-1,6.7149965,11.18103)" d="M0 0 1.02-.06H0" fill="#fffffa" fill-rule="evenodd"/>
<path transform="matrix(1,0,0,-1,6.7149965,11.18103)" d="M0 0H1.08L1.02-.06" fill="#fffffa" fill-rule="evenodd"/>
<path transform="matrix(1,0,0,-1,6.7149965,11.241028)" d="M0 0 .84-.36H-.12" fill="#fffffa" fill-rule="evenodd"/>
<path transform="matrix(1,0,0,-1,6.7149965,11.241028)" d="M0 0H1.02L.84-.36" fill="#fffffa" fill-rule="evenodd"/>
<path transform="matrix(1,0,0,-1,9.054993,10.281006)" d="M0 0 6.24-1.38H.54" fill="#fffffa" fill-rule="evenodd"/>
<path transform="matrix(1,0,0,-1,9.054993,10.281006)" d="M0 0H5.82L6.24-1.38" fill="#fffffa" fill-rule="evenodd"/>
<path transform="matrix(1,0,0,-1,13.554993,11.661011)" d="M0 0V-.06H-1.02" fill="#fffffa" fill-rule="evenodd"/>
<path transform="matrix(1,0,0,-1,13.675003,11.661011)" d="M0 0H1.68" fill="#fffffa" fill-rule="evenodd"/>
<path transform="matrix(1,0,0,-1,13.675003,11.661011)" d="M0 0H1.68" fill="#fffffa" fill-rule="evenodd"/>
<path transform="matrix(1,0,0,-1,9.595001,11.661011)" d="M0 0H3.96" fill="#fffffa" fill-rule="evenodd"/>
<path transform="matrix(1,0,0,-1,9.595001,11.661011)" d="M0 0H4.08 3.96" fill="#fffffa" fill-rule="evenodd"/>
<path transform="matrix(1,0,0,-1,9.595001,11.661011)" d="M0 0 2.94-.06H.06" fill="#fffffa" fill-rule="evenodd"/>
<path transform="matrix(1,0,0,-1,9.595001,11.661011)" d="M0 0H3.96L2.94-.06" fill="#fffffa" fill-rule="evenodd"/>
<path transform="matrix(1,0,0,-1,9.714996,11.901001)" d="M0 0H.78L0-.06" fill="#fffffa" fill-rule="evenodd"/>
<path transform="matrix(1,0,0,-1,12.535004,11.721008)" d="M0 0 1.08-.18H.06" fill="#fffffa" fill-rule="evenodd"/>
<path transform="matrix(1,0,0,-1,12.535004,11.721008)" d="M0 0H1.02L1.08-.18" fill="#fffffa" fill-rule="evenodd"/>
<path transform="matrix(1,0,0,-1,9.654999,11.721008)" d="M0 0 .84-.18H.06" fill="#fffffa" fill-rule="evenodd"/>
<path transform="matrix(1,0,0,-1,9.654999,11.721008)" d="M0 0H2.88L.84-.18" fill="#fffffa" fill-rule="evenodd"/>
<path transform="matrix(1,0,0,-1,6.595001,11.601013)" d="M0 0 .84-.3H-.12" fill="#fffffa" fill-rule="evenodd"/>
<path transform="matrix(1,0,0,-1,6.595001,11.601013)" d="M0 0H.96L.84-.3" fill="#fffffa" fill-rule="evenodd"/>
<path transform="matrix(1,0,0,-1,6.475006,11.901001)" d="M0 0 .9-.18H0" fill="#fffffa" fill-rule="evenodd"/>
<path transform="matrix(1,0,0,-1,6.475006,11.901001)" d="M0 0H.96L.9-.18" fill="#fffffa" fill-rule="evenodd"/>
<path transform="matrix(1,0,0,-1,12.595001,11.901001)" d="M0 0 1.08-.36H.06" fill="#fffffa" fill-rule="evenodd"/>
<path transform="matrix(1,0,0,-1,12.595001,11.901001)" d="M0 0H1.02L1.08-.36" fill="#fffffa" fill-rule="evenodd"/>
<path transform="matrix(1,0,0,-1,12.654999,12.260986)" d="M0 0 1.02-.06H0" fill="#fffffa" fill-rule="evenodd"/>
<path transform="matrix(1,0,0,-1,12.654999,12.260986)" d="M0 0H1.02V-.06" fill="#fffffa" fill-rule="evenodd"/>
<path transform="matrix(1,0,0,-1,6.475006,12.080994)" d="M0 0 .84-.54H-.06" fill="#fffffa" fill-rule="evenodd"/>
<path transform="matrix(1,0,0,-1,6.475006,12.080994)" d="M0 0H.9L.84-.54" fill="#fffffa" fill-rule="evenodd"/>
<path transform="matrix(1,0,0,-1,6.4149935,12.620972)" d="M0 0H.9" fill="#fffffa" fill-rule="evenodd"/>
<path transform="matrix(1,0,0,-1,6.4149935,12.620972)" d="M0 0H.9" fill="#fffffa" fill-rule="evenodd"/>
<path transform="matrix(1,0,0,-1,12.654999,12.320984)" d="M0 0 1.02-.42H.06" fill="#fffffa" fill-rule="evenodd"/>
<path transform="matrix(1,0,0,-1,12.654999,12.320984)" d="M0 0H1.02V-.42" fill="#fffffa" fill-rule="evenodd"/>
<path transform="matrix(1,0,0,-1,12.714996,12.741028)" d="M0 0 .96-.3H-.06" fill="#fffffa" fill-rule="evenodd"/>
<path transform="matrix(1,0,0,-1,12.714996,12.741028)" d="M0 0H.96V-.3" fill="#fffffa" fill-rule="evenodd"/>
<path transform="matrix(1,0,0,-1,6.4149935,12.620972)" d="M0 0 .96-.54H0" fill="#fffffa" fill-rule="evenodd"/>
<path transform="matrix(1,0,0,-1,6.4149935,12.620972)" d="M0 0H.9L.96-.54" fill="#fffffa" fill-rule="evenodd"/>
<path transform="matrix(1,0,0,-1,12.654999,13.041016)" d="M0 0 1.02-.24H-.06" fill="#fffffa" fill-rule="evenodd"/>
<path transform="matrix(1,0,0,-1,12.654999,13.041016)" d="M0 0H1.02V-.24" fill="#fffffa" fill-rule="evenodd"/>
<path transform="matrix(1,0,0,-1,6.4149935,13.161011)" d="M0 0 1.02-.12H0" fill="#fffffa" fill-rule="evenodd"/>
<path transform="matrix(1,0,0,-1,6.4149935,13.161011)" d="M0 0H.96L1.02-.12" fill="#fffffa" fill-rule="evenodd"/>
<path transform="matrix(1,0,0,-1,6.4149935,13.281006)" d="M0 0 1.14-.36H.12" fill="#fffffa" fill-rule="evenodd"/>
<path transform="matrix(1,0,0,-1,6.4149935,13.281006)" d="M0 0H1.02L1.14-.36" fill="#fffffa" fill-rule="evenodd"/>
<path transform="matrix(1,0,0,-1,12.595001,13.281006)" d="M0 0 .96-.42H-.12" fill="#fffffa" fill-rule="evenodd"/>
<path transform="matrix(1,0,0,-1,12.595001,13.281006)" d="M0 0H1.08L.96-.42" fill="#fffffa" fill-rule="evenodd"/>
<path transform="matrix(1,0,0,-1,12.475006,13.700989)" d="M0 0 1.08-.06H0" fill="#fffffa" fill-rule="evenodd"/>
<path transform="matrix(1,0,0,-1,12.475006,13.700989)" d="M0 0H1.08V-.06" fill="#fffffa" fill-rule="evenodd"/>
<path transform="matrix(1,0,0,-1,6.5350039,13.640991)" d="M0 0 1.14-.36H.12" fill="#fffffa" fill-rule="evenodd"/>
<path transform="matrix(1,0,0,-1,6.5350039,13.640991)" d="M0 0H1.02L1.14-.36" fill="#fffffa" fill-rule="evenodd"/>
<path transform="matrix(1,0,0,-1,6.654999,14.000977)" d="M0 0 1.14-.12H.06" fill="#fffffa" fill-rule="evenodd"/>
<path transform="matrix(1,0,0,-1,6.654999,14.000977)" d="M0 0H1.02L1.14-.12" fill="#fffffa" fill-rule="evenodd"/>
<path transform="matrix(1,0,0,-1,12.475006,13.760986)" d="M0 0 .9-.48H-.3" fill="#fffffa" fill-rule="evenodd"/>
<path transform="matrix(1,0,0,-1,12.475006,13.760986)" d="M0 0H1.08L.9-.48" fill="#fffffa" fill-rule="evenodd"/>
<path transform="matrix(1,0,0,-1,13.675003,11.661011)" d="M0 0 2.64-2.7H.9" fill="#fffffa" fill-rule="evenodd"/>
<path transform="matrix(1,0,0,-1,13.675003,11.661011)" d="M0 0H1.68L2.64-2.7" fill="#fffffa" fill-rule="evenodd"/>
<path transform="matrix(1,0,0,-1,12.175003,14.241028)" d="M0 0 1.14-.12H-.12" fill="#fffffa" fill-rule="evenodd"/>
<path transform="matrix(1,0,0,-1,12.175003,14.241028)" d="M0 0H1.2L1.14-.12" fill="#fffffa" fill-rule="evenodd"/>
<path transform="matrix(1,0,0,-1,6.7149965,14.120972)" d="M0 0 1.38-.42H.18" fill="#fffffa" fill-rule="evenodd"/>
<path transform="matrix(1,0,0,-1,6.7149965,14.120972)" d="M0 0H1.08L1.38-.42" fill="#fffffa" fill-rule="evenodd"/>
<path transform="matrix(1,0,0,-1,12.054993,14.361023)" d="M0 0 1.08-.24H-.18" fill="#fffffa" fill-rule="evenodd"/>
<path transform="matrix(1,0,0,-1,12.054993,14.361023)" d="M0 0H1.26L1.08-.24" fill="#fffffa" fill-rule="evenodd"/>
<path transform="matrix(1,0,0,-1,14.6349949,14.601013)" d="M0 0H.84L.12-.24" fill="#fffffa" fill-rule="evenodd"/>
<path transform="matrix(1,0,0,-1,14.574997,14.361023)" d="M0 0 .9-.24H.06" fill="#fffffa" fill-rule="evenodd"/>
<path transform="matrix(1,0,0,-1,14.574997,14.361023)" d="M0 0H1.74L.9-.24" fill="#fffffa" fill-rule="evenodd"/>
<path transform="matrix(1,0,0,-1,6.8950045,14.541016)" d="M0 0 1.32-.06H.06" fill="#fffffa" fill-rule="evenodd"/>
<path transform="matrix(1,0,0,-1,6.8950045,14.541016)" d="M0 0H1.2L1.32-.06" fill="#fffffa" fill-rule="evenodd"/>
<path transform="matrix(1,0,0,-1,6.955002,14.601013)" d="M0 0 1.56-.24H.18" fill="#fffffa" fill-rule="evenodd"/>
<path transform="matrix(1,0,0,-1,6.955002,14.601013)" d="M0 0H1.26L1.56-.24" fill="#fffffa" fill-rule="evenodd"/>
<path transform="matrix(1,0,0,-1,11.875,14.601013)" d="M0 0 1.08-.3H-.42" fill="#fffffa" fill-rule="evenodd"/>
<path transform="matrix(1,0,0,-1,11.875,14.601013)" d="M0 0H1.26L1.08-.3" fill="#fffffa" fill-rule="evenodd"/>
<path transform="matrix(1,0,0,-1,11.455002,14.901001)" d="M0 0 1.44-.06H-.06" fill="#fffffa" fill-rule="evenodd"/>
<path transform="matrix(1,0,0,-1,11.455002,14.901001)" d="M0 0H1.5L1.44-.06" fill="#fffffa" fill-rule="evenodd"/>
<path transform="matrix(1,0,0,-1,7.1349947,14.841003)" d="M0 0 1.8-.3H.18" fill="#fffffa" fill-rule="evenodd"/>
<path transform="matrix(1,0,0,-1,7.1349947,14.841003)" d="M0 0H1.38L1.8-.3" fill="#fffffa" fill-rule="evenodd"/>
<path transform="matrix(1,0,0,-1,11.395004,14.960999)" d="M0 0 1.32-.18H-.42" fill="#fffffa" fill-rule="evenodd"/>
<path transform="matrix(1,0,0,-1,11.395004,14.960999)" d="M0 0H1.5L1.32-.18" fill="#fffffa" fill-rule="evenodd"/>
<path transform="matrix(1,0,0,-1,7.3150026,15.140991)" d="M0 0 1.8-.06H.06" fill="#fffffa" fill-rule="evenodd"/>
<path transform="matrix(1,0,0,-1,7.3150026,15.140991)" d="M0 0H1.62L1.8-.06" fill="#fffffa" fill-rule="evenodd"/>
<path transform="matrix(1,0,0,-1,7.375,15.200989)" d="M0 0 2.04-.06H.12" fill="#fffffa" fill-rule="evenodd"/>
<path transform="matrix(1,0,0,-1,7.375,15.200989)" d="M0 0H1.74L2.04-.06" fill="#fffffa" fill-rule="evenodd"/>
<path transform="matrix(1,0,0,-1,10.975006,15.140991)" d="M0 0 1.62-.18H-.48" fill="#fffffa" fill-rule="evenodd"/>
<path transform="matrix(1,0,0,-1,10.975006,15.140991)" d="M0 0H1.74L1.62-.18" fill="#fffffa" fill-rule="evenodd"/>
<path transform="matrix(1,0,0,-1,10.494995,15.320984)" d="M0 0H2.04-.54" fill="#fffffa" fill-rule="evenodd"/>
<path transform="matrix(1,0,0,-1,10.494995,15.320984)" d="M0 0H2.1 2.04" fill="#fffffa" fill-rule="evenodd"/>
<path transform="matrix(1,0,0,-1,7.494995,15.260986)" d="M0 0 2.46-.06H.06" fill="#fffffa" fill-rule="evenodd"/>
<path transform="matrix(1,0,0,-1,7.494995,15.260986)" d="M0 0H1.92L2.46-.06" fill="#fffffa" fill-rule="evenodd"/>
<path transform="matrix(1,0,0,-1,7.5549929,15.320984)" d="M0 0 4.86-.18H.12" fill="#fffffa" fill-rule="evenodd"/>
<path transform="matrix(1,0,0,-1,7.5549929,15.320984)" d="M0 0H4.98L4.86-.18" fill="#fffffa" fill-rule="evenodd"/>
<path transform="matrix(1,0,0,-1,7.675003,15.500977)" d="M0 0 4.5-.12H.18" fill="#fffffa" fill-rule="evenodd"/>
<path transform="matrix(1,0,0,-1,7.675003,15.500977)" d="M0 0H4.74L4.5-.12" fill="#fffffa" fill-rule="evenodd"/>
<path transform="matrix(1,0,0,-1,7.8549959,15.620972)" d="M0 0 4.02-.24H.42" fill="#fffffa" fill-rule="evenodd"/>
<path transform="matrix(1,0,0,-1,7.8549959,15.620972)" d="M0 0H4.32L4.02-.24" fill="#fffffa" fill-rule="evenodd"/>
<path transform="matrix(1,0,0,-1,8.274994,15.861023)" d="M0 0 3.3-.12H.18" fill="#fffffa" fill-rule="evenodd"/>
<path transform="matrix(1,0,0,-1,8.274994,15.861023)" d="M0 0H3.6L3.3-.12" fill="#fffffa" fill-rule="evenodd"/>
<path transform="matrix(1,0,0,-1,8.455002,15.981018)" d="M0 0 2.76-.18H.48" fill="#fffffa" fill-rule="evenodd"/>
<path transform="matrix(1,0,0,-1,8.455002,15.981018)" d="M0 0H3.12L2.76-.18" fill="#fffffa" fill-rule="evenodd"/>
<path transform="matrix(1,0,0,-1,8.934998,16.16101)" d="M0 0 1.98-.06H.18" fill="#fffffa" fill-rule="evenodd"/>
<path transform="matrix(1,0,0,-1,8.934998,16.16101)" d="M0 0H2.28L1.98-.06" fill="#fffffa" fill-rule="evenodd"/>
<path transform="matrix(1,0,0,-1,9.654999,16.341004)" d="M0 0H.9 .18" fill="#fffffa" fill-rule="evenodd"/>
<path transform="matrix(1,0,0,-1,9.1150059,16.221009)" d="M0 0 1.44-.12H.54" fill="#fffffa" fill-rule="evenodd"/>
<path transform="matrix(1,0,0,-1,9.1150059,16.221009)" d="M0 0H1.8L1.44-.12" fill="#fffffa" fill-rule="evenodd"/>
</g>
</g>
</svg>
